<svg width="1022" height="1024" viewBox="0 0 1022 1024" fill="none" xmlns="http://www.w3.org/2000/svg">
<g filter="url(#filter0_d_92_157)">
<path d="M106.947 399.874C165.156 176.295 393.19 44.9175 616.279 106.439C839.367 167.96 973.025 399.081 914.816 622.661C856.607 846.24 628.573 977.617 405.485 916.096C182.396 854.575 48.7383 623.453 106.947 399.874Z" stroke="black" stroke-width="2" shape-rendering="crispEdges"/>
</g>
<path d="M324.91 117.225C342.113 139.402 344.956 170.082 335.458 201.881C325.961 233.674 304.148 266.477 272.229 292.703C240.31 318.929 204.398 333.557 172.171 336.047C139.938 338.537 111.498 328.889 94.2949 306.712C77.092 284.535 74.2488 253.855 83.7469 222.057C93.2434 190.264 115.057 157.461 146.976 131.234C178.895 105.008 214.807 90.3801 247.034 87.8903C279.267 85.4001 307.707 95.0484 324.91 117.225Z" stroke="black" stroke-width="2"/>
<defs>
<filter id="filter0_d_92_157" x="85.3246" y="83.283" width="851.114" height="855.969" filterUnits="userSpaceOnUse" color-interpolation-filters="sRGB">
<feFlood flood-opacity="0" result="BackgroundImageFix"/>
<feColorMatrix in="SourceAlpha" type="matrix" values="0 0 0 0 0 0 0 0 0 0 0 0 0 0 0 0 0 0 127 0" result="hardAlpha"/>
<feMorphology radius="3" operator="dilate" in="SourceAlpha" result="effect1_dropShadow_92_157"/>
<feOffset/>
<feGaussianBlur stdDeviation="2"/>
<feComposite in2="hardAlpha" operator="out"/>
<feColorMatrix type="matrix" values="0 0 0 0 0 0 0 0 0 0 0 0 0 0 0 0 0 0 0.25 0"/>
<feBlend mode="normal" in2="BackgroundImageFix" result="effect1_dropShadow_92_157"/>
<feBlend mode="normal" in="SourceGraphic" in2="effect1_dropShadow_92_157" result="shape"/>
</filter>
</defs>
</svg>
