<svg width="203" height="207" viewBox="0 0 203 207" fill="none" xmlns="http://www.w3.org/2000/svg">
<g opacity="0.7" filter="url(#filter0_f_53_306)">
<path d="M200.527 114.233C200.037 118.033 196.827 120.863 196.817 124.883C194.257 131.603 188.757 136.863 188.307 144.203C187.298 147.763 184.047 150.793 182.817 154.413C179.777 158.823 177.717 164.703 172.577 167.073C169.757 163.843 178.518 159.123 176.697 153.643C176.637 153.283 176.757 152.783 177.027 152.593C180.707 150.013 178.857 145.453 180.747 142.173C181.548 140.783 180.807 138.863 180.457 137.203C179.647 133.243 180.887 131.573 184.807 131.093C187.337 130.233 195.408 127.943 190.667 124.663C182.247 118.523 181.407 125.523 177.737 122.313C175.617 120.453 183.398 114.523 178.658 114.953C174.528 115.323 174.817 122.253 170.167 119.953C168.407 119.223 166.407 119.973 164.457 119.073C162.967 116.723 160.697 113.693 163.087 111.363C166.747 108.033 155.297 108.623 153.167 104.173C148.757 99.1129 146.327 109.933 149.897 112.393C153.447 117.053 159.037 115.873 164.048 118.733C164.298 125.203 155.037 125.823 156.967 132.433C157.268 133.583 156.967 134.873 156.327 135.973C154.497 139.913 150.717 135.173 147.827 137.573C141.628 141.433 134.847 141.853 127.857 141.873C125.597 143.733 123.097 143.153 120.597 142.623C118.407 141.843 114.307 142.893 115.397 139.123C114.987 136.003 107.857 136.973 106.357 139.323C104.217 141.903 101.297 142.323 98.5175 142.323C94.1075 141.183 88.3375 146.953 85.6975 141.853C85.2275 140.883 84.8275 139.583 83.3575 139.813C80.7075 140.253 81.2575 143.503 79.5475 145.023C75.5975 150.383 91.5375 148.523 75.9075 157.773C72.9875 158.813 72.1275 162.293 73.1275 165.113C71.8975 170.183 76.6775 170.363 79.1175 172.423C85.9375 173.693 90.9075 177.423 95.4575 182.323C96.2075 182.983 96.4875 183.863 96.6175 184.823C97.6475 187.613 99.2175 193.013 102.847 192.393C111.067 191.563 119.397 192.293 127.517 191.523C125.667 196.603 119.277 197.943 114.657 199.283C111.437 196.943 107.977 198.193 104.747 198.163C98.8075 198.163 93.1675 195.323 87.1075 195.383C84.8275 195.143 83.4675 194.203 83.1275 191.833C81.6075 187.103 75.5675 185.483 72.3575 181.923C70.5075 180.303 68.6275 179.743 66.1875 180.963C58.0875 184.293 46.2075 170.113 49.2075 161.993C49.1275 161.043 49.5475 160.273 50.5175 160.093C54.9575 158.673 51.7975 150.363 59.6275 153.073C61.3375 153.663 61.6375 152.943 61.8075 151.663C68.0775 137.683 56.4175 143.803 59.1175 136.763C61.7875 130.803 48.7275 131.993 54.5575 123.533C58.0175 116.433 64.0275 110.923 66.9675 103.533C68.6275 100.173 73.5475 97.1129 69.1875 93.3929C61.9375 87.9729 68.0475 87.4729 69.8575 82.1129C71.1675 77.3729 76.4475 75.0929 77.9075 70.1629C79.6975 66.5429 82.8175 65.7229 86.4175 67.3829C87.4275 67.8529 87.9375 68.4229 87.6675 69.5429C86.2975 79.4029 98.5175 75.3629 93.9275 71.5629C80.4175 59.2629 97.7675 49.7529 103.007 39.4329C103.657 37.4529 105.347 36.3029 107.587 36.2729C108.337 36.2629 109.147 36.2529 109.737 35.7229C113.727 32.1629 118.737 31.5829 123.667 31.4329C131.777 31.2829 141.237 32.2629 147.287 38.3629C148.197 39.5929 149.397 40.0929 150.977 39.8429C159.787 38.5729 167.127 43.9429 174.637 47.5429C178.527 49.2829 178.907 50.2929 178.127 54.4329C177.727 56.5729 177.408 58.6629 176.247 60.5629C174.397 64.0129 180.697 65.3029 179.077 69.2229C178.967 71.6929 183.017 69.7229 184.567 69.7729C188.617 68.7929 192.247 70.4229 192.667 74.4129C194.417 82.9029 199.427 90.4229 198.377 99.3829C198.357 104.053 202.677 109.583 200.507 114.223L200.527 114.233Z" fill="#9BD5E8"/>
<path d="M129.418 191.193C127.068 191.833 125.498 189.123 123.338 191.073C121.458 192.483 119.528 191.563 117.958 190.213C115.098 187.303 119.488 184.813 119.968 181.833C118.768 181.653 117.478 182.113 116.598 180.903C114.738 179.543 112.798 184.033 108.798 181.233C104.278 178.983 91.0675 182.693 95.0075 173.873C95.6775 170.403 94.5775 169.353 91.1475 170.233C85.2275 172.133 86.3475 163.663 80.5375 165.443C70.9575 166.463 77.2375 154.533 83.9775 158.033C84.3875 158.233 84.8475 158.423 85.5575 158.023C83.2775 154.363 86.1675 151.523 87.4275 148.513C90.6875 139.993 101.648 153.543 101.268 145.933C101.358 140.323 125.698 146.543 130.598 145.933C135.278 146.613 138.968 142.823 143.258 141.893C144.558 141.703 145.408 140.853 146.328 140.033C148.528 138.063 149.858 138.013 151.848 140.083C154.328 142.573 159.388 140.773 158.948 137.183C158.218 123.823 158.338 129.823 166.448 122.333C169.488 117.833 174.728 123.803 177.668 125.913C182.168 131.243 179.548 138.773 177.688 144.833C175.748 151.043 175.598 158.263 171.348 163.653C169.508 171.593 163.238 164.133 155.638 169.513C150.368 170.463 145.398 176.313 140.068 174.153C138.868 173.513 137.918 173.703 137.178 174.883C126.898 183.133 140.058 180.163 133.748 186.613C133.688 189.203 132.028 190.813 129.418 191.203V191.193Z" fill="#8ACEE8"/>
<path d="M201.087 111.583C198.407 109.493 200.287 104.923 197.927 102.183C197.517 95.7029 197.527 89.2729 194.707 83.1529C191.407 79.2529 193.937 72.9729 188.817 70.4629C186.997 68.3929 176.837 74.1529 178.057 69.7129C178.917 66.9229 178.727 66.3329 176.407 64.5529C172.237 61.7429 178.227 58.3629 177.197 54.6829C177.027 53.3229 178.927 52.4229 178.137 51.0329C171.097 45.7129 161.857 40.4229 152.707 40.3829C149.967 40.8729 148.167 41.3729 146.557 38.7729C143.767 34.7329 138.987 35.0229 135.057 33.1929C133.237 32.0429 131.357 31.3229 129.277 32.7129C127.887 33.7829 126.387 32.1129 125.037 32.0229C120.397 32.3029 115.327 32.8829 111.377 35.1629C110.017 38.6429 105.727 35.5129 104.147 38.7629C102.477 43.4229 99.7575 46.8329 95.7275 49.5929C91.6775 53.6129 88.9475 60.2229 90.2975 65.8029C90.3375 66.0829 90.3375 66.5029 90.4975 66.5929C92.3075 67.5829 92.6875 69.8129 94.3275 70.9329C95.6175 71.7929 97.6275 73.6329 95.4675 74.7329C92.0975 76.6229 92.7875 77.7429 88.8275 75.9029C88.3375 75.8729 87.7375 75.5929 87.7375 75.1629C87.7375 72.9229 85.5475 70.8729 87.3575 68.4829C86.1875 67.8029 84.8475 68.1329 83.8675 67.2329C83.2075 66.6229 82.2675 66.8629 81.5475 67.4929C78.8275 69.0929 77.5575 71.9129 76.5475 74.9329C76.4675 75.7829 75.4575 76.1229 74.8275 76.6729C67.9975 81.3629 73.2675 83.2829 66.6875 87.4129C65.3275 89.0129 67.7575 91.6629 69.2475 92.5429C72.4275 93.9629 72.8875 100.343 69.1875 101.373C67.9975 101.713 67.7575 102.773 67.7075 103.833C67.9775 106.443 64.2575 106.933 65.2375 109.673C65.4375 110.283 64.8675 110.693 64.3375 110.933C61.7175 112.123 60.4875 114.373 59.9475 117.013C59.6875 118.313 59.1975 119.023 57.9275 119.693C55.3275 121.553 54.1775 125.133 54.1675 128.333C54.3075 133.873 64.6475 130.693 58.8675 139.023C58.9775 139.503 59.2075 139.623 59.4875 139.693C63.4475 140.423 66.1675 144.423 64.2175 147.953C61.5075 148.993 63.5975 157.113 59.6575 153.923C56.7475 151.693 53.1475 154.813 53.5375 158.153C53.4675 160.293 53.3975 160.393 51.3575 160.603C48.2175 160.573 51.1575 163.853 49.5875 165.463C47.8175 168.653 52.0675 169.773 51.9375 172.703C52.8075 175.353 56.4175 176.293 57.9875 178.703C62.6075 184.063 68.3175 176.523 72.1175 180.823C76.0375 185.003 83.6875 186.793 84.1375 193.163C84.1575 193.893 84.7075 194.423 85.4275 194.423C90.8975 195.293 96.4575 195.193 101.567 197.613C102.537 198.023 103.377 197.773 104.277 197.433C105.507 196.963 106.757 196.503 108.007 197.433C110.667 198.183 111.947 195.143 114.497 198.823C111.017 202.473 105.207 202.023 100.757 203.863C97.6175 203.423 97.7075 198.213 93.9275 200.013C89.3075 201.533 85.0975 200.443 81.0475 198.213C76.0175 196.683 70.6875 196.023 65.6975 194.213C62.9175 193.393 62.1975 189.733 59.7875 188.013C56.1975 184.283 50.9675 182.213 47.1975 178.863C44.6375 177.013 45.3375 174.343 44.4675 171.843C41.5975 168.513 42.4775 154.613 46.6875 152.493C57.7075 144.203 58.6375 152.233 53.3375 138.283C53.2975 136.583 52.1275 136.543 50.9575 137.233C45.2675 140.823 39.7375 139.493 38.9975 132.233C37.5375 128.343 42.7275 124.203 46.0275 127.363C47.0975 128.443 47.9575 127.883 48.1975 126.553C48.8775 124.043 48.5075 121.173 49.7375 118.853C51.1075 116.783 52.1575 114.773 51.5175 112.073C51.8175 107.333 55.5575 108.783 54.8875 101.793C56.8375 99.3629 56.4175 96.0029 58.2175 93.5229C59.8075 88.5929 57.8875 82.6129 63.2775 79.2929C65.6875 77.2929 67.6375 74.8529 69.6175 72.5229C70.2575 69.0229 71.6675 66.0629 74.8775 64.0929C76.2075 62.5229 74.5675 58.1829 78.2375 58.6529C86.1875 58.9729 80.3475 52.9229 85.6075 50.9629C90.4975 49.9229 88.4375 41.3229 93.9275 41.7229C100.407 43.2529 99.3675 34.0629 105.257 33.5129C106.857 33.4529 107.067 31.0929 108.487 31.0229C113.777 31.0129 114.807 24.5029 121.377 26.9529C124.847 26.8929 128.137 29.2829 131.477 28.5329C133.627 27.8629 135.757 26.9529 137.977 28.3429C138.407 28.6129 138.877 28.4629 139.287 28.1729C145.207 24.8629 152.547 36.7329 160.397 37.3729C163.497 37.7129 164.977 33.6329 168.547 35.7529C170.787 36.2529 170.687 38.4929 172.577 39.6629C174.367 40.6829 175.037 42.2629 176.487 43.6729C177.837 49.4429 188.977 53.7129 184.347 60.5529C195.737 60.4029 202.137 85.0229 203.577 94.1529C204.377 96.7529 202.687 99.3429 204.037 101.803C204.487 102.823 203.617 103.513 203.667 104.563C204.097 105.903 202.607 106.833 202.937 108.043C203.057 109.233 202.087 111.003 201.077 111.593L201.087 111.583Z" fill="#A5D8E9"/>
<path d="M48.0674 180.823C41.1574 181.893 38.8974 173.653 33.7474 170.773C29.3674 167.483 30.2874 161.413 26.7674 157.583C16.0274 145.873 26.4074 143.093 23.8574 133.173C23.5574 132.603 24.3874 131.803 25.0774 131.443C29.3074 129.003 20.7474 127.143 25.7574 123.923C27.4074 121.573 31.2874 121.543 32.1474 118.853C32.4574 114.423 34.5774 110.453 35.2174 106.063C35.6874 102.813 38.1874 100.083 38.8074 96.6929C39.0174 89.2129 39.0474 82.0129 41.8674 74.9429C42.8274 71.7829 47.7174 71.5029 47.2474 67.5429C46.6474 63.8029 52.0174 64.0129 51.7374 60.4029C51.8274 57.4929 53.2374 55.3829 55.7174 54.0329C68.6774 46.7129 54.7074 34.4929 64.7574 33.5429C73.5274 36.5529 78.3174 27.3029 83.7674 32.2429C85.7574 34.1529 91.8274 32.3029 93.2174 29.8129C97.5174 23.3829 91.9374 14.3329 97.9574 8.85288C100.687 7.36288 102.147 4.19288 105.537 4.71288C109.697 5.29288 113.927 4.47288 118.297 5.38288C124.807 7.96288 130.427 12.1429 137.507 13.3129C138.917 13.0429 139.547 14.5029 140.897 14.4429C148.607 20.5429 163.997 24.5729 167.627 33.7029C157.127 38.1629 150.737 29.3329 141.987 26.1429C139.217 25.5229 136.537 24.7129 134.597 22.3729C132.617 19.5329 129.077 26.2529 126.037 26.4029C121.127 27.0829 116.777 23.7929 111.697 27.1329C109.327 28.6129 107.147 26.1529 104.647 26.9929C99.4074 27.1929 104.687 32.7229 100.757 34.4229C95.2974 42.6929 91.8674 35.5729 88.6374 42.3229C86.3174 49.3129 77.0874 52.1829 70.5474 50.7929C68.4174 49.8529 66.2074 51.6629 66.4074 54.3129C66.6074 57.0829 65.5474 58.4829 63.1674 59.4429C58.4474 62.8329 55.7774 69.0229 51.8074 73.4429C49.5274 76.8629 46.1574 80.0629 45.4574 84.2729C46.0174 87.7429 43.9274 91.0629 44.9374 94.5529C45.1774 95.3829 44.8874 96.2729 44.4274 96.9929C42.7274 99.6329 43.1974 103.043 41.2674 105.653C40.4974 106.693 41.2174 108.223 41.0574 109.533C39.1474 126.343 32.2174 134.063 41.6574 150.843C43.1074 161.003 34.2674 170.523 46.4274 178.053C47.2574 178.813 48.3574 179.263 48.0674 180.823Z" fill="#B7DDEA"/>
<path d="M47.9374 181.133C44.8474 175.663 35.5774 172.483 39.7374 163.953C40.6574 161.253 39.2774 158.263 41.0774 155.753C41.9674 154.373 41.7074 153.013 41.1874 151.473C40.0974 146.403 35.2574 142.243 36.4674 136.893C37.0474 134.943 35.3974 132.043 35.8774 129.813C35.4074 126.133 39.1074 123.813 38.5674 120.333C39.3274 116.623 39.7774 112.653 40.4674 108.853C40.3774 107.133 39.5974 105.523 41.0574 104.093C41.4874 103.483 42.3374 103.033 42.2274 102.243C41.8474 98.3329 45.4274 95.743 43.8874 91.813C43.9374 91.223 43.3274 90.5329 43.8274 89.9429C44.9974 88.5929 44.7174 87.1029 44.6074 85.5029C44.7474 77.0529 56.5974 68.7829 59.2374 61.5729C58.9274 59.1129 67.0674 58.563 65.6274 55.8929C64.4674 52.7229 68.0274 47.9229 71.3074 50.2129C74.7974 51.5429 78.8474 49.4229 82.0674 47.9429C87.9374 48.2929 86.3074 39.8229 91.7574 38.4429C92.8474 37.9529 93.5674 37.4129 94.7574 38.2829C98.0674 39.4329 98.4074 33.5829 101.567 32.9929C102.717 32.3829 101.527 31.0629 101.287 30.2329C100.147 27.0929 102.967 26.1529 105.477 26.1929C106.657 25.6529 107.587 25.8229 108.577 26.6529C110.787 28.5629 112.467 24.3029 115.137 25.1529C117.637 25.4529 120.277 23.5129 122.447 25.5529C125.527 27.4329 129.287 23.9629 131.407 21.6729C132.797 19.6629 133.367 19.6929 134.827 21.5529C138.837 26.4929 146.327 24.7429 150.207 30.0829C151.717 31.7829 154.307 31.5429 156.107 33.0129C159.297 36.4029 168.787 30.8229 168.717 35.6929C162.267 35.2229 163.107 40.4429 160.057 38.1629C158.657 36.8329 157.067 36.2429 155.187 36.4729C149.987 36.1129 143.557 23.1229 138.637 30.1829C136.817 27.3429 134.387 28.1629 132.027 29.1629C129.837 30.2729 127.797 29.4429 126.037 28.2029C123.277 29.0629 120.867 26.9429 118.127 27.3829C112.947 27.1229 113.767 32.6629 109.827 31.7729C107.027 30.4629 108.457 34.3929 105.827 34.2129C100.437 34.2629 101.157 40.6129 97.0174 42.6629C94.5874 43.9129 92.1474 40.3529 91.1374 44.2329C90.4474 45.6529 89.4674 46.9129 89.6074 48.6529C88.6574 52.2129 82.1574 50.8329 83.9874 55.7629C84.8574 58.6429 80.0074 59.7929 77.7974 59.3229C76.8574 58.9529 76.3974 59.5529 76.2174 60.3829C76.3174 63.1629 76.2374 65.5529 73.1174 66.4729C71.4074 67.0729 71.0774 68.6529 71.1274 70.1529C70.5674 74.7129 65.7874 77.4329 62.8674 80.6329C59.3074 83.3229 59.5074 87.603 59.7374 91.6229C57.9874 94.4729 57.9074 97.9629 56.1074 100.753C55.6274 101.493 54.9874 102.193 55.3874 103.033C57.7674 107.773 49.7374 109.673 52.6974 114.333C53.1574 115.123 52.6974 115.923 52.1974 116.383C48.0774 119.613 50.8174 125.723 47.7774 128.883C45.4374 130.003 45.4374 125.853 43.1674 126.923C40.6174 127.253 38.6474 129.383 39.6574 132.123C40.6674 134.423 40.8974 139.073 44.2774 138.543C47.2674 139.503 54.3374 132.453 54.0874 137.933C53.0874 141.943 60.3374 144.983 56.5674 148.103C46.1374 152.663 44.1774 152.713 43.7274 164.413C41.9874 168.833 46.2574 170.603 45.6574 174.453C45.9174 180.463 54.7274 180.813 56.7974 185.373C55.4674 185.983 54.8774 184.823 53.7574 184.433C52.4874 183.553 51.1074 182.893 49.6774 182.283C49.0374 182.023 47.9074 182.013 47.9174 181.113L47.9374 181.133Z" fill="#AEDBE9"/>
<path d="M36.8175 177.383C-2.70254 164.843 -2.11254 113.853 5.99746 80.283C11.6675 57.243 27.5275 39.063 44.5175 23.283C55.8075 9.10295 74.3575 4.83295 91.8175 5.78295C91.6075 8.78295 84.5875 7.73295 83.0575 12.283C81.6275 15.403 78.3375 12.033 76.2075 13.893C74.5375 15.103 72.9575 16.473 70.6375 16.043C63.4675 21.153 57.0275 28.313 48.8575 32.243C44.2975 36.583 44.9275 41.483 37.0375 44.263C28.7775 47.153 34.9075 52.993 29.6375 55.8829C23.7675 58.3629 25.9675 64.9429 22.5175 68.8629C10.6575 81.5229 10.5175 100.323 9.96746 116.603C7.67746 139.993 22.1875 162.043 36.8175 177.383Z" fill="#E3F0F6" fill-opacity="0.85"/>
<path d="M30.0174 170.043C27.4074 170.003 21.5674 160.113 20.3274 157.523C17.0474 150.823 13.4974 144.553 11.2274 137.453C7.86739 117.703 7.74739 93.3129 16.6774 75.3429C18.7774 72.3129 20.9374 69.1629 23.5174 66.5429C22.5674 64.2429 24.9474 62.6729 24.8074 60.5929C24.2774 55.7429 31.9674 56.2029 31.4874 51.5629C30.0474 45.8529 36.1174 43.8529 39.9474 41.5529C44.1274 41.3829 44.2374 36.1329 46.5174 33.5329C47.3674 32.0229 48.5374 31.1229 50.1874 30.7329C53.4674 30.0629 54.9174 26.7629 57.8874 25.3729C60.6874 23.9129 62.1174 19.9629 65.5274 19.5029C67.0174 19.3429 67.7574 18.4329 68.2874 17.0629C69.0674 15.0329 69.4674 14.8429 71.6974 15.3429C74.7474 15.7429 76.4974 10.5929 79.8674 12.8529C83.5774 14.8729 80.7974 7.33287 94.1274 5.81287C91.3174 22.0329 88.6274 16.7729 79.3174 25.0329C78.1074 26.5729 75.8574 26.0329 74.0374 25.2529C70.6574 23.8029 69.4374 24.1229 67.5974 27.1329C64.3974 30.7229 58.0074 28.4029 57.6674 35.0429C56.4574 45.3829 53.6574 47.6029 46.1874 53.7029C40.8074 57.7629 37.6374 63.9829 32.4874 68.3229C31.0674 69.3629 29.8974 70.8129 29.8574 72.7929C30.0074 76.5329 20.5674 73.0229 19.2074 82.1929C19.8074 86.1829 16.4174 88.5329 15.7374 92.0529C14.5674 98.5229 16.1874 105.243 14.9674 111.543C12.9474 122.463 12.6074 134.813 17.1774 145.193C19.5874 154.593 26.5974 161.353 30.0274 170.043H30.0174Z" fill="#D7E9F0" fill-opacity="0.95"/>
<path d="M29.8975 170.233C23.5475 159.513 15.5575 148.763 13.5475 136.173C14.4075 133.053 11.7075 130.643 12.2175 127.833C14.6775 122.983 11.6875 117.363 13.9875 112.263C14.5875 109.953 15.7675 107.713 14.2275 105.273C13.8975 101.893 15.2275 98.1729 14.6175 94.6629C14.7075 92.4429 15.2175 90.0729 16.3475 88.2529C18.6675 86.7029 18.5975 84.3929 18.2375 82.0729C24.0175 67.3329 29.5475 77.9729 28.9975 72.4229C30.5475 66.1429 38.3875 64.0729 40.2875 57.6029C40.7275 56.4729 41.9175 56.0929 42.9375 55.6229C45.0075 55.0929 45.5875 53.1629 46.4375 51.5729C49.4875 51.6929 49.8175 47.6429 52.7075 47.5029C53.2675 47.4729 53.4875 46.7529 53.7675 46.2629C57.5375 39.5629 54.9075 27.7329 65.4975 28.0629C67.9275 27.8329 66.4275 24.2829 68.7575 24.0929C70.4375 24.0229 72.1875 22.5529 73.8175 24.2229C75.9175 26.1229 79.5875 25.3829 80.5075 22.6129C81.1175 21.1229 82.0675 20.5729 83.7375 20.5829C91.6575 19.9329 91.4275 10.2729 94.6875 4.96286C98.5475 3.81286 102.208 2.76286 106.398 2.55286C108.378 5.68286 99.7675 3.90286 98.3275 9.18286C90.4075 15.7029 96.5775 21.4329 89.9275 26.0929C80.1775 36.0029 84.0475 26.0729 75.9375 30.3129C71.3675 35.3829 58.2675 27.2529 59.2875 37.4829C65.6875 55.9929 52.9475 49.4029 50.1575 58.8329C50.1575 64.4729 44.7575 58.8529 44.7475 63.1729C45.1575 75.1329 34.4675 64.9629 35.4975 72.7829C35.5875 74.4128 34.9775 75.4929 33.6575 76.2829C30.3175 77.8329 32.2575 81.3629 30.9475 84.0529C28.7175 87.7729 30.8575 93.3529 26.6775 95.7729C19.6775 99.8329 25.6775 106.073 23.3175 111.383C22.2875 113.373 22.5375 115.633 22.9675 117.753C24.5575 123.373 17.9875 126.333 18.7575 131.853C19.3175 134.613 17.0475 137.203 18.0575 139.863C20.9875 151.673 26.3775 163.263 35.1375 171.803C36.8575 173.253 39.1875 174.383 39.0375 177.363C38.3075 177.533 37.7075 177.523 36.8875 177.513C36.6575 177.093 36.6575 176.673 36.6475 176.043C34.2975 174.183 31.9975 172.403 29.8775 170.183L29.8975 170.233Z" fill="#CEE5ED"/>
<path d="M39.0973 177.653C36.8273 171.833 29.6773 169.903 27.9373 163.453C21.7073 156.973 19.8973 148.373 17.3273 140.033C15.9273 137.423 18.6673 135.363 18.0473 132.743C16.6373 126.693 23.7073 123.903 22.2973 117.953C21.7373 115.273 21.3473 112.373 23.2973 109.843C24.1373 108.753 23.7873 107.473 23.1173 106.393C21.3273 103.613 22.2273 96.4629 25.4873 95.5829C30.4373 94.0729 27.5873 88.1929 30.0273 84.5129C31.7173 81.6229 29.0273 77.6029 32.9073 75.8629C35.0573 74.6129 35.0473 74.5729 34.5773 72.1829C34.1773 62.9029 45.1673 76.0929 44.0473 61.7029C44.2373 57.4029 50.0973 64.3229 49.1973 58.9929C49.1973 56.3329 52.2473 53.1329 54.8873 53.1629C55.7473 53.1729 56.5173 52.9729 56.8373 52.3529C61.3273 47.6929 61.0373 43.6929 58.6573 37.9929C56.2173 31.5929 64.3573 30.1329 68.9873 31.6929C73.1173 33.5929 77.1673 26.2929 81.0773 28.6429C82.2073 29.7129 84.5973 31.2829 85.4773 29.1229C86.9173 26.2829 90.5273 25.7029 92.1773 22.8929C93.5273 18.6829 91.5073 14.4629 96.3173 11.0629C95.2573 14.8929 95.9973 18.7429 95.7573 22.6229C95.1373 23.7429 95.6073 24.8129 95.8673 25.8729C94.7173 27.5629 94.4573 29.7129 93.2473 31.3129C91.9973 33.1429 89.4473 32.7429 87.6073 33.5029C85.6173 34.5529 84.0673 33.9029 82.5873 32.4129C79.7273 28.9329 76.1273 34.0429 72.7673 34.3529C69.3273 35.5529 65.7973 33.2529 62.5873 34.7829C60.0573 36.0429 61.7973 39.9929 62.6373 42.0429C63.7773 44.2229 61.9373 47.0829 61.3773 49.2329C60.0073 53.7729 53.9673 54.1029 52.7273 58.5929C53.0973 66.2129 48.1873 62.7029 47.9973 67.0229C48.2973 74.3229 42.0773 70.0229 41.0073 80.9429C38.0773 87.0229 41.3673 93.4829 38.7173 99.5329C38.6673 102.523 35.5573 103.953 35.5873 107.073C35.8973 111.013 33.0073 114.463 32.9473 118.033C34.4573 121.813 28.6473 121.223 27.4073 123.313C27.1773 125.123 22.7073 125.323 25.1873 127.143C31.6873 132.073 23.2073 130.623 24.4773 134.373C27.4973 139.563 25.2273 137.823 23.1973 141.853C21.2173 149.443 24.6973 153.983 29.2973 159.573C31.1473 170.423 36.5173 170.573 42.3173 178.463C41.5273 179.563 39.8873 178.163 39.1173 177.613L39.0973 177.653Z" fill="#C3E1EB"/>
<path d="M56.9874 185.473C62.5274 186.123 63.7974 196.023 69.9174 194.363C73.2574 193.503 74.6374 198.203 78.0774 196.393C80.0774 195.923 81.5974 197.983 83.3574 198.643C86.2674 199.543 90.1174 200.753 92.9174 199.533C95.0174 198.303 98.6774 198.953 98.9074 201.803C98.9774 202.353 99.6874 202.813 100.267 203.423C99.7374 205.353 98.1274 204.363 96.7074 204.683C90.6574 205.633 84.8374 203.113 79.8474 200.703C76.2274 199.863 72.5874 197.783 68.4274 198.873C67.4374 198.663 66.8474 197.813 65.6474 197.863C64.5274 197.023 63.6174 196.013 62.6174 195.053C62.3174 194.773 61.8674 194.273 61.4974 193.923C60.9674 191.833 58.4974 190.583 58.1174 188.483C57.4374 187.613 56.5974 186.663 56.9774 185.463L56.9874 185.473Z" fill="#AEDBE9"/>
<path d="M204.217 101.703C202.717 101.693 202.377 100.723 202.757 99.4629C203.977 94.1929 201.387 89.0329 200.767 83.8529C199.117 80.7029 198.407 77.2029 197.287 73.9029C193.237 70.3329 191.237 59.8529 184.687 61.7129C180.347 61.4929 186.267 58.3129 185.137 55.8129C201.237 71.8829 205.067 78.3529 204.227 101.703H204.217Z" fill="#C3E1EB"/>
<path d="M68.4274 199.073C68.3674 194.483 75.9974 200.793 78.8774 199.193C80.2274 198.923 81.5974 200.343 82.6374 201.353C83.8774 202.553 85.1274 203.193 86.8474 202.983C87.5974 202.593 89.3074 203.813 88.1674 204.633C86.6974 204.663 85.3674 204.653 83.7874 204.623C83.1374 204.163 82.5174 204.113 81.9074 203.683C79.2474 203.733 77.9774 201.663 75.2774 201.863C72.6674 201.713 70.5274 200.513 68.4374 199.063L68.4274 199.073Z" fill="#B7DDEA"/>
<path d="M98.3875 9.3329C98.4175 2.6329 103.817 6.3929 106.617 2.7729C108.757 1.0229 116.847 2.8729 118.417 5.2229C117.147 6.4329 115.627 6.0629 114.217 5.7229C112.047 4.9229 110.047 6.5529 107.887 5.7229C103.577 3.9429 101.667 7.4729 98.3875 9.3229V9.3329Z" fill="#C3E1EB"/>
<path d="M168.667 34.0329C168.347 34.1329 168.047 34.0229 167.657 33.7629C162.377 26.1029 152.787 22.7929 145.277 17.6829C143.517 17.0629 141.697 16.9129 141.077 14.6429C147.767 17.0129 167.417 27.1729 168.667 34.0229V34.0329Z" fill="#D7E9F0" fill-opacity="0.95"/>
<path d="M172.348 167.833C168.168 175.683 155.228 181.243 146.948 184.913C145.918 182.773 148.018 182.813 149.128 181.873C157.818 178.643 164.568 171.983 172.348 167.833Z" fill="#C3E1EB"/>
<path d="M185.248 149.803C185.058 147.233 188.028 145.533 187.938 142.783C188.728 137.853 191.208 131.563 196.078 129.443C196.118 131.343 194.628 132.173 193.498 133.223C187.968 137.603 191.318 145.773 185.248 149.803Z" fill="#C3E1EB"/>
<path d="M149.388 181.953C149.138 183.703 146.658 182.853 146.728 184.923C142.778 187.823 137.528 188.433 132.798 189.513C132.738 188.963 132.888 188.513 133.228 187.723C138.528 185.293 143.918 181.953 149.388 181.953Z" fill="#A5D8E9"/>
<path d="M172.557 167.003C177.477 163.743 178.727 157.973 182.617 154.433C183.957 156.583 172.937 170.793 172.557 167.003Z" fill="#C3E1EB"/>
<path d="M132.487 189.523C136.307 187.933 140.247 187.203 144.287 186.063C142.367 189.423 133.337 189.643 129.367 191.363C130.167 190.483 130.977 189.483 132.487 189.523Z" fill="#C3E1EB"/>
<path d="M137.558 13.1629C136.468 14.8429 125.458 10.4329 124.718 8.44287C129.068 9.69287 133.158 11.4629 137.558 13.1629Z" fill="#D7E9F0" fill-opacity="0.95"/>
<path d="M96.6374 204.843C97.4874 203.483 99.0174 204.543 100.287 203.693C102.317 202.043 104.747 202.703 107.047 201.933C107.107 203.053 106.087 203.183 105.357 203.253C102.247 203.383 99.8074 206.063 96.6274 204.853L96.6374 204.843Z" fill="#CEE5ED"/>
<path d="M198.927 120.013C200.977 122.153 198.067 127.533 196.367 129.573C195.257 128.003 196.247 126.713 196.937 125.163C197.607 123.323 197.337 121.383 198.937 120.013H198.927Z" fill="#C3E1EB"/>
<path d="M199.158 119.823C197.838 121.243 198.898 125.353 196.558 125.183C196.368 122.903 196.378 119.603 199.018 118.723C199.148 119.133 199.158 119.383 199.158 119.823Z" fill="#A5D8E9"/>
<path d="M109.627 201.763C110.017 199.813 113.697 199.283 115.547 199.083C114.227 200.983 111.977 201.253 109.627 201.763Z" fill="#CEE5ED"/>
<path d="M56.7875 185.453C57.3575 186.283 57.7275 187.103 58.1075 188.103C56.0775 187.813 55.1975 185.913 53.7075 184.503C54.8575 184.053 55.5775 185.143 56.7975 185.453H56.7875Z" fill="#C3E1EB"/>
<path d="M182.828 52.0529C181.298 51.4529 180.298 50.1429 179.488 48.4729C181.198 48.9029 182.498 49.9229 182.828 52.0529Z" fill="#CEE5ED"/>
<path d="M200.897 111.733C201.607 111.193 201.297 110.103 202.317 109.833C202.397 111.473 202.157 113.103 200.587 114.353C200.567 113.593 200.727 112.763 200.897 111.733Z" fill="#C3E1EB"/>
<path d="M88.1776 204.833C88.0776 204.493 88.1776 204.343 88.4676 204.163C89.6276 204.193 90.6876 203.883 91.8376 204.513C90.8276 205.583 89.5776 205.243 88.1776 204.833Z" fill="#CEE5ED"/>
<path d="M62.6675 195.253C64.0775 195.293 64.8675 196.243 65.4475 197.653C63.9875 197.683 63.2475 196.673 62.6675 195.253Z" fill="#C3E1EB"/>
<path d="M182.997 154.323C182.827 153.143 182.797 151.863 184.277 151.053C184.667 152.343 184.377 153.473 182.997 154.323Z" fill="#C3E1EB"/>
<path d="M59.3274 190.723C61.0274 190.813 61.2374 192.183 61.5174 193.713C60.3474 193.243 59.8974 192.033 59.3274 190.723Z" fill="#C3E1EB"/>
<path d="M174.877 41.3829C173.927 41.5029 173.357 40.8729 172.777 39.9829C173.717 39.8229 174.647 39.9329 174.877 41.3829Z" fill="#D7E9F0" fill-opacity="0.95"/>
<path d="M176.608 43.6029C175.738 43.7729 175.158 43.3729 174.958 42.2829C175.808 42.1329 176.388 42.5329 176.608 43.6029Z" fill="#CEE5ED"/>
<path d="M81.8174 203.773C82.4174 203.573 83.1274 203.403 83.4974 204.423C82.8874 204.643 82.1874 204.783 81.8174 203.773Z" fill="#CEE5ED"/>
<path d="M47.9875 181.713C48.4675 181.393 49.8475 181.643 49.8075 182.473C49.0275 182.583 48.2975 182.753 47.9875 181.713Z" fill="#D7E9F0" fill-opacity="0.95"/>
<path d="M73.3474 201.503C73.8274 201.293 74.3574 201.223 74.9274 201.713C74.4074 202.533 73.8374 202.563 73.3474 201.503Z" fill="#D7E9F0" fill-opacity="0.95"/>
<path d="M117.017 199.033C116.857 198.163 117.357 197.873 118.367 197.973C118.437 198.773 117.927 199.033 117.017 199.033Z" fill="#CEE5ED"/>
<path d="M203.817 104.623C202.997 104.113 202.977 103.563 203.997 103.053C204.257 103.533 204.317 104.043 203.817 104.623Z" fill="#C3E1EB"/>
<path d="M94.6175 4.85291C94.7175 5.16291 94.6175 5.47291 94.3775 5.87291C93.9875 5.96291 93.7275 5.96291 93.2875 5.95291C93.1575 5.12291 93.6375 4.81291 94.6175 4.84291V4.85291Z" fill="#E3F0F6" fill-opacity="0.85"/>
<path d="M199.228 118.713C199.138 118.883 198.878 118.873 198.748 118.863C198.678 118.243 198.528 117.523 199.498 117.163C199.768 117.643 199.578 118.103 199.228 118.713Z" fill="#C3E1EB"/>
<path d="M49.8275 182.703C49.6675 182.623 49.6675 182.343 49.6675 182.213C50.2875 182.133 50.9875 181.983 51.3275 182.953C50.8575 183.213 50.4175 183.033 49.8275 182.703Z" fill="#C3E1EB"/>
<path d="M70.0474 200.303C70.5974 200.183 71.3074 200.043 71.6574 201.023C71.0274 201.293 70.5074 201.023 70.0474 200.303Z" fill="#D7E9F0" fill-opacity="0.95"/>
<path d="M145.727 185.943C145.627 185.443 145.827 185.053 146.557 184.933C146.677 185.433 146.517 185.863 145.727 185.943Z" fill="#C3E1EB"/>
<path d="M41.1975 178.893C41.4275 178.703 41.6775 178.703 42.1275 178.693C42.3275 178.933 42.3275 179.173 42.3475 179.603C41.8275 179.783 41.3875 179.663 41.1975 178.893Z" fill="#D7E9F0" fill-opacity="0.95"/>
<path d="M61.5474 194.103C62.0374 193.973 62.4674 194.113 62.6174 194.863C62.1174 195.013 61.6874 194.863 61.5474 194.103Z" fill="#C3E1EB"/>
<path d="M203.077 107.983C202.287 107.963 201.777 107.693 202.927 107.013C203.097 107.253 203.107 107.513 203.077 107.983Z" fill="#C3E1EB"/>
<path d="M96.8973 4.30286C96.9573 4.81286 96.9673 5.46286 96.0273 4.97286C96.1073 4.53286 96.3773 4.35286 96.8973 4.30286Z" fill="#D7E9F0" fill-opacity="0.95"/>
<path d="M139.947 14.2029C139.467 14.4029 139.027 14.2929 138.807 13.5529C139.297 13.3329 139.727 13.4529 139.947 14.2029Z" fill="#D7E9F0" fill-opacity="0.95"/>
<path d="M127.428 191.263C127.648 191.143 127.758 191.153 128.018 191.213C128.168 191.423 127.778 191.723 127.558 191.683C127.448 191.583 127.378 191.493 127.428 191.263Z" fill="#C3E1EB"/>
<path d="M127.507 190.933C127.537 191.133 127.527 191.403 127.517 191.543C124.187 192.483 121.027 193.123 117.567 192.803C115.917 192.473 114.127 193.923 112.597 193.283C107.977 190.273 100.887 196.743 98.3874 190.373C97.9074 188.093 95.2374 187.053 95.8974 184.383C95.9374 184.043 95.8174 183.473 95.5874 183.353C93.3874 182.213 92.5574 179.533 90.1574 178.613C89.1074 178.213 88.2674 177.633 87.8574 176.363C84.8474 173.113 78.5374 175.093 75.4374 170.913C73.9774 169.463 70.2674 169.523 72.1574 166.713C74.0474 164.103 69.4174 163.863 71.7374 161.113C72.8374 159.723 73.8874 157.853 75.3574 156.893C78.4374 157.133 79.3974 154.203 81.3374 152.803C83.1474 151.493 82.6974 150.113 80.5474 149.403C77.8074 148.653 77.3774 147.193 78.1074 145.143C81.0874 143.923 79.6774 139.773 82.9674 138.913C84.0874 138.413 84.9574 138.583 85.5074 139.783C87.4974 147.703 93.3074 139.473 98.3974 141.813C100.007 142.303 101.277 140.513 102.967 140.873C107.537 139.283 106.827 134.833 113.797 136.923C119.187 136.693 113.907 140.503 116.627 141.343C119.027 140.943 121.107 142.363 123.497 142.293C127.227 143.153 126.887 139.873 129.417 140.673C135.837 142.433 142.767 139.743 148.297 136.463C150.807 133.853 154.277 139.473 155.777 135.723C157.837 132.653 153.947 128.483 157.597 126.453C158.857 125.363 160.907 124.563 161.677 123.143C161.767 121.323 163.167 120.443 164.177 119.073C166.797 119.033 169.467 118.383 171.927 119.833C174.907 120.413 173.707 114.393 177.257 114.793C177.847 114.783 178.427 114.233 178.997 113.923C181.597 112.333 181.467 116.183 180.387 117.483C179.867 118.983 177.247 120.333 178.057 121.933C182.267 124.833 180.307 117.613 190.897 123.643C192.327 123.953 193.377 127.083 192.867 128.483C191.787 131.013 188.187 127.973 187.597 131.393C187.457 132.113 186.277 131.843 185.547 131.863C176.467 131.403 184.427 140.463 180.577 144.923C179.807 145.973 179.757 147.283 180.197 148.443C181.987 151.913 175.507 151.603 177.557 155.263C178.417 160.153 171.567 162.833 172.627 167.753C168.017 169.073 164.837 173.983 160.227 174.093C156.717 173.423 154.247 175.103 152.377 177.833C151.517 179.093 150.527 179.943 148.967 179.963C142.787 180.613 138.697 185.283 133.167 187.743C131.877 186.773 133.247 185.753 134.147 185.243C138.597 181.823 130.247 182.373 131.777 179.423C143.307 165.013 136.217 180.023 149.307 171.133C150.747 169.743 151.707 169.733 153.557 170.123C155.027 168.183 157.957 168.613 159.357 166.533C161.727 164.073 169.237 170.193 170.307 164.523C171.547 160.583 175.167 157.823 174.937 153.333C174.937 152.393 174.807 151.413 175.617 150.693C178.097 148.833 175.237 145.773 176.907 143.903C178.447 141.993 179.397 139.223 179.177 136.933C178.757 135.923 178.957 134.943 179.227 133.913C180.367 129.693 177.897 126.183 174.087 124.013C171.747 123.273 169.707 119.393 167.437 122.163C166.107 124.643 164.497 126.033 161.767 126.593C155.707 128.773 163.347 138.593 157.707 141.283C150.677 144.823 151.327 136.103 147.097 140.313C145.227 143.623 141.007 141.623 139.147 144.613C137.387 146.263 134.147 145.353 132.047 146.783C131.737 146.953 131.217 147.163 130.987 147.023C128.897 145.813 126.367 147.023 124.307 145.763C119.797 145.163 115.057 146.083 110.557 144.373C108.337 143.833 106.197 144.973 103.917 144.363C101.387 143.653 101.777 146.003 102.607 147.583C102.887 151.293 96.4674 148.343 94.8474 147.213C92.3074 144.803 88.2674 146.903 87.4774 149.963C87.3974 152.613 83.6474 154.553 86.1974 156.993C86.5174 157.653 87.2074 158.373 86.6674 159.063C86.0274 159.883 85.0574 159.543 84.3774 159.043C81.4474 156.683 74.9574 159.573 76.4474 163.323C77.2974 166.113 81.0074 164.193 83.2374 164.603C87.4174 164.583 86.0474 171.843 91.2274 169.293C92.5774 169.133 94.8574 167.963 95.4374 169.793C98.0074 174.693 90.1574 180.123 100.387 178.843C100.917 178.543 101.517 178.873 101.897 179.323C104.487 181.783 104.877 177.173 110.257 181.123C113.757 183.273 115.457 176.593 117.507 180.843C118.547 182.443 118.797 180.433 119.727 180.113C120.727 180.803 121.997 183.003 120.347 183.703C118.647 184.923 116.407 188.653 118.657 190.013C120.367 191.283 122.217 191.463 123.297 190.463C124.651 189.203 126.064 189.363 127.537 190.943L127.507 190.933Z" fill="#93D2E9"/>
<path d="M120.247 114.893C118.947 115.373 117.547 116.743 116.447 115.623C115.617 114.303 114.527 113.653 112.957 113.693C111.757 113.633 111.157 111.763 110.147 111.463C106.907 110.873 105.457 108.053 103.277 106.153C101.757 104.673 96.4674 103.843 98.9274 100.923C100.157 99.7029 102.007 97.8429 100.117 96.2229C98.3074 94.0429 103.287 92.1029 99.3774 88.9729C95.7474 85.8729 102.187 83.1929 101.587 79.4429C102.227 77.1329 102.977 73.6429 105.997 73.6929C106.527 73.7329 107.107 73.7629 107.637 73.1529C103.917 71.1629 100.127 69.1129 100.447 64.1929C100.097 60.4929 99.5274 54.3729 103.777 52.8529C106.797 53.1929 110.387 50.3229 112.647 53.3729C114.087 54.4829 116.367 53.6729 118.027 54.5929C127.457 57.2629 123.707 69.6329 129.077 75.5829C133.247 78.9629 135.677 83.6329 138.527 87.9929C139.617 89.9629 137.007 92.2129 136.527 94.1729C135.117 98.1629 140.677 94.2829 142.247 97.1929C142.837 97.7429 143.547 97.8429 144.257 98.0729C146.547 98.6829 146.337 100.333 144.947 101.803C143.507 106.893 137.727 103.213 134.727 106.423C133.617 107.383 132.637 107.813 131.187 107.223C128.057 106.033 126.417 110.323 124.947 112.493C124.407 114.533 122.037 114.173 120.267 114.903L120.247 114.893Z" fill="#93D2E9"/>
<path d="M171.317 58.2929C169.127 60.7329 169.097 65.8729 171.017 68.3729C172.147 69.3029 172.287 70.2229 171.367 71.5229C170.377 73.1129 171.317 75.4429 169.817 76.8929C165.037 75.7829 163.467 70.6129 157.807 72.0129C153.557 71.9829 156.817 68.9929 150.517 67.9629C147.527 66.5529 141.747 73.8429 140.547 67.7529C140.087 64.6329 142.897 60.1229 139.447 58.1229C137.437 56.6129 125.117 50.4329 128.517 48.1329C132.077 45.4229 125.497 43.6829 128.247 40.7129C132.097 35.3729 136.577 42.7729 141.297 42.9329C143.237 43.7329 144.657 49.2529 147.547 46.5529C151.527 43.1829 156.817 42.8729 160.957 45.9829C164.817 48.4129 164.707 54.4429 170.147 55.0629C172.017 55.5729 172.127 55.9329 171.317 58.3029V58.2929Z" fill="#93D2E9"/>
<path d="M164.207 118.633C160.137 119.313 156.837 115.173 152.577 117.003C151.537 117.363 150.597 117.123 150.697 115.773C150.557 112.083 145.727 111.193 147.447 106.853C147.937 104.393 149.357 100.223 152.527 102.443C156.617 109.503 168.847 106.893 164.147 111.313C160.857 113.783 164.637 115.323 164.217 118.633H164.207Z" fill="#93D2E9"/>
<path d="M189.148 104.573C193.038 107.743 193.518 104.383 193.328 110.593C194.028 115.123 189.128 113.093 186.498 113.503C185.118 113.713 184.208 112.163 182.898 111.643C181.938 111.263 182.268 109.983 182.288 109.073C183.288 104.323 180.628 98.6229 184.618 94.7829C185.598 94.0029 186.168 94.0229 186.448 95.2029C186.968 97.3529 188.288 99.3129 187.918 101.673C187.748 102.763 188.118 103.703 189.138 104.573H189.148Z" fill="#93D2E9"/>
<path d="M179.088 81.9828C179.578 85.9728 182.598 82.6328 184.778 84.4428C186.978 86.2128 184.198 87.2029 183.268 88.6329C182.008 90.5229 180.548 90.7428 179.338 88.9728C177.298 86.0428 174.238 89.5128 171.488 85.7228C170.248 84.3628 171.828 82.4928 171.568 80.8628C171.638 79.4028 172.038 79.1428 173.298 80.0128C175.158 82.1428 178.258 78.7128 179.078 81.9828H179.088Z" fill="#93D2E9"/>
<path d="M196.198 125.163C196.628 125.073 196.878 125.073 197.318 125.073C197.408 126.503 196.148 127.603 196.358 129.343C195.218 129.593 194.708 130.593 193.738 131.223C193.958 129.113 194.608 127.033 196.208 125.163H196.198Z" fill="#99D1F0"/>
<path d="M83.1075 79.2729C85.1775 80.7629 83.1075 82.2329 81.3575 82.0129C79.8875 81.1329 80.8875 79.2129 83.1075 79.2729Z" fill="#A5D8E9"/>
<path d="M184.207 117.383C184.797 116.723 185.527 116.293 185.897 117.003C186.597 118.383 183.377 119.553 184.207 117.383Z" fill="#93D2E9"/>
<path d="M88.9674 185.193C88.8574 184.373 89.3074 184.373 89.7874 184.533C90.3574 185.043 89.6274 185.623 88.9674 185.193Z" fill="#93D2E9"/>
<path d="M101.067 161.673C102.347 165.943 96.2273 161.273 94.3773 161.723C93.1773 161.783 93.0573 160.903 93.1573 159.983C93.8273 156.963 98.7173 161.663 101.077 161.663L101.067 161.673Z" fill="#93D2E9"/>
<path d="M76.7274 43.2729C76.7874 45.7329 73.3974 45.5229 72.9174 47.9829C72.1774 49.9329 69.6974 47.8529 70.8074 46.4229C75.0574 44.1529 70.8474 42.6429 73.0174 40.6629C74.7474 39.7729 76.4774 41.5529 76.7274 43.2629V43.2729Z" fill="#AEDBE9"/>
<path d="M45.1374 122.813C44.8974 123.833 45.7374 125.293 44.3474 125.263C43.2274 125.243 43.5074 123.833 43.4474 122.943C42.9874 120.263 45.4474 119.723 45.1374 122.813Z" fill="#A5D8E9"/>
<path d="M29.9175 170.423C32.4975 171.503 34.5275 173.483 36.5875 175.703C33.7275 175.023 31.5975 173.123 29.9175 170.423Z" fill="#D7E9F0" fill-opacity="0.95"/>
<path d="M133.387 187.723C134.437 185.543 137.877 185.663 139.117 183.283C140.677 181.703 143.327 181.963 144.897 180.133C146.817 178.153 150.787 180.653 151.857 177.233C153.027 174.583 157.297 172.533 160.067 173.323C164.287 173.873 166.167 168.603 170.777 168.543C160.827 179.043 146.507 183.063 133.387 187.723Z" fill="#9BD5E8"/>
<path d="M102.887 84.7529C106.747 82.5129 101.977 78.0929 107.067 78.2929C109.017 78.8629 110.647 78.5429 112.447 77.8529C116.017 78.6429 120.077 79.9229 123.637 79.6129C128.247 77.5429 129.727 82.3229 132.267 84.9429C133.487 85.8529 133.027 87.3529 133.207 88.6029C134.877 93.2829 128.967 97.5729 125.467 99.4429C124.667 99.6029 124.447 100.713 125.077 101.313C127.867 104.153 124.407 106.673 123.027 109.013C120.817 112.563 117.677 111.633 114.577 109.953C110.037 109.133 108.437 105.463 106.767 101.893C108.737 90.1929 103.077 91.4429 102.897 84.7629L102.887 84.7529Z" fill="#8ACEE8"/>
</g>
<defs>
<filter id="filter0_f_53_306" x="0.0898438" y="0.581421" width="205.746" height="206.146" filterUnits="userSpaceOnUse" color-interpolation-filters="sRGB">
<feFlood flood-opacity="0" result="BackgroundImageFix"/>
<feBlend mode="normal" in="SourceGraphic" in2="BackgroundImageFix" result="shape"/>
<feGaussianBlur stdDeviation="0.75" result="effect1_foregroundBlur_53_306"/>
</filter>
</defs>
</svg>
