<svg width="183" height="66" viewBox="0 0 183 66" fill="none" xmlns="http://www.w3.org/2000/svg">
<mask id="mask0_68_85" style="mask-type:alpha" maskUnits="userSpaceOnUse" x="0" y="0" width="183" height="40">
<circle cx="163.432" cy="19.5119" r="18.956" fill="white"/>
<circle cx="114.515" cy="20.0342" r="18.956" fill="#D9D9D9"/>
<circle cx="68.2195" cy="19.773" r="18.956" fill="#D9D9D9"/>
<circle cx="19.3062" cy="20.3656" r="18.956" fill="white"/>
</mask>
<g mask="url(#mask0_68_85)">
<g filter="url(#filter0_d_68_85)">
<path d="M7.87534 21.3025C6.82713 21.3025 5.55618 21.3549 4.06249 21.4597L3.1191 21.5383C2.85705 21.5645 2.64741 21.499 2.49018 21.3418C2.35915 21.1583 2.29364 20.9618 2.29364 20.7521C2.29364 20.5163 2.35915 20.3198 2.49018 20.1625C2.64741 20.0053 2.85705 19.9398 3.1191 19.966L4.06249 20.0446C5.71341 20.1494 6.98437 20.2018 7.87534 20.2018H16.5624C17.0078 20.2018 17.3485 20.0839 17.5844 19.8481C17.8202 19.586 17.9381 19.2453 17.9381 18.8261V5.77589C17.9381 5.12076 18.1216 4.63596 18.4884 4.3215C18.8815 3.98083 19.3663 3.8105 19.9428 3.8105C20.4145 3.8105 20.8076 3.90222 21.1221 4.08565C21.4365 4.26909 21.5937 4.45253 21.5937 4.63596C21.5937 4.8456 21.3841 4.96353 20.9648 4.98973C20.8076 5.01594 20.6766 5.10766 20.5717 5.26489C20.4931 5.42212 20.4538 5.59245 20.4538 5.77589V18.8261C20.4538 19.2453 20.5717 19.586 20.8076 19.8481C21.0696 20.0839 21.4103 20.2018 21.8296 20.2018H30.438C30.9621 20.2018 31.3945 20.097 31.7352 19.8874C32.102 19.6515 32.482 19.3371 32.8751 18.944C33.4516 18.3675 34.0412 18.0792 34.6439 18.0792C34.9846 18.0792 35.3253 18.184 35.6659 18.3937C36.059 18.6557 36.4259 18.9702 36.7665 19.3371C37.0548 19.6777 37.1989 20.0053 37.1989 20.3198C37.1989 20.608 37.081 20.8439 36.8452 21.0273C36.6093 21.2107 36.2686 21.3025 35.8232 21.3025L21.8296 21.3418C21.4103 21.3418 21.0696 21.4597 20.8076 21.6955C20.5717 21.9314 20.4538 22.272 20.4538 22.7175V35.7284C20.4538 36.2001 20.2704 36.5801 19.9035 36.8683C19.5628 37.1828 19.196 37.34 18.8029 37.34C18.5408 37.34 18.3181 37.2483 18.1347 37.0649C17.9774 36.9076 17.9119 36.6718 17.9381 36.3573V22.6782C17.9381 22.2327 17.8202 21.8921 17.5844 21.6562C17.3485 21.4204 17.0078 21.3025 16.5624 21.3025H7.87534ZM50.6422 17.1358C52.6862 15.4849 54.6385 13.4933 56.499 11.1611C58.3596 8.80259 59.8402 6.06415 60.9408 2.94573C61.0718 2.55265 61.3077 2.25129 61.6484 2.04165C61.989 1.8058 62.3559 1.68788 62.749 1.68788C63.4041 1.68788 63.9413 1.93683 64.3606 2.43473C64.544 2.61816 64.6357 2.8016 64.6357 2.98504C64.6357 3.08986 64.5833 3.18158 64.4785 3.26019C64.3999 3.33881 64.2951 3.37811 64.1641 3.37811C63.771 3.37811 63.4565 3.69258 63.2207 4.3215C63.1945 4.37391 63.1814 4.45253 63.1814 4.55735C63.1814 4.87181 63.391 5.02904 63.8103 5.02904H68.4879C68.8024 5.02904 69.0906 4.97663 69.3527 4.87181C69.6147 4.76699 69.903 4.59665 70.2174 4.36081C70.5057 4.12496 70.8071 4.00704 71.1215 4.00704C71.3836 4.00704 71.6325 4.08566 71.8684 4.24289C72.8642 4.87181 73.3621 5.47453 73.3621 6.05104C73.3621 6.26068 73.3097 6.41792 73.2048 6.52273C73.1262 6.62756 72.9821 6.75858 72.7725 6.91581C72.3532 7.12545 71.9863 7.45302 71.6718 7.89851C70.414 9.65425 69.261 11.0562 68.2128 12.1044C67.9507 12.3403 67.8197 12.563 67.8197 12.7727C67.8197 12.9299 67.8852 13.0609 68.0162 13.1657C68.1734 13.2444 68.3831 13.2837 68.6451 13.2837H75.6812C75.9171 13.2575 76.1267 13.192 76.3101 13.0871C76.5198 12.9561 76.7425 12.7858 76.9784 12.5761C77.3715 12.1831 77.699 11.9865 77.9611 11.9865C78.3804 11.9603 78.8127 12.0651 79.2582 12.301C79.7299 12.5106 80.123 12.7858 80.4375 13.1264C80.7519 13.4409 80.9223 13.703 80.9485 13.9126C80.9747 14.096 80.9485 14.2402 80.8699 14.345C80.7912 14.4236 80.6602 14.5415 80.4768 14.6988C80.2409 14.9084 80.0575 15.1049 79.9265 15.2884C79.8216 15.4456 79.7692 15.7076 79.7692 16.0745L79.8085 24.565C79.8085 25.0105 79.6382 25.3905 79.2975 25.7049C78.9569 26.0194 78.6031 26.1766 78.2362 26.1766C77.7383 26.1766 77.4108 25.9408 77.2535 25.4691C77.1225 25.1022 76.9129 24.9188 76.6246 24.9188L59.6044 24.8795C59.1589 24.8795 58.8051 25.0105 58.543 25.2725C58.3072 25.5084 58.1893 25.8359 58.1893 26.2552V32.0728C58.1893 33.5403 58.4906 34.4706 59.0934 34.8636C59.4864 35.1257 60.6001 35.3222 62.4345 35.4532C64.2689 35.6105 66.3915 35.6891 68.8024 35.6891C71.2657 35.6891 73.5455 35.6105 75.6419 35.4532C77.7383 35.296 79.0486 35.0995 79.5727 34.8636C80.4375 34.4181 80.8699 33.2127 80.8699 31.2473L80.8305 29.5178C80.8305 29.2033 80.883 28.9675 80.9878 28.8102C81.0926 28.6268 81.2236 28.5351 81.3809 28.5351C81.5381 28.5351 81.6691 28.6268 81.7739 28.8102C81.8787 28.9675 81.9312 29.2164 81.9312 29.5571L81.8919 30.6577C81.8919 31.4963 81.9967 32.0335 82.2063 32.2693C82.3897 32.479 82.547 32.7803 82.678 33.1734C82.809 33.5665 82.8745 33.9858 82.8745 34.4312C82.8745 35.4532 82.3766 36.2001 81.3809 36.6718C80.5685 37.0649 79.0224 37.3662 76.7425 37.5759C74.4889 37.7855 71.9863 37.8903 69.2348 37.8903C66.588 37.8903 64.1772 37.7855 62.0021 37.5759C59.8271 37.3924 58.412 37.1435 57.7569 36.829C56.9183 36.3311 56.3549 35.7546 56.0667 35.0995C55.7784 34.4443 55.6343 33.6058 55.6343 32.5838V15.6421C55.6343 15.0918 55.4508 14.8167 55.084 14.8167C54.8481 14.8167 54.6254 14.9215 54.4157 15.1311C53.1579 16.258 52.0573 17.1489 51.1139 17.8041C50.9828 17.9089 50.8387 17.9613 50.6815 17.9613C50.4718 17.9613 50.367 17.8565 50.367 17.6468C50.367 17.4634 50.4587 17.2931 50.6422 17.1358ZM57.9141 11.7507C57.6521 12.0127 57.521 12.2748 57.521 12.5368C57.521 12.6941 57.5997 12.8382 57.7569 12.9692C58.0189 13.1789 58.2417 13.2837 58.4251 13.2837H64.6357C65.1336 13.2837 65.5398 13.1264 65.8543 12.812C66.6929 12.0258 67.4004 11.1611 67.9769 10.2177C68.5534 9.24807 68.9334 8.42261 69.1168 7.74128C69.143 7.63645 69.1561 7.50543 69.1561 7.3482C69.1561 7.00753 69.0382 6.73238 68.8024 6.52273C68.5665 6.28689 68.2652 6.16896 67.8983 6.16896H63.9675C63.522 6.16896 63.1289 6.27379 62.7883 6.48343C62.4738 6.66686 62.1069 7.02063 61.6877 7.54474C60.7181 8.75018 59.4602 10.1522 57.9141 11.7507ZM58.1893 22.4031C58.1893 22.8224 58.3072 23.163 58.543 23.4251C58.8051 23.6609 59.1589 23.7788 59.6044 23.7788H65.4612C66.1163 23.7788 66.4439 23.4513 66.4439 22.7961V15.4063C66.4439 14.7512 66.1163 14.4236 65.4612 14.4236H59.5257C59.1065 14.4236 58.7789 14.5415 58.543 14.7774C58.3072 15.0132 58.1893 15.3539 58.1893 15.7994V22.4031ZM68.9596 22.7961C68.9596 23.4513 69.2872 23.7788 69.9423 23.7788H75.8385C76.2839 23.7788 76.6246 23.6609 76.8605 23.4251C77.0963 23.163 77.2142 22.8224 77.2142 22.4031L77.2535 15.7994C77.2535 15.3539 77.1356 15.0132 76.8998 14.7774C76.6639 14.5415 76.3233 14.4236 75.8778 14.4236H69.9423C69.2872 14.4236 68.9596 14.7512 68.9596 15.4063V22.7961ZM104.969 36.5294C107.864 34.2234 109.889 31.1358 111.042 27.2668C112.22 23.3977 112.886 19.0803 113.04 14.3144C113.066 13.8788 112.963 13.5457 112.733 13.3151C112.502 13.0845 112.182 12.9692 111.772 12.9692C111.259 12.9692 110.234 13.0333 108.697 13.1614C108.441 13.187 108.236 13.1229 108.082 12.9692C107.954 12.7898 107.89 12.5977 107.89 12.3927C107.89 12.1621 107.954 11.9699 108.082 11.8162C108.236 11.6624 108.441 11.5984 108.697 11.624L111.733 11.8162C112.169 11.8418 112.502 11.7393 112.733 11.5087C112.963 11.2525 113.079 10.9066 113.079 10.471V9.7023C113.027 7.14001 113.002 5.47453 113.002 4.70584C113.002 4.06527 113.181 3.59125 113.54 3.28378C113.924 2.95068 114.398 2.78413 114.962 2.78413C115.423 2.78413 115.807 2.87381 116.115 3.05317C116.422 3.23253 116.576 3.41189 116.576 3.59125C116.576 3.79623 116.371 3.91153 115.961 3.93716C115.807 3.96278 115.679 4.05246 115.577 4.2062C115.5 4.35993 115.462 4.52648 115.462 4.70584V8.5877V10.5094C115.462 10.945 115.577 11.2781 115.807 11.5087C116.038 11.7393 116.371 11.8546 116.807 11.8546H117.306C117.537 11.8546 117.742 11.8162 117.921 11.7393C118.101 11.6368 118.318 11.4959 118.575 11.3165C119.01 10.9834 119.356 10.8169 119.612 10.8169C119.894 10.8169 120.253 10.945 120.689 11.2012C121.15 11.4575 121.547 11.7521 121.88 12.0852C122.213 12.3927 122.38 12.6489 122.38 12.8539C122.38 13.0333 122.341 13.1742 122.264 13.2767C122.188 13.3536 122.072 13.456 121.919 13.5842C121.714 13.7379 121.547 13.9044 121.419 14.0838C121.316 14.2632 121.265 14.5322 121.265 14.8909C121.24 18.9906 121.175 22.2062 121.073 24.5379C120.97 26.8696 120.714 29.0475 120.304 31.0717C119.894 33.0959 119.254 34.7102 118.383 35.9145C118.024 36.4269 117.627 36.8241 117.191 37.1059C116.781 37.3878 116.397 37.5287 116.038 37.5287C115.731 37.5287 115.462 37.4262 115.231 37.2212C115 37.0419 114.834 36.76 114.731 36.3757C114.578 35.8888 114.283 35.4789 113.847 35.1458C113.437 34.7871 113.053 34.5052 112.694 34.3002C112.336 34.0952 112.105 33.9671 112.002 33.9159C111.618 33.7109 111.426 33.4547 111.426 33.1472C111.426 32.9935 111.477 32.8653 111.58 32.7628C111.682 32.6347 111.823 32.5707 112.002 32.5707C112.079 32.5707 112.195 32.5963 112.348 32.6475C112.502 32.6988 112.694 32.7885 112.925 32.9166C113.181 33.0447 113.36 33.1344 113.463 33.1856C113.873 33.4162 114.206 33.5956 114.462 33.7237C114.744 33.8262 115.013 33.8774 115.269 33.8774C115.654 33.8774 115.987 33.7237 116.269 33.4162C117.217 32.3144 117.87 30.2006 118.229 27.0746C118.588 23.9486 118.78 19.6824 118.805 14.276C118.805 13.8404 118.69 13.5073 118.459 13.2767C118.229 13.0461 117.896 12.9308 117.46 12.9308H116.768C115.897 12.9308 115.436 13.3792 115.385 14.276C115.257 17.7094 114.911 20.797 114.347 23.5386C113.809 26.2546 112.835 28.8169 111.426 31.2255C110.042 33.634 108.095 35.7351 105.584 37.5287C105.328 37.7081 105.097 37.7977 104.892 37.7977C104.764 37.7977 104.649 37.7593 104.546 37.6824C104.469 37.6056 104.431 37.5031 104.431 37.375C104.431 37.0931 104.61 36.8113 104.969 36.5294ZM97.7818 20.6561C97.5256 20.6817 97.3206 20.6176 97.1668 20.4639C97.0387 20.2845 96.9747 20.0924 96.9747 19.8874C96.9747 19.6568 97.0387 19.4646 97.1668 19.3109C97.3206 19.1571 97.5256 19.0931 97.7818 19.1187L99.2423 19.234C99.806 19.2852 100.139 19.3109 100.242 19.3109C100.652 19.3109 100.959 19.1956 101.164 18.965C101.395 18.7343 101.51 18.4012 101.51 17.9657V8.74144C101.51 8.33147 101.407 8.01119 101.202 7.78058C100.997 7.52436 100.703 7.39624 100.318 7.39624C100.216 7.39624 99.9341 7.42186 99.4729 7.47311C98.3455 7.5756 97.7818 7.62685 97.7818 7.62685C97.5256 7.65247 97.3206 7.58841 97.1668 7.43467C97.0387 7.25531 96.9747 7.06314 96.9747 6.85816C96.9747 6.62756 97.0387 6.43538 97.1668 6.28165C97.3206 6.12791 97.5256 6.06385 97.7818 6.08948L99.8188 6.24321C100.844 6.29446 101.459 6.32008 101.664 6.32008H102.97C103.483 6.32008 103.906 6.21759 104.239 6.01261C104.597 5.782 104.969 5.47453 105.353 5.09019C105.917 4.52648 106.481 4.24463 107.044 4.24463C107.685 4.24463 108.39 4.6546 109.158 5.47453C109.44 5.80763 109.581 6.12791 109.581 6.43538C109.581 6.71724 109.466 6.94784 109.235 7.1272C109.005 7.30656 108.671 7.39624 108.236 7.39624L105.315 7.43467C104.905 7.43467 104.572 7.54998 104.316 7.78058C104.085 8.01119 103.97 8.34429 103.97 8.77987V17.1201C103.97 17.6582 104.047 18.0938 104.2 18.4269C104.354 18.76 104.521 18.8496 104.7 18.6959C104.879 18.5678 105.097 18.3756 105.353 18.1194C105.917 17.5557 106.481 17.2738 107.044 17.2738C107.685 17.2738 108.39 17.6838 109.158 18.5037C109.44 18.8368 109.581 19.1571 109.581 19.4646C109.581 19.7464 109.466 19.9771 109.235 20.1564C109.005 20.3358 108.671 20.4255 108.236 20.4255L105.315 20.4639C104.905 20.4639 104.572 20.5792 104.316 20.8098C104.085 21.0404 103.97 21.3735 103.97 21.8091V28.9963C103.97 29.355 104.047 29.6497 104.2 29.8803C104.354 30.0853 104.559 30.1878 104.815 30.1878C105.071 30.1878 105.328 30.0981 105.584 29.9187C106.353 29.4575 107.237 28.8554 108.236 28.1123C108.415 27.9842 108.569 27.9201 108.697 27.9201C108.825 27.9201 108.928 27.9714 109.005 28.0739C109.107 28.1764 109.158 28.2917 109.158 28.4198C109.158 28.6248 109.056 28.8297 108.851 29.0347C105.904 31.6995 103.073 33.7493 100.357 35.1842C99.9982 35.3892 99.7548 35.5557 99.6266 35.6839C99.5241 35.812 99.5241 35.9657 99.6266 36.1451C99.6779 36.2219 99.7035 36.3244 99.7035 36.4525C99.7035 36.7088 99.5754 36.8369 99.3192 36.8369C99.2679 36.8369 99.1398 36.8113 98.9348 36.76C98.3967 36.555 97.9868 36.2732 97.7049 35.9145C97.4231 35.5814 97.2821 35.2226 97.2821 34.8383C97.2821 34.454 97.4359 34.0952 97.7434 33.7621C98.0508 33.4034 98.4736 33.1344 99.0117 32.955C99.5498 32.8013 100.037 32.6347 100.472 32.4554C101.164 32.1735 101.51 31.6611 101.51 30.918V21.7707C101.51 20.8739 101.228 20.4255 100.664 20.4255C100.536 20.4255 100.139 20.4511 99.4729 20.5023C98.5505 20.6048 97.9868 20.6561 97.7818 20.6561ZM123.456 10.8938C123.456 10.6119 123.648 10.471 124.032 10.471C124.494 10.471 124.865 10.535 125.147 10.6632C125.454 10.7913 125.762 10.9578 126.069 11.1628C126.377 11.3678 126.595 11.4703 126.723 11.4703H129.067C129.298 11.4703 129.516 11.419 129.721 11.3165C129.951 11.1884 130.156 11.0475 130.336 10.8938C130.489 10.7656 130.656 10.6503 130.835 10.5479C131.015 10.4197 131.194 10.3557 131.373 10.3557C131.783 10.3557 132.193 10.4838 132.603 10.74C133.039 10.9962 133.398 11.2909 133.679 11.624C133.987 11.9571 134.141 12.2261 134.141 12.4311C134.141 12.6105 134.102 12.7514 134.025 12.8539C133.948 12.9308 133.833 13.0333 133.679 13.1614C133.474 13.3151 133.308 13.4817 133.18 13.661C133.077 13.8404 133.026 14.1094 133.026 14.4681V35.1842C133.026 35.671 132.847 36.0554 132.488 36.3372C132.129 36.6191 131.732 36.76 131.296 36.76C130.912 36.76 130.669 36.5935 130.566 36.2604C130.489 35.9529 130.451 35.3379 130.451 34.4155C130.451 33.9543 130.336 33.5956 130.105 33.3394C129.874 33.0575 129.541 32.9166 129.106 32.9166H127.261C126.825 32.9166 126.492 33.0191 126.262 33.2241C126.031 33.4034 125.916 33.6725 125.916 34.0312C125.916 35.0048 125.749 35.6967 125.416 36.1066C125.083 36.5422 124.686 36.76 124.225 36.76C123.712 36.76 123.456 36.4653 123.456 35.876V10.8938ZM125.916 30.4952C125.916 30.9052 126.031 31.2383 126.262 31.4945C126.518 31.7251 126.851 31.8404 127.261 31.8404L129.221 31.8789C129.657 31.8789 129.99 31.7636 130.22 31.533C130.451 31.2767 130.566 30.9436 130.566 30.5337V13.8532C130.566 13.4176 130.451 13.0845 130.22 12.8539C129.99 12.6233 129.657 12.508 129.221 12.508H127.261C126.851 12.508 126.518 12.6233 126.262 12.8539C126.031 13.0845 125.916 13.4176 125.916 13.8532V30.4952ZM173.313 36.829C173.313 37.3007 173.13 37.6807 172.763 37.9689C172.422 38.2834 172.055 38.4406 171.662 38.4406C171.4 38.4406 171.177 38.3489 170.994 38.1655C170.837 38.0083 170.771 37.7724 170.797 37.4579V3.84981C170.797 3.19468 170.981 2.70988 171.348 2.39542C171.741 2.05475 172.225 1.88442 172.802 1.88442C173.274 1.88442 173.667 1.97614 173.981 2.15957C174.296 2.34301 174.453 2.52645 174.453 2.70988C174.453 2.91952 174.243 3.03745 173.824 3.06365C173.667 3.08986 173.536 3.18158 173.431 3.33881C173.352 3.49604 173.313 3.66637 173.313 3.84981V8.68466C173.313 9.10395 173.431 9.44461 173.667 9.70666C173.929 9.94251 174.269 10.0604 174.689 10.0604H175.554C176.078 10.0604 176.51 9.95561 176.851 9.74597C177.218 9.51012 177.598 9.19566 177.991 8.80259C178.567 8.22607 179.157 7.93781 179.759 7.93781C180.1 7.93781 180.441 8.04264 180.781 8.25228C181.175 8.51433 181.541 8.82879 181.882 9.19566C182.17 9.53633 182.314 9.8639 182.314 10.1784C182.314 10.4666 182.197 10.7025 181.961 10.8859C181.725 11.0693 181.384 11.1611 180.939 11.1611L174.689 11.2004C174.243 11.2004 173.903 11.3183 173.667 11.5541C173.431 11.79 173.313 12.1175 173.313 12.5368V16.9786C173.313 17.3979 173.431 17.7385 173.667 18.0006C173.929 18.2364 174.269 18.3544 174.689 18.3544C175.265 18.3544 175.724 18.2496 176.065 18.0399C176.431 17.8041 176.811 17.4896 177.204 17.0965C177.781 16.52 178.371 16.2318 178.973 16.2318C179.314 16.2318 179.655 16.3366 179.995 16.5462C180.388 16.8083 180.755 17.1227 181.096 17.4896C181.384 17.8303 181.528 18.1578 181.528 18.4723C181.528 18.7606 181.41 18.9964 181.175 19.1798C180.939 19.3633 180.598 19.455 180.153 19.455L174.689 19.4943C173.772 19.4419 173.313 19.8874 173.313 20.8308V24.9581C173.313 25.3774 173.431 25.718 173.667 25.9801C173.929 26.2159 174.269 26.3338 174.689 26.3338H175.554C176.078 26.3338 176.51 26.229 176.851 26.0194C177.218 25.7835 177.598 25.4691 177.991 25.076C178.567 24.4995 179.157 24.2112 179.759 24.2112C180.1 24.2112 180.441 24.316 180.781 24.5257C181.175 24.7877 181.541 25.1022 181.882 25.4691C182.17 25.8097 182.314 26.1373 182.314 26.4518C182.314 26.74 182.197 26.9759 181.961 27.1593C181.725 27.3427 181.384 27.4345 180.939 27.4345L174.689 27.4738C174.243 27.4738 173.903 27.5917 173.667 27.8275C173.431 28.0634 173.313 28.391 173.313 28.8102V36.829ZM158.533 32.1514C158.14 32.0204 157.813 31.7845 157.551 31.4439C157.289 31.077 157.157 30.697 157.157 30.3039C157.157 29.544 157.655 29.0068 158.651 28.6923C160.695 28.0634 162.346 27.4869 163.604 26.9628C163.945 26.8055 164.207 26.609 164.39 26.3732C164.574 26.1373 164.691 25.8359 164.744 25.4691C164.875 24.3947 165.019 22.8748 165.176 20.9094C165.229 19.966 164.77 19.4943 163.8 19.4943C162.805 19.4943 161.901 19.5205 161.088 19.5729C160.302 19.6253 159.778 19.6646 159.516 19.6908C159.254 19.717 159.044 19.6515 158.887 19.4943C158.756 19.3109 158.69 19.1143 158.69 18.9047C158.69 18.6688 158.756 18.4723 158.887 18.3151C159.044 18.1578 159.254 18.0923 159.516 18.1185C161.534 18.2496 163.001 18.3282 163.918 18.3544C164.809 18.3544 165.281 17.8958 165.333 16.9786C165.36 16.0352 165.373 14.5677 165.373 12.5761C165.373 11.6852 164.914 11.2135 163.997 11.1611C162.923 11.1611 161.665 11.2135 160.223 11.3183L159.123 11.3969C158.861 11.4231 158.651 11.3576 158.494 11.2004C158.363 11.0169 158.297 10.8204 158.297 10.6107C158.297 10.3749 158.363 10.1784 158.494 10.0211C158.651 9.86389 158.861 9.79838 159.123 9.82459L159.988 9.8639C162.136 9.99492 163.473 10.0604 163.997 10.0604C164.443 10.0604 164.783 9.94251 165.019 9.70666C165.255 9.44461 165.373 9.10395 165.373 8.68466V4.16427C165.373 3.53535 165.569 3.06365 165.962 2.74919C166.382 2.40852 166.88 2.23819 167.456 2.23819C168.137 2.23819 168.662 2.46093 169.028 2.90642C169.107 2.98504 169.146 3.07676 169.146 3.18158C169.146 3.41742 169.042 3.53535 168.832 3.53535C168.544 3.53535 168.321 3.58776 168.164 3.69258C168.033 3.77119 167.967 3.99394 167.967 4.36081L168.006 12.4975C168.006 16.9524 167.862 20.477 167.574 23.0713L167.535 23.543C167.535 23.9885 167.6 24.3029 167.731 24.4864C167.862 24.6698 168.046 24.696 168.282 24.565L169.225 23.9754C169.356 23.8706 169.5 23.8182 169.657 23.8182C169.867 23.8182 169.972 23.9361 169.972 24.1719C169.972 24.4078 169.841 24.6436 169.579 24.8795L167.731 26.2945C167.286 26.609 166.958 27.12 166.749 27.8275C166.146 30.1074 165.255 32.1121 164.076 33.8416C162.923 35.5712 161.377 37.0387 159.437 38.2441C159.254 38.3751 159.057 38.4406 158.848 38.4406C158.743 38.4406 158.651 38.4013 158.573 38.3227C158.494 38.2703 158.455 38.1917 158.455 38.0869C158.455 37.851 158.586 37.6414 158.848 37.4579C161.101 35.676 162.726 33.1865 163.722 29.9895C163.748 29.9371 163.761 29.8584 163.761 29.7536C163.761 29.4916 163.656 29.3605 163.447 29.3605C163.342 29.3605 163.224 29.3999 163.093 29.4785C162.307 29.924 161.285 30.4219 160.027 30.9722C159.896 31.0246 159.712 31.1032 159.477 31.208C159.267 31.2866 159.136 31.3652 159.084 31.4439C159.031 31.4963 159.031 31.5749 159.084 31.6797C159.11 31.7321 159.123 31.8107 159.123 31.9155C159.123 32.0466 159.07 32.1383 158.966 32.1907C158.861 32.2169 158.717 32.2038 158.533 32.1514ZM144.893 20.1232C144.631 20.1494 144.422 20.0839 144.265 19.9267C144.134 19.7432 144.068 19.5467 144.068 19.3371C144.068 19.1012 144.134 18.9047 144.265 18.7474C144.422 18.5902 144.631 18.5247 144.893 18.5509L146.584 18.6688C147.108 18.7212 147.435 18.7474 147.566 18.7474C148.431 18.7474 148.864 18.2889 148.864 17.3717V8.56674C148.864 8.14746 148.759 7.81989 148.549 7.58404C148.339 7.3482 148.038 7.23027 147.645 7.23027C147.54 7.23027 147.2 7.25648 146.623 7.30889L144.893 7.42681C144.631 7.45302 144.422 7.38751 144.265 7.23027C144.134 7.04684 144.068 6.8503 144.068 6.64066C144.068 6.40481 144.134 6.20827 144.265 6.05104C144.422 5.89381 144.631 5.8283 144.893 5.8545L146.977 6.01174C148.025 6.06415 148.654 6.09035 148.864 6.09035H150.475C150.999 6.09035 151.432 5.98553 151.772 5.77589C152.139 5.54004 152.519 5.22558 152.912 4.8325C153.489 4.25599 154.065 3.96773 154.642 3.96773C155.297 3.96773 156.018 4.38701 156.804 5.22558C157.092 5.56625 157.236 5.89381 157.236 6.20827C157.236 6.49653 157.118 6.73238 156.882 6.91581C156.646 7.09925 156.306 7.19097 155.86 7.19097L152.755 7.23027C152.336 7.23027 151.995 7.3482 151.733 7.58404C151.497 7.81989 151.379 8.16056 151.379 8.60605V16.5855C151.379 17.162 151.458 17.6075 151.615 17.922C151.799 18.2364 151.995 18.3151 152.205 18.1578C152.388 18.0268 152.624 17.8172 152.912 17.5289C153.489 16.9524 154.065 16.6641 154.642 16.6641C155.297 16.6641 156.018 17.0834 156.804 17.922C157.092 18.2627 157.236 18.5902 157.236 18.9047C157.236 19.1929 157.118 19.4288 156.882 19.6122C156.646 19.7957 156.306 19.8874 155.86 19.8874L152.755 19.9267C152.336 19.9267 151.995 20.0446 151.733 20.2805C151.497 20.5163 151.379 20.857 151.379 21.3025V29.9895C151.379 30.3563 151.458 30.6577 151.615 30.8935C151.772 31.1032 151.982 31.208 152.244 31.208C152.454 31.208 152.716 31.1163 153.03 30.9329C153.685 30.566 154.629 29.9371 155.86 29.0461C156.044 28.9151 156.201 28.8495 156.332 28.8495C156.463 28.8495 156.568 28.902 156.646 29.0068C156.725 29.1116 156.764 29.2295 156.764 29.3605C156.764 29.5964 156.673 29.806 156.489 29.9895C153.423 32.7148 150.436 34.8112 147.527 36.2787C147.134 36.4621 146.885 36.6194 146.78 36.7504C146.675 36.9076 146.675 37.078 146.78 37.2614C146.833 37.34 146.859 37.4448 146.859 37.5759C146.859 37.8379 146.728 37.9689 146.466 37.9689C146.413 37.9689 146.282 37.9427 146.073 37.8903C145.522 37.6807 145.103 37.3924 144.815 37.0256C144.527 36.6849 144.382 36.318 144.382 35.9249C144.382 35.5057 144.527 35.1257 144.815 34.785C145.129 34.4443 145.575 34.1823 146.151 33.9989C146.387 33.9202 146.924 33.7368 147.763 33.4486C148.497 33.2127 148.864 32.6886 148.864 31.8762V21.2631C148.864 20.346 148.575 19.8874 147.999 19.8874C147.815 19.8874 147.383 19.9136 146.702 19.966C145.601 20.0708 144.998 20.1232 144.893 20.1232Z" fill="white"/>
</g>
</g>
<g filter="url(#filter1_d_68_85)">
<path d="M8.26405 48.6198H18.3041V50.5598H17.8841C17.8841 49.8398 17.7507 49.4198 17.4841 49.2998H14.2041V59.4998C14.3241 59.7665 14.7441 59.8998 15.4641 59.8998V60.3198H11.1041V59.8998C11.8241 59.8998 12.2441 59.7665 12.3641 59.4998V49.2998H9.08405C8.81739 49.4198 8.68405 49.8398 8.68405 50.5598H8.26405V48.6198ZM26.2962 55.3598C26.2962 56.8798 26.5829 58.0198 27.1562 58.7798C27.7429 59.5398 28.4896 59.9198 29.3962 59.9198C30.1162 59.9198 30.6962 59.5998 31.1362 58.9598C31.5762 58.3065 31.7962 57.4732 31.7962 56.4598C31.7962 53.4465 30.7496 51.9398 28.6562 51.9398C27.9496 51.9398 27.3762 52.2798 26.9362 52.9598C26.5096 53.6265 26.2962 54.4265 26.2962 55.3598ZM29.1362 60.5198C27.6429 60.5198 26.4762 60.0865 25.6362 59.2198C24.7962 58.3398 24.3762 57.1865 24.3762 55.7598C24.3762 54.4665 24.7562 53.4065 25.5162 52.5798C26.2762 51.7398 27.4362 51.3198 28.9962 51.3198C30.5696 51.3198 31.7496 51.7398 32.5362 52.5798C33.3229 53.4065 33.7162 54.5465 33.7162 55.9998C33.7162 57.2932 33.3362 58.3732 32.5762 59.2398C31.8296 60.0932 30.6829 60.5198 29.1362 60.5198ZM41.3147 60.3198V59.8998C42.0347 59.8998 42.4547 59.7665 42.5747 59.4998V52.7398C41.748 52.6732 41.328 52.6398 41.3147 52.6398V52.1798C41.568 52.1798 42.0613 52.0398 42.7947 51.7598C43.5413 51.4665 44.068 51.3198 44.3747 51.3198V59.4998C44.4947 59.7665 44.9147 59.8998 45.6347 59.8998V60.3198H41.3147ZM43.4147 50.0398C43.1213 50.0398 42.8613 49.9332 42.6347 49.7198C42.4213 49.4932 42.3147 49.2065 42.3147 48.8598C42.3147 48.5532 42.408 48.2865 42.5947 48.0598C42.7947 47.8332 43.048 47.7198 43.3547 47.7198C43.648 47.7198 43.908 47.8332 44.1347 48.0598C44.3613 48.2865 44.4747 48.5732 44.4747 48.9198C44.4747 49.2265 44.3747 49.4932 44.1747 49.7198C43.9747 49.9332 43.7213 50.0398 43.4147 50.0398ZM52.8662 60.3198V59.8998C53.5862 59.8998 54.0062 59.7665 54.1262 59.4998V52.7398C53.2996 52.6732 52.8796 52.6398 52.8662 52.6398V52.1798C53.1196 52.1798 53.6129 52.0398 54.3462 51.7598C55.0929 51.4665 55.6196 51.3198 55.9262 51.3198V52.1998C56.5929 51.6132 57.2529 51.3198 57.9062 51.3198C58.5062 51.3198 59.0062 51.4332 59.4062 51.6598C59.8196 51.8865 60.0262 52.1398 60.0262 52.4198C60.0262 52.8998 59.7596 53.1398 59.2262 53.1398C58.9462 53.1398 58.6929 52.9532 58.4662 52.5798C58.2396 52.1932 57.9796 51.9998 57.6862 51.9998C57.1662 51.9998 56.5796 52.2865 55.9262 52.8598V59.4998C56.0462 59.7665 56.4662 59.8998 57.1862 59.8998V60.3198H52.8662ZM68.9392 55.3598C68.9392 56.8798 69.2259 58.0198 69.7992 58.7798C70.3859 59.5398 71.1325 59.9198 72.0392 59.9198C72.7592 59.9198 73.3392 59.5998 73.7792 58.9598C74.2192 58.3065 74.4392 57.4732 74.4392 56.4598C74.4392 53.4465 73.3925 51.9398 71.2992 51.9398C70.5925 51.9398 70.0192 52.2798 69.5792 52.9598C69.1525 53.6265 68.9392 54.4265 68.9392 55.3598ZM71.7792 60.5198C70.2859 60.5198 69.1192 60.0865 68.2792 59.2198C67.4392 58.3398 67.0192 57.1865 67.0192 55.7598C67.0192 54.4665 67.3992 53.4065 68.1592 52.5798C68.9192 51.7398 70.0792 51.3198 71.6392 51.3198C73.2125 51.3198 74.3925 51.7398 75.1792 52.5798C75.9659 53.4065 76.3592 54.5465 76.3592 55.9998C76.3592 57.2932 75.9792 58.3732 75.2192 59.2398C74.4725 60.0932 73.3259 60.5198 71.7792 60.5198ZM101.262 49.0998C100.116 49.0998 99.1623 49.5732 98.4023 50.5198C97.6423 51.4665 97.2623 52.6932 97.2623 54.1998C97.2623 55.9598 97.6623 57.3398 98.4623 58.3398C99.2623 59.3398 100.222 59.8398 101.342 59.8398C102.009 59.8398 102.669 59.6132 103.322 59.1598C103.976 58.6932 104.396 58.1998 104.582 57.6798L105.062 57.9198C104.756 58.6532 104.269 59.2732 103.602 59.7798C102.949 60.2732 102.062 60.5198 100.942 60.5198C99.169 60.5198 97.7623 59.9465 96.7223 58.7998C95.6957 57.6398 95.1823 56.2532 95.1823 54.6398C95.1823 52.7732 95.7757 51.2732 96.9623 50.1398C98.1623 48.9932 99.589 48.4198 101.242 48.4198C101.629 48.4198 102.076 48.5198 102.582 48.7198C103.089 48.9198 103.382 49.0198 103.462 49.0198C103.622 49.0198 103.702 48.8865 103.702 48.6198H104.162L104.362 51.1598H103.922C103.829 50.5598 103.562 50.0665 103.122 49.6798C102.696 49.2932 102.076 49.0998 101.262 49.0998ZM114.356 55.3598C114.356 56.8798 114.642 58.0198 115.216 58.7798C115.802 59.5398 116.549 59.9198 117.456 59.9198C118.176 59.9198 118.756 59.5998 119.196 58.9598C119.636 58.3065 119.856 57.4732 119.856 56.4598C119.856 53.4465 118.809 51.9398 116.716 51.9398C116.009 51.9398 115.436 52.2798 114.996 52.9598C114.569 53.6265 114.356 54.4265 114.356 55.3598ZM117.196 60.5198C115.702 60.5198 114.536 60.0865 113.696 59.2198C112.856 58.3398 112.436 57.1865 112.436 55.7598C112.436 54.4665 112.816 53.4065 113.576 52.5798C114.336 51.7398 115.496 51.3198 117.056 51.3198C118.629 51.3198 119.809 51.7398 120.596 52.5798C121.382 53.4065 121.776 54.5465 121.776 55.9998C121.776 57.2932 121.396 58.3732 120.636 59.2398C119.889 60.0932 118.742 60.5198 117.196 60.5198ZM135.316 48.8998C135.316 49.1265 135.236 49.3065 135.076 49.4398C134.929 49.5732 134.736 49.6398 134.496 49.6398C134.269 49.6398 134.096 49.5732 133.976 49.4398C133.869 49.2932 133.803 49.1398 133.776 48.9798C133.763 48.8198 133.703 48.6732 133.596 48.5398C133.503 48.3932 133.349 48.3198 133.136 48.3198C132.883 48.3198 132.669 48.5132 132.496 48.8998C132.336 49.2865 132.256 49.8398 132.256 50.5598V51.5198H133.496V52.1198H132.256V59.4998C132.376 59.7665 132.796 59.8998 133.516 59.8998V60.3198H129.196V59.8998C129.916 59.8998 130.336 59.7665 130.456 59.4998V52.1198H129.456V51.5198H130.456V50.8398C130.456 49.7465 130.683 48.9532 131.136 48.4598C131.589 47.9665 132.189 47.7198 132.936 47.7198C133.723 47.7198 134.316 47.8398 134.716 48.0798C135.116 48.3198 135.316 48.5932 135.316 48.8998ZM146.946 48.8998C146.946 49.1265 146.866 49.3065 146.706 49.4398C146.559 49.5732 146.366 49.6398 146.126 49.6398C145.899 49.6398 145.726 49.5732 145.606 49.4398C145.499 49.2932 145.432 49.1398 145.406 48.9798C145.392 48.8198 145.332 48.6732 145.226 48.5398C145.132 48.3932 144.979 48.3198 144.766 48.3198C144.512 48.3198 144.299 48.5132 144.126 48.8998C143.966 49.2865 143.886 49.8398 143.886 50.5598V51.5198H145.126V52.1198H143.886V59.4998C144.006 59.7665 144.426 59.8998 145.146 59.8998V60.3198H140.826V59.8998C141.546 59.8998 141.966 59.7665 142.086 59.4998V52.1198H141.086V51.5198H142.086V50.8398C142.086 49.7465 142.312 48.9532 142.766 48.4598C143.219 47.9665 143.819 47.7198 144.566 47.7198C145.352 47.7198 145.946 47.8398 146.346 48.0798C146.746 48.3198 146.946 48.5932 146.946 48.8998ZM154.537 55.4998C154.551 56.6198 154.871 57.6132 155.497 58.4798C156.137 59.3332 156.851 59.7598 157.637 59.7598C158.797 59.7598 159.731 59.3198 160.437 58.4398L160.917 58.6798C160.531 59.3198 160.024 59.7865 159.397 60.0798C158.784 60.3732 157.971 60.5198 156.957 60.5198C156.451 60.5198 155.964 60.4465 155.497 60.2998C155.031 60.1398 154.571 59.8865 154.117 59.5398C153.664 59.1798 153.304 58.6532 153.037 57.9598C152.771 57.2665 152.637 56.4398 152.637 55.4798C152.637 54.3065 152.997 53.3198 153.717 52.5198C154.451 51.7198 155.464 51.3198 156.757 51.3198C158.171 51.3198 159.224 51.7198 159.917 52.5198C160.611 53.3065 160.957 54.2998 160.957 55.4998H154.537ZM154.557 54.8798H158.997C158.917 53.9198 158.711 53.1865 158.377 52.6798C158.057 52.1732 157.491 51.9198 156.677 51.9198C156.211 51.9198 155.757 52.1932 155.317 52.7398C154.891 53.2865 154.637 53.9998 154.557 54.8798ZM170.6 55.4998C170.614 56.6198 170.934 57.6132 171.56 58.4798C172.2 59.3332 172.914 59.7598 173.7 59.7598C174.86 59.7598 175.794 59.3198 176.5 58.4398L176.98 58.6798C176.594 59.3198 176.087 59.7865 175.46 60.0798C174.847 60.3732 174.034 60.5198 173.02 60.5198C172.514 60.5198 172.027 60.4465 171.56 60.2998C171.094 60.1398 170.634 59.8865 170.18 59.5398C169.727 59.1798 169.367 58.6532 169.1 57.9598C168.834 57.2665 168.7 56.4398 168.7 55.4798C168.7 54.3065 169.06 53.3198 169.78 52.5198C170.514 51.7198 171.527 51.3198 172.82 51.3198C174.234 51.3198 175.287 51.7198 175.98 52.5198C176.674 53.3065 177.02 54.2998 177.02 55.4998H170.6ZM170.62 54.8798H175.06C174.98 53.9198 174.774 53.1865 174.44 52.6798C174.12 52.1732 173.554 51.9198 172.74 51.9198C172.274 51.9198 171.82 52.1932 171.38 52.7398C170.954 53.2865 170.7 53.9998 170.62 54.8798Z" fill="white"/>
</g>
<defs>
<filter id="filter0_d_68_85" x="1.29358" y="0.687866" width="184.021" height="40.7528" filterUnits="userSpaceOnUse" color-interpolation-filters="sRGB">
<feFlood flood-opacity="0" result="BackgroundImageFix"/>
<feColorMatrix in="SourceAlpha" type="matrix" values="0 0 0 0 0 0 0 0 0 0 0 0 0 0 0 0 0 0 127 0" result="hardAlpha"/>
<feOffset dx="1" dy="1"/>
<feGaussianBlur stdDeviation="1"/>
<feComposite in2="hardAlpha" operator="out"/>
<feColorMatrix type="matrix" values="0 0 0 0 0 0 0 0 0 0 0 0 0 0 0 0 0 0 0.4 0"/>
<feBlend mode="normal" in2="BackgroundImageFix" result="effect1_dropShadow_68_85"/>
<feBlend mode="normal" in="SourceGraphic" in2="effect1_dropShadow_68_85" result="shape"/>
</filter>
<filter id="filter1_d_68_85" x="7.26404" y="46.7198" width="172.756" height="16.8" filterUnits="userSpaceOnUse" color-interpolation-filters="sRGB">
<feFlood flood-opacity="0" result="BackgroundImageFix"/>
<feColorMatrix in="SourceAlpha" type="matrix" values="0 0 0 0 0 0 0 0 0 0 0 0 0 0 0 0 0 0 127 0" result="hardAlpha"/>
<feOffset dx="1" dy="1"/>
<feGaussianBlur stdDeviation="1"/>
<feComposite in2="hardAlpha" operator="out"/>
<feColorMatrix type="matrix" values="0 0 0 0 0 0 0 0 0 0 0 0 0 0 0 0 0 0 0.4 0"/>
<feBlend mode="normal" in2="BackgroundImageFix" result="effect1_dropShadow_68_85"/>
<feBlend mode="normal" in="SourceGraphic" in2="effect1_dropShadow_68_85" result="shape"/>
</filter>
</defs>
</svg>
