<svg width="204" height="203" viewBox="0 0 204 203" fill="none" xmlns="http://www.w3.org/2000/svg">
<g opacity="0.7" clip-path="url(#clip0_53_558)" filter="url(#filter0_f_53_558)">
<path d="M201.108 89.3124C200.768 90.8324 201.188 92.4824 200.428 93.8624C197.688 95.0524 191.958 93.1424 192.058 97.4724C191.428 103.562 191.798 111.902 186.908 116.122C182.508 119.012 184.518 112.422 175.578 115.842C171.648 117.542 167.798 115.752 163.908 115.842C162.128 115.562 161.508 113.242 160.258 112.112C157.578 106.882 153.218 112.652 150.118 108.802C148.778 107.052 147.198 105.682 145.198 104.692C140.168 102.692 144.978 96.6824 141.018 93.9324C137.458 91.0124 138.388 99.3024 133.138 97.3024C129.638 96.5024 128.118 100.882 124.488 100.422C121.808 100.652 119.038 100.522 116.588 102.082C115.318 102.892 113.998 102.322 112.898 101.522C110.028 99.4224 106.358 100.252 103.268 98.8524C99.5676 98.6724 100.188 105.422 93.7775 103.422C92.3276 103.082 90.6376 103.142 89.3176 103.462C84.5476 104.602 80.4775 101.362 75.8275 101.692C72.7976 102.292 71.0476 97.7624 68.2575 97.9124C67.1975 98.3124 67.5675 99.3424 67.6075 100.132C67.7175 102.332 67.4476 104.432 66.4776 106.442C65.7775 107.902 66.0175 109.322 66.5975 110.802C69.9275 116.532 55.4875 110.582 59.5275 117.752C61.3175 122.132 69.0975 123.932 68.6175 128.882C67.6576 131.312 66.2375 134.072 62.7775 134.292C60.2475 134.452 59.9075 136.432 60.4275 138.212C62.5875 145.662 56.7076 149.102 52.8775 153.482C50.0175 156.362 45.7375 152.502 42.3275 154.472C33.4875 156.252 37.2775 145.892 34.0175 145.632C23.5475 142.792 23.4075 150.562 20.1475 147.752C16.9075 143.452 15.3675 138.792 14.9875 133.672C16.5775 130.592 17.6775 130.042 20.3275 131.412C23.0175 132.812 25.8775 132.092 28.6275 132.512C29.1975 132.602 29.7875 132.262 30.0875 131.782C31.5975 129.382 34.4875 129.012 36.5075 127.352C38.8475 125.952 42.8075 129.392 45.3475 130.752C45.1775 126.292 48.4075 124.032 48.2375 120.032C48.0575 117.962 48.3375 116.152 49.8875 114.602C52.3975 113.082 43.2075 106.642 43.1075 97.0224C42.8075 95.2424 43.2875 93.4624 44.6775 92.4024C53.8575 85.7124 40.7575 75.5524 46.1875 68.5424C47.8075 67.5224 48.9675 68.6824 50.2475 69.4824C53.1875 70.8124 53.4375 73.8624 54.8475 76.2624C57.1875 78.1524 57.7875 80.4724 56.6675 83.3224C58.2476 80.4524 59.3075 80.2124 61.5375 82.3824C64.3575 83.9324 67.3675 82.2424 69.2676 86.1624C70.8276 91.5324 74.8675 93.7624 79.5676 95.3224C81.7675 96.0524 87.9676 99.6224 86.5876 94.5424C84.3476 91.9824 87.3276 89.3824 90.0076 91.0424C90.6676 91.3224 91.3775 91.9224 92.0376 91.1224C92.5275 90.5124 92.1676 89.8524 91.8676 89.2724C89.8576 86.2224 92.1875 83.9724 92.9175 81.0824C93.0475 79.5024 93.9976 78.7424 95.4875 78.6024C111.808 76.1024 96.8976 65.1324 101.188 54.4324C101.868 48.5724 102.038 47.1024 108.098 47.0224C109.978 46.8824 111.508 47.3024 112.148 49.2524C112.758 51.1224 114.028 51.4124 115.698 50.8924C119.378 49.8724 119.968 54.9124 124.488 54.7724C127.508 55.4824 130.928 54.6724 133.478 57.3124C134.178 58.0324 135.468 57.5124 136.468 57.2124C143.798 56.0524 137.728 63.6124 136.118 66.3624C138.698 66.5724 139.598 63.9024 142.008 63.6124C149.238 62.1724 140.378 70.3924 147.058 70.0324C150.008 70.6824 153.398 72.4124 154.978 74.7724C155.558 84.7524 141.288 79.6024 143.538 87.8924C144.688 91.0724 146.928 93.8524 146.328 97.4724C146.008 100.042 148.048 102.932 150.498 103.802C150.678 103.862 150.908 104.012 151.028 103.912C153.258 102.142 156.878 102.922 158.408 99.8624C159.268 98.1524 160.568 97.1024 162.658 97.1824C168.808 97.3424 164.728 101.952 167.018 104.272C168.048 104.792 171.248 103.312 170.858 102.012C170.018 98.4524 170.708 94.7324 169.508 91.1824C168.148 88.7024 171.648 77.3124 175.038 80.6524C177.888 82.2824 180.628 87.0724 184.148 85.3824C189.958 82.8224 199.318 80.8824 201.078 89.2824L201.108 89.3124Z" fill="#BBDDB9"/>
<path d="M130.418 196.112C127.608 196.452 125.348 194.422 122.518 194.332C120.808 194.212 119.138 194.802 117.468 194.632C111.128 193.852 104.078 196.532 101.028 188.562C96.7977 185.722 97.6277 180.912 96.5577 176.872C95.1677 168.542 111.288 177.852 110.168 170.552C106.428 164.612 109.458 158.962 113.458 154.012C119.588 147.712 129.738 152.962 137.368 149.292C142.288 147.782 141.878 141.092 147.878 138.062C152.018 136.082 156.178 141.472 160.598 139.382C165.138 136.762 169.558 142.242 173.878 139.322C178.588 135.982 182.798 143.722 187.168 139.092C187.788 138.632 189.098 137.782 189.838 138.742C190.018 141.552 188.298 143.472 186.648 144.892C181.958 148.922 178.578 154.012 174.738 158.722C172.738 161.172 170.518 163.442 169.338 166.532C163.878 171.932 156.698 176.302 151.068 181.872C147.568 183.332 149.248 190.112 145.058 190.072C138.658 188.622 136.128 194.742 130.418 196.122V196.112Z" fill="#A5DBDC"/>
<path d="M46.4177 20.3124C47.4177 19.5024 48.3477 18.9924 49.6677 18.8624C51.9577 17.4424 53.8577 15.5624 56.6177 15.0724C58.9877 15.3424 61.0477 15.0724 62.5877 13.4524C69.9277 6.62235 82.5477 4.76235 91.4977 8.60235C92.9877 10.3824 94.9177 10.5524 96.8977 9.89235C104.798 7.74235 127.008 5.80236 130.168 15.2024C130.738 17.3224 132.258 18.1124 134.538 16.9424C148.668 7.87236 149.308 29.9024 158.588 19.6024C160.558 17.0824 162.908 20.1124 165.058 20.1424C166.298 20.2024 167.418 20.3324 168.428 21.1024C174.318 26.8024 181.548 30.4324 185.238 38.1124C187.658 41.9024 191.918 45.4724 190.858 50.5824C183.108 54.3024 184.178 43.5424 177.228 44.2824C171.568 44.5624 173.178 37.6024 167.468 34.8224C165.668 34.1224 161.038 38.0324 159.748 39.6224C158.458 42.7924 153.388 41.2824 153.408 38.2224C153.588 32.0524 148.748 31.4724 144.638 29.7124C137.748 26.0024 133.738 31.9724 128.048 31.5024C126.218 29.7924 122.768 33.3024 122.268 30.2124C120.858 27.2124 121.408 20.4424 116.688 21.4624C111.738 21.9824 109.918 26.2424 106.658 29.0224C105.368 29.5924 104.518 30.4824 104.138 31.8624C102.158 35.6924 95.7577 35.8424 91.9477 34.4724C88.8477 33.0724 87.8877 33.4624 86.7277 36.7024C85.3577 39.5724 78.5777 44.8024 75.7577 41.0724C76.3577 36.6124 81.8777 40.3724 83.7177 34.1324C85.9577 29.7924 83.8277 25.8524 83.9877 21.7824C84.0877 19.4024 82.0077 17.4024 79.7477 16.6224C74.0177 14.2424 70.4577 21.6124 65.1077 22.5924C62.9377 23.6724 60.2377 21.9024 57.7477 21.5224C54.2377 20.5424 48.3277 24.0524 50.7277 27.7624C55.1977 32.3424 51.3477 37.8824 52.6477 42.7824C54.0477 44.4724 53.7977 46.2524 52.9377 48.2624C48.5677 50.3324 45.7377 44.8124 41.6977 46.9724C39.6477 47.9424 37.4277 48.2924 34.9377 48.4224C23.3677 45.5224 35.7277 27.4124 40.8877 22.8724C42.6377 21.9524 44.5777 21.4924 46.3977 20.3124H46.4177Z" fill="#D8E7A6"/>
<path d="M201.038 88.4424C197.508 86.5624 196.758 82.2224 191.598 84.0224C187.718 83.8124 182.088 89.1324 179.758 85.4424C179.118 84.5824 178.598 83.7724 177.378 83.7424C175.968 83.4924 175.618 81.6024 174.418 80.8924C172.618 78.3024 168.958 89.5524 170.078 90.6524C170.548 92.9524 171.618 95.4324 171.388 97.7624C170.818 99.1924 171.018 100.432 171.668 101.802C172.428 103.402 172.208 103.682 170.278 104.122C168.538 104.632 166.948 107.212 165.728 104.482C165.178 103.482 165.368 102.562 165.648 101.512C167.218 97.3724 161.648 97.1024 159.938 98.9424C158.488 100.812 157.978 103.592 154.928 103.022C152.478 102.972 151.378 107.312 149.278 103.832C148.158 102.212 144.798 101.952 145.568 99.4624C147.638 91.8524 139.458 88.8224 143.898 82.2624C146.228 82.6424 148.078 80.8224 150.408 80.9424C152.488 81.0524 152.658 80.8124 152.528 78.7624C153.048 76.5824 156.778 75.3924 152.928 73.4624C151.638 72.9524 150.368 72.7524 149.468 71.3724C148.758 70.2824 147.188 70.9324 145.998 70.8324C140.878 69.9324 144.408 67.0524 144.598 64.3224C141.378 63.0924 139.448 66.4524 136.808 67.5424C135.448 68.5524 134.028 66.5424 135.288 65.5524C137.148 64.1924 142.728 56.1024 137.008 57.8624C135.638 58.4224 132.568 59.1824 131.968 57.4124C131.828 55.3924 123.448 55.7924 121.258 55.0024C118.538 54.3524 118.888 49.9124 115.458 51.7324C110.388 54.0924 113.068 45.9824 107.908 47.8224C102.138 48.2224 103.028 47.6324 102.008 53.1024C99.8875 54.5724 97.9775 50.8824 95.1375 51.1224C94.7675 48.0324 96.2975 43.6424 99.9875 44.3724C104.018 46.1724 110.438 42.8224 112.788 47.2024C114.308 51.3324 118.948 44.4524 120.718 48.6824C125.508 58.6424 133.008 48.0924 135.288 52.5224C138.958 57.6624 147.038 58.2524 149.498 65.1024C152.298 70.2124 158.408 65.1424 161.528 62.5024C162.488 61.9124 162.418 61.0324 162.258 60.0224C160.918 55.8624 168.208 49.6324 170.458 54.6124C171.608 61.9524 180.468 62.1424 186.198 60.1824C199.398 58.2724 192.238 79.0824 201.478 83.6224C201.258 85.0024 202.178 87.5724 201.068 88.4324L201.038 88.4424Z" fill="#C2DFB4"/>
<path d="M69.2775 86.4624C68.7775 86.5824 68.2975 86.5624 68.1675 86.1824C66.9275 82.7924 63.6375 83.6824 61.0175 84.2524C60.7775 83.2224 61.5475 81.5624 59.5975 81.5624C58.6775 81.5624 57.8675 81.6424 57.8575 82.8424C57.7775 83.7324 58.0375 84.9124 56.8975 85.2224C53.6175 83.5224 59.1775 79.2024 54.7075 77.6024C52.7975 76.0324 53.6475 72.3224 51.4275 71.1024C37.4275 61.0424 53.0875 87.1224 47.5075 90.4624C40.5275 95.5024 44.8775 103.502 48.3475 109.442C49.4275 111.202 53.0975 112.242 50.9775 114.622C47.4975 116.772 49.8775 120.442 48.3775 123.502C47.6275 125.732 45.6775 127.572 46.3675 130.272C46.5175 131.362 44.6775 132.372 44.1175 130.942C43.0975 129.022 40.4375 129.792 39.1475 128.082C37.1675 125.782 36.6375 129.262 34.9275 129.482C31.2875 128.962 31.0875 134.762 27.5575 133.272C26.7275 133.002 25.8875 132.762 25.0775 133.022C21.1275 134.412 18.4175 128.732 15.5275 133.332C11.2375 127.502 11.8275 118.322 10.4875 111.312C10.4475 108.152 11.1075 106.962 14.3075 106.802C18.0775 106.612 21.7875 106.452 25.1175 104.272C26.4775 103.382 28.1575 103.292 29.7575 103.912C33.1975 106.052 31.7775 94.8924 32.0175 92.8724C30.7375 87.1224 38.6975 88.3024 40.1875 83.8824C41.0475 82.3224 41.0475 80.6124 39.4175 79.3224C31.5275 72.7524 37.4675 58.7324 47.8075 60.8224C53.2275 59.6324 55.8375 53.9124 62.4375 58.1024C62.9075 59.0724 62.5575 59.7124 62.1475 60.3724C57.1275 67.3424 64.2075 71.3524 68.6275 75.8424C71.1775 78.6424 68.0175 82.7524 69.2775 86.4624Z" fill="#C2DFB4"/>
<path d="M23.5677 159.562C23.4077 158.952 23.5177 158.342 23.2677 158.052C21.4877 155.942 22.7777 153.602 21.6777 151.222C24.2077 149.912 26.1577 155.522 28.0477 156.922C29.9577 159.622 34.0477 158.632 34.7377 162.582C35.1477 164.102 36.7377 164.572 38.0477 163.032C41.0377 160.682 46.0377 162.692 49.0177 159.682C54.1277 157.052 55.9177 151.422 59.6877 147.562C62.0177 146.212 62.6677 143.492 64.3977 141.672C67.1077 139.672 68.9577 137.422 69.5577 133.782C69.8977 131.662 71.9077 129.632 73.2177 127.592C82.4977 117.252 72.7677 103.002 82.9877 104.662C86.0277 105.032 89.0577 104.442 92.1677 105.502C96.3377 106.502 99.8777 100.122 104.438 102.302C109.018 102.432 113.618 108.142 117.758 105.212C120.858 101.892 124.458 105.412 128.138 105.152C139.368 104.422 137.418 124.192 150.788 116.852C153.648 119.762 146.408 121.202 150.918 124.802C151.778 125.632 152.528 126.652 152.608 128.162C151.588 129.982 150.388 131.362 148.368 132.102C132.928 124.472 144.548 124.842 133.558 117.842C133.388 115.262 131.738 114.922 129.658 114.602C124.878 112.882 124.068 104.782 118.048 110.182C108.738 118.432 106.578 102.972 99.2377 111.562C95.5277 115.012 94.4777 115.112 90.1577 112.412C86.5977 109.522 81.4077 110.802 83.3677 115.962C84.7377 121.822 77.7577 126.062 81.0977 131.992C82.5177 135.422 76.2177 134.962 77.1577 140.442C72.3677 147.132 83.7477 156.742 79.0977 162.822C75.9477 165.092 76.1877 170.432 70.9877 168.862C69.7577 168.552 69.0077 169.802 68.5377 170.852C67.1177 173.982 63.6377 175.202 61.9277 178.082C61.5877 178.662 60.7477 178.602 60.0877 178.522C56.8777 178.262 54.4877 181.792 51.3577 179.192C38.4077 172.102 32.2577 174.942 23.5977 159.582L23.5677 159.562Z" fill="#B9E0D0"/>
<path d="M151.298 116.962C146.948 119.602 142.348 120.582 139.358 115.582C138.198 113.592 135.908 112.672 135.778 110.082C135.638 108.022 133.748 107.292 132.118 106.582C128.838 105.272 125.238 106.392 122.038 104.432C120.828 103.792 119.268 104.552 118.268 105.662C113.448 110.702 104.108 98.2723 98.5176 104.032C97.0076 105.652 94.5376 104.992 93.0676 106.692C92.6776 107.152 91.4576 106.482 90.7476 106.082C89.9976 105.662 89.2676 105.032 88.4176 105.312C85.1676 106.482 77.2076 103.002 78.3276 109.032C79.1976 111.892 78.1376 114.872 79.1976 117.662C79.4676 118.372 78.9676 118.932 78.4676 119.372C75.9276 121.472 76.6976 125.242 74.2676 127.472C73.4376 128.482 72.3476 129.282 72.4976 130.822C72.5576 131.472 71.9576 131.752 71.4976 132.072C68.2576 133.832 71.2276 137.902 67.9076 139.662C64.0476 141.402 63.5476 146.102 60.0376 148.202C56.9676 151.312 55.4976 155.782 51.6876 158.572C49.8576 161.082 46.8776 161.252 44.2876 162.282C43.2376 163.052 42.3576 163.422 41.0676 162.492C38.7176 160.792 38.6776 165.792 36.5276 164.972C32.1176 164.162 35.0776 160.292 31.3976 159.852C26.7876 158.972 25.6476 153.382 21.8476 151.002C21.0576 150.002 20.2476 149.142 19.9976 147.772C23.7476 148.482 24.2076 142.822 29.8376 144.302C31.9376 145.172 36.3876 143.532 36.3576 146.832C35.5576 150.262 38.4876 155.982 42.4176 153.692C48.2276 150.872 51.1176 158.422 56.8776 147.832C57.8876 145.132 62.1976 143.512 60.0876 140.162C58.8276 137.162 59.2176 132.472 63.3976 133.442C63.9376 133.522 64.6676 133.592 64.9576 133.052C65.4976 131.092 68.7576 129.752 68.2376 127.832C65.7276 123.932 61.1176 122.102 58.7176 118.042C54.9276 113.332 63.2376 112.002 66.4276 113.012C66.7676 112.452 66.6276 112.132 66.3976 111.812C64.9376 109.792 64.7276 107.802 66.0676 105.552C68.2976 102.862 64.4076 93.2123 70.7676 97.8623C73.9776 102.842 79.2176 99.4423 83.0176 102.392C85.3276 104.142 87.8976 101.482 90.3776 102.792C90.8276 102.982 91.2976 102.892 91.7476 102.702C92.7576 102.282 93.7276 102.462 94.7776 102.722C100.348 104.922 99.8776 94.7323 105.678 98.6223C106.768 99.1323 107.728 99.7523 109.118 99.2423C111.758 98.1823 113.698 102.792 116.208 101.622C119.818 97.9023 125.738 101.662 129.038 97.6923C131.348 94.1123 137.008 99.6023 137.558 94.0323C138.588 88.8123 144.958 95.3623 143.628 98.7623C142.888 102.282 143.328 103.282 146.688 104.582C149.808 105.492 149.848 109.422 153.218 109.762C153.138 112.202 151.868 114.372 151.318 116.942L151.298 116.962Z" fill="#BFE0C4"/>
<path d="M36.7676 67.8424C36.0976 71.4424 36.5076 76.4224 39.4776 78.5124C40.3176 78.9024 41.4176 79.0324 41.3976 80.2424C42.3176 83.8424 39.1576 88.4824 35.0576 88.4224C33.7676 88.2924 32.2376 91.0224 32.6076 92.5824C33.5076 95.2024 32.5576 97.7724 32.4576 100.332C33.2176 102.132 32.3676 103.782 32.2176 105.472C23.5376 101.952 25.1876 108.232 14.9576 107.522C11.1776 107.542 10.9876 107.912 11.3776 111.782C11.0476 114.532 12.8176 117.432 12.1576 119.822C9.36759 118.452 9.98759 114.522 9.72759 111.802C9.45759 110.362 8.11759 109.712 8.07759 108.272C5.07759 101.482 4.18759 93.9024 7.95759 87.3424C8.96759 82.0524 9.76759 76.9324 13.0676 72.4524C14.6276 69.8824 15.5876 66.5624 19.7176 67.2824C25.4576 64.2624 30.9876 66.0524 36.7476 67.8524L36.7676 67.8424Z" fill="#CFE4B1"/>
<path d="M151.138 117.322C150.668 107.732 158.708 105.632 162.918 114.372C164.058 116.442 166.618 113.812 168.408 115.562C173.048 118.112 180.748 110.652 183.738 115.612C185.588 118.102 189.138 113.352 189.348 111.072C189.988 106.192 191.598 101.452 191.318 96.4124C191.208 94.4024 191.608 94.0224 193.528 94.0024C195.648 93.9724 197.728 92.6924 200.088 93.8624C200.278 94.3724 200.258 94.8024 200.188 95.4324C193.538 101.572 196.018 110.912 191.078 117.532C189.458 120.772 190.298 128.952 184.118 126.062C180.418 124.152 179.358 124.712 178.958 129.012C178.178 134.602 172.528 136.562 169.128 131.922C165.298 131.292 161.808 129.032 157.788 129.442C155.958 129.632 154.238 129.642 152.438 128.582C151.898 125.042 145.858 123.352 149.608 120.072C150.298 119.332 151.228 118.732 151.148 117.322H151.138Z" fill="#B1DCC8"/>
<path d="M131.238 195.722C131.418 195.212 131.458 194.682 131.848 194.642C138.198 192.782 136.908 187.952 145.518 189.372C146.728 189.412 147.288 188.852 147.168 187.682C147.018 186.242 148.078 185.332 148.538 184.192C151.378 179.202 156.668 176.802 160.528 172.722C163.688 169.882 168.958 168.562 169.808 163.862C174.838 157.222 179.748 150.062 186.138 144.482C189.418 141.402 189.818 136.652 195.998 137.082C197.848 144.262 185.928 152.582 183.528 159.552C181.958 162.742 178.818 165.102 178.028 168.692C176.898 174.832 171.878 177.852 168.248 182.442C163.528 183.672 162.428 189.292 158.188 190.842C149.428 192.452 140.138 197.832 131.248 195.732L131.238 195.722Z" fill="#B7DDEA"/>
<path d="M37.0176 67.8224C33.3676 67.0724 29.7576 66.7724 26.1076 66.7424C23.9576 65.5324 22.2576 65.9924 20.8076 67.9524C19.7276 69.7924 18.1676 66.7624 17.1076 67.9124C14.3876 70.4424 13.6276 73.9424 11.4776 76.8524C10.3376 78.2424 9.64763 79.8624 9.77763 81.7724C9.93763 84.1524 9.36763 86.3924 8.28763 88.5324C7.40763 91.6924 5.01763 94.6424 6.12763 98.0624C6.46763 99.5724 7.39763 101.042 6.60763 102.842C3.68763 100.662 3.78763 96.4124 3.10763 93.0924C3.97763 91.5424 2.36763 90.5824 2.48763 89.0724C2.52763 85.7024 3.31763 82.4424 2.95763 78.9824C6.83763 73.7124 7.41763 67.2124 12.6776 62.8424C18.6276 57.6324 20.8276 50.2324 24.6276 43.4224C26.6376 42.9024 28.4376 42.1424 30.5276 43.0224C31.2176 45.2124 31.6576 47.2924 34.4676 47.6824C38.2276 50.3024 35.8476 56.3424 34.8376 60.1224C33.7576 62.4524 36.5576 62.6924 37.9376 63.8824C38.0776 65.3324 38.2276 66.6524 37.0276 67.8224H37.0176Z" fill="#DDEABD"/>
<path d="M159.507 18.7224C158.158 23.0824 151.898 25.5024 149.498 21.2924C148.098 17.2524 144.108 16.6824 140.928 15.0524C138.778 14.3424 137.868 17.8124 135.468 17.2824C132.838 18.0224 131.638 20.0324 130.088 16.7524C128.568 15.2924 129.108 12.3824 126.998 11.6924C116.718 7.93237 105.418 8.56237 94.9775 11.0124C93.3875 11.0424 91.9575 10.9224 91.1675 9.27237C85.7675 6.01237 77.7375 7.43237 71.6475 8.94237C65.6075 9.42237 63.1675 17.3424 56.8475 15.6624C56.1075 14.6224 57.2675 13.9024 58.1775 13.8024C60.4675 11.5824 63.6175 10.7424 66.1875 8.89237C69.5675 8.75237 72.7875 6.97237 75.7875 5.50237C78.9175 4.89237 82.1075 4.43237 85.3175 4.17237C98.8475 2.75237 113.228 0.0123656 126.038 5.97237C137.808 8.63237 149.548 10.8124 159.498 18.7224H159.507Z" fill="#EBEAAE"/>
<path d="M33.9577 171.192C39.2477 175.002 45.6077 176.202 50.5677 180.562C54.0877 184.202 59.6777 184.092 63.3777 187.372C66.7977 190.592 68.4977 185.112 71.6377 184.162C74.5177 186.422 69.3177 189.532 73.0477 191.312C78.9377 194.342 86.3077 197.702 92.8677 195.572C101.158 191.392 109.428 198.372 117.568 194.382C118.498 194.582 119.078 193.772 119.928 194.302C104.928 204.872 85.8677 199.812 69.7277 196.122C66.9077 196.242 65.0877 193.202 62.2477 193.302C53.0877 190.302 46.3277 182.792 38.1277 177.962C36.6277 177.132 26.0277 168.492 31.8377 169.622C32.4077 170.232 32.9977 170.812 33.9577 171.202V171.192Z" fill="#CBE6E5"/>
<path d="M178.438 129.102C177.298 126.042 180.738 122.092 183.598 124.792C186.028 127.962 189.288 124.982 189.488 121.432C188.788 118.922 190.058 117.312 191.648 115.622C194.958 109.532 192.748 99.3023 199.948 95.6423C200.458 104.122 200.098 112.542 200.258 121.312C197.028 126.112 196.238 131.752 190.318 134.372C188.058 133.782 186.158 132.422 183.778 133.352C183.068 133.632 182.328 132.892 182.068 132.172C181.468 130.482 180.108 129.772 178.438 129.092V129.102Z" fill="#B9E0D0"/>
<path d="M201.698 83.6423C193.558 83.0923 198.608 58.2723 186.438 60.6623C184.208 59.1923 183.228 57.2723 183.648 54.5823C186.108 52.9823 189.118 54.1023 190.578 50.6623C190.888 44.7323 186.548 41.5523 183.748 37.0523C180.518 29.7423 172.728 27.3623 168.118 21.3523C173.108 18.0823 182.328 26.7823 184.028 31.4723C187.918 34.8023 188.548 39.3223 189.938 43.8923C195.408 56.5823 202.928 69.5323 201.688 83.6523L201.698 83.6423Z" fill="#DDEABD"/>
<path d="M24.6275 43.5524C22.2375 53.0724 15.8975 60.5924 9.31754 67.6524C6.47754 70.8424 7.33754 76.8524 3.13754 78.7224C1.67754 78.0224 3.11754 76.6624 2.99754 75.5324C3.03754 73.7724 3.27754 72.2824 3.06754 70.5124C3.49754 69.7524 3.66754 69.1024 3.59754 68.2124C9.09754 61.2224 12.8475 53.3224 17.4375 45.9524C20.3475 40.7124 19.9975 30.6124 27.9775 30.2224C28.7575 32.2724 27.1375 33.4624 26.6675 35.0024C25.8275 37.7424 25.3675 40.5724 24.6175 43.5424L24.6275 43.5524Z" fill="#ECF0C7"/>
<path d="M22.5876 33.0323C19.0076 45.4623 12.7776 58.3224 3.79761 68.0124C5.24761 55.0424 11.2276 40.3923 22.5876 33.0323Z" fill="#E8EFDF" fill-opacity="0.9"/>
<path d="M168.308 182.572C169.088 177.642 176.418 175.352 177.008 169.752C181.778 158.042 191.618 147.892 197.328 137.312C197.198 145.832 176.308 180.152 168.318 182.572H168.308Z" fill="#CEE5ED"/>
<path d="M24.7376 43.7323C23.8876 38.7423 26.2476 34.8123 27.8776 30.3923C27.6776 29.9623 27.6076 29.7123 27.8076 29.2723C29.3076 28.2423 30.7476 27.3323 32.3076 26.4523C34.0376 26.8923 38.4176 22.2523 38.2776 25.6723C38.1776 26.3923 37.6476 26.9523 37.0876 27.7323C36.9176 28.4623 37.0576 29.1623 36.6176 29.4923C32.4876 33.1823 32.2076 38.0424 30.7876 42.9724C28.7476 42.8924 26.9376 44.0024 24.7376 43.7224V43.7323Z" fill="#EBEAAE"/>
<path d="M159.848 18.9124C153.198 15.6824 147.168 12.1924 140.178 9.75239C134.898 7.84239 129.258 8.8124 124.298 5.8624C113.128 1.1924 100.758 3.7824 89.1177 3.8824C99.3077 0.362396 110.818 1.7024 121.308 3.1124C125.608 4.6824 129.278 7.0624 133.968 7.1024C145.478 7.8624 154.818 15.5024 165.158 19.9924C163.258 20.8624 161.848 19.0924 159.848 18.9124Z" fill="#E8ECCF" fill-opacity="0.9"/>
<path d="M197.578 137.242C195.128 137.382 191.528 139.462 189.598 138.702C186.818 133.512 197.558 130.232 197.798 124.012C198.088 123.042 198.368 121.722 200.048 121.602C200.468 126.932 199.468 132.182 197.588 137.242H197.578Z" fill="#CBE6E5"/>
<path d="M9.80762 116.202C11.6276 116.602 11.0676 118.442 11.8576 119.812C11.8176 122.752 13.2676 124.712 13.1376 127.642C11.2576 124.972 10.2976 120.092 9.80762 116.202Z" fill="#E8ECCF" fill-opacity="0.9"/>
<path d="M31.7577 169.432C30.2077 170.252 29.1277 168.852 28.5177 167.492C27.0877 166.752 25.8577 165.152 25.6177 163.592C28.3577 162.712 29.7877 167.672 31.7577 169.432Z" fill="#BCE3DF"/>
<path d="M122.408 194.512C123.168 192.122 126.968 195.132 128.488 195.962C126.418 196.062 124.138 196.702 122.408 194.512Z" fill="#B7DDEA"/>
<path d="M37.1275 27.8823C36.6475 26.7123 38.9575 25.1823 37.1575 24.5823C37.7175 23.1123 39.2475 23.3023 40.6875 22.8923C39.7475 24.5823 38.9675 26.5423 37.1175 27.8823H37.1275Z" fill="#DDEABD"/>
<path d="M46.3777 20.1824C45.3077 22.0024 43.4277 22.6124 41.1477 22.8624C42.1577 20.9524 44.4577 21.1324 46.3777 20.1824Z" fill="#DDEABD"/>
<path d="M57.1275 13.9524C57.1675 14.3924 57.0075 14.7924 56.7775 15.3424C55.6975 15.8624 54.6875 16.2224 53.4675 16.5824C54.1475 15.2324 55.1375 14.0324 57.1275 13.9424V13.9524Z" fill="#ECF0C7"/>
<path d="M13.2576 129.122C14.8476 129.952 15.0576 132.772 15.3376 134.512C13.7876 133.242 13.7776 131.192 13.2576 129.122Z" fill="#E8ECCF" fill-opacity="0.9"/>
<path d="M26.1775 163.202C24.4275 163.802 23.7875 160.942 23.4475 159.602C25.0675 160.072 25.2675 161.792 26.1775 163.202Z" fill="#CBE6E5"/>
<path d="M75.7276 5.37244C75.2276 7.37244 73.2876 7.07244 71.5376 7.52244C72.2376 5.85244 74.1576 6.17244 75.7276 5.37244Z" fill="#E8ECCF" fill-opacity="0.9"/>
<path d="M27.7477 29.1224C27.9377 29.3624 27.9177 29.5924 27.8877 30.0024C26.6977 30.7324 25.5077 31.2824 24.1277 31.8524C23.8177 30.0224 26.3977 29.8624 27.7477 29.1224Z" fill="#E8EFDF" fill-opacity="0.9"/>
<path d="M6.49756 104.332C8.02756 104.842 7.98756 106.282 8.08756 107.862C6.33756 108.012 7.20756 105.542 6.49756 104.332Z" fill="#DDEABD"/>
<path d="M52.5876 16.6824C52.5876 18.1624 51.4176 18.4924 50.0676 18.8524C50.2076 17.5524 50.9376 16.7024 52.5876 16.6824Z" fill="#ECF0C7"/>
<path d="M85.3976 4.00244C84.7276 5.19244 83.5776 4.63244 82.3276 4.73244C82.7776 3.06244 84.0776 3.70244 85.3976 4.00244Z" fill="#E8ECCF" fill-opacity="0.9"/>
<path d="M2.74761 85.5125C2.93761 86.4925 3.18761 87.5524 2.61761 88.7324C1.64761 87.7624 1.49761 86.6525 2.74761 85.5125Z" fill="#E8ECCF" fill-opacity="0.9"/>
<path d="M63.3277 10.4724C63.0677 11.9424 61.6977 11.8024 60.3977 12.1624C60.7477 10.8924 61.8877 10.5824 63.3277 10.4724Z" fill="#E8ECCF" fill-opacity="0.9"/>
<path d="M199.158 65.0324C197.658 64.7224 197.828 63.3324 197.568 61.9724C198.648 62.5024 199.118 63.5624 199.158 65.0324Z" fill="#E8EFDF" fill-opacity="0.9"/>
<path d="M2.51755 90.1924C3.84755 90.8924 4.05755 91.5524 3.28755 92.8424C2.96755 92.0424 2.36755 91.3224 2.51755 90.1924Z" fill="#E8ECCF" fill-opacity="0.9"/>
<path d="M8.17773 109.382C9.34773 109.332 9.80773 110.032 9.74773 111.342C9.01773 111.042 8.30773 110.532 8.17773 109.382Z" fill="#DDEABD"/>
<path d="M169.088 20.4225C169.038 21.4725 167.228 21.3125 166.908 20.4225C167.538 20.0325 168.238 19.9425 169.088 20.4225Z" fill="#E8ECCF" fill-opacity="0.9"/>
<path d="M59.9677 12.2124C60.0577 13.0624 59.6477 13.6324 58.5577 13.7724C58.4977 12.9524 58.8677 12.3324 59.9677 12.2124Z" fill="#E8ECCF" fill-opacity="0.9"/>
<path d="M2.85754 75.4724C3.69754 75.9724 3.72754 76.5324 2.68754 77.0424C2.44754 76.5724 2.37754 76.0524 2.85754 75.4724Z" fill="#E8EFDF" fill-opacity="0.9"/>
<path d="M3.12755 94.6824C4.01755 94.7024 4.29755 95.1824 3.77755 96.1024C3.07755 95.9324 3.02755 95.4224 3.12755 94.6824Z" fill="#E8ECCF" fill-opacity="0.9"/>
<path d="M66.1675 8.79236C65.8575 9.25236 66.0075 10.4224 64.7375 10.0224C64.8975 9.30236 65.2975 8.88236 66.1675 8.79236Z" fill="#E8ECCF" fill-opacity="0.9"/>
<path d="M200.978 92.7524C200.328 92.3924 200.248 91.8924 200.808 91.2524C201.508 91.6024 201.558 92.1024 200.978 92.7524Z" fill="#E8EFDF" fill-opacity="0.9"/>
<path d="M79.2176 4.68238C78.9976 5.33238 78.4976 5.35238 77.7776 5.32238C77.7776 4.41238 78.2176 4.04238 79.2176 4.68238Z" fill="#E8ECCF" fill-opacity="0.9"/>
<path d="M28.4077 167.572C29.0477 167.592 29.4477 168.022 29.5377 168.902C28.7477 169.002 28.4177 168.522 28.4077 167.572Z" fill="#CBE6E5"/>
<path d="M26.2476 165.252C27.0276 165.142 27.3276 165.612 27.3376 166.532C26.7076 166.532 26.3276 166.102 26.2476 165.252Z" fill="#CBE6E5"/>
<path d="M32.2575 26.3424C32.3375 27.1224 31.8475 27.3824 30.9675 27.3924C30.9675 26.7424 31.3875 26.3724 32.2575 26.3424Z" fill="#ECF0C7"/>
<path d="M200.898 88.5324C200.988 88.3324 201.088 88.3324 201.338 88.3424C202.078 88.8124 201.928 89.1724 201.168 89.4824C200.978 89.2524 200.938 88.9924 200.898 88.5324Z" fill="#E8EFDF" fill-opacity="0.9"/>
<path d="M131.178 195.592C131.708 196.042 130.828 196.962 130.298 196.262C130.388 195.822 130.658 195.652 131.178 195.592Z" fill="#CBE6E5"/>
<path d="M2.87772 82.2024C3.41772 82.3724 3.57772 82.6824 3.08772 83.1824C2.55772 82.9924 2.44772 82.6824 2.87772 82.2024Z" fill="#E8ECCF" fill-opacity="0.9"/>
<path d="M3.0376 72.1224C3.8176 72.1124 4.3676 72.3624 3.2276 73.0924C3.0576 72.8624 3.0376 72.5924 3.0376 72.1224Z" fill="#E8EFDF" fill-opacity="0.9"/>
<path d="M200.828 70.1525C200.318 70.2225 199.898 70.0325 199.858 69.2625C200.368 69.1925 200.788 69.3825 200.828 70.1525Z" fill="#E8EFDF" fill-opacity="0.9"/>
<path d="M3.45769 69.2324C4.18769 69.6324 4.02769 69.9824 3.23769 70.2824C3.03769 69.9624 3.05769 69.6224 3.45769 69.2324Z" fill="#E8EFDF" fill-opacity="0.9"/>
<path d="M69.2375 86.8223C66.1675 81.4023 71.4076 78.9323 67.5876 75.7623C62.1176 70.3423 59.8375 71.6323 59.5675 62.8923C59.4675 62.0723 60.1075 61.5523 60.6175 60.9923C62.7875 59.1023 63.3875 55.7423 64.5475 53.1123C67.8475 50.9223 72.0675 52.1923 75.2476 53.9523C77.5375 55.1123 77.2976 61.0423 80.4276 59.3823C84.7876 56.5123 90.3776 55.6023 93.8576 50.9723C94.2876 50.7723 94.5576 50.7623 94.9976 50.9523C97.9676 49.7423 99.1175 52.4023 101.748 53.3123C102.788 55.7823 99.8476 57.7523 101.338 60.0023C102.818 62.9423 100.598 66.3723 103.198 69.0323C103.958 70.4923 105.558 72.2823 104.238 73.8823C103.308 74.6723 104.098 76.3623 103.038 76.8823C100.358 77.3923 98.2476 79.6323 95.2775 79.3523C94.0676 79.2423 93.1975 79.9423 93.6675 81.2823C93.7976 84.2023 89.9976 85.4323 92.4776 88.8123C94.0176 90.2723 93.1775 93.5623 90.8075 92.3823C89.8375 91.8823 89.0476 90.9723 87.7576 91.1723C83.4776 92.1723 90.3776 95.2523 87.1876 97.2123C83.7376 100.442 79.8175 94.7924 75.9175 94.5523C71.7875 93.5323 70.2676 90.6723 69.2276 86.8423L69.2375 86.8223Z" fill="#BBDCAD"/>
<path d="M189.988 133.982C190.228 135.442 189.328 136.692 189.598 138.332C179.488 146.842 181.238 135.492 173.358 140.452C169.028 143.052 165.138 137.162 160.298 140.272C156.198 142.352 151.758 136.742 148.088 138.672C147.458 139.862 146.358 140.322 145.318 140.942C143.018 142.202 142.838 145.232 141.248 147.192C139.608 150.692 136.058 149.992 133.058 151.092C126.368 153.712 116.818 148.032 112.738 156.072C111.268 159.212 107.638 162.582 109.268 166.252C109.818 168.572 112.668 171.602 110.598 173.712C109.818 174.482 109.138 174.862 108.198 174.002C108.028 173.852 107.558 173.762 107.438 173.872C105.378 175.702 103.328 174.032 101.328 173.782C99.3777 173.132 95.8677 174.862 97.3377 177.122C98.5277 179.462 97.8777 182.252 98.6377 184.782C100.328 186.662 102.188 188.452 103.208 190.922C107.028 196.772 115.638 191.652 117.728 194.252C111.208 200.262 102.868 192.572 95.2477 195.622C87.3677 199.082 77.8077 195.522 71.0477 190.962C69.9577 190.182 70.2777 189.132 70.8977 188.212C74.7277 183.312 63.3977 179.282 73.7177 175.802C75.0977 175.372 76.4277 174.922 77.2977 173.702C81.9077 166.432 94.1577 175.042 97.3177 168.302C98.3777 165.272 100.898 164.482 104.098 164.592C103.318 163.132 101.918 162.682 101.248 161.572C98.3477 158.482 102.188 154.482 105.288 157.322C107.178 159.072 108.098 158.252 109.158 156.502C114.568 148.472 125.768 146.012 134.838 145.352C143.388 146.652 137.278 134.032 145.538 133.462C148.138 132.732 150.018 130.112 152.098 128.512C155.698 129.682 159.588 127.112 162.568 129.372C164.228 130.652 166.778 130.062 168.768 130.722C169.708 130.722 170.428 131.322 170.708 132.132C172.428 136.662 177.828 132.712 178.258 129.192C183.008 127.502 181.598 134.662 185.028 132.522C187.188 130.942 188.038 133.292 189.988 134.002V133.982Z" fill="#AFDEDC"/>
<path d="M75.5476 54.3323C73.9876 53.9423 72.6076 53.4323 71.0376 52.8423C70.1276 51.6723 70.8776 50.9123 71.6076 50.3923C75.5576 47.8023 68.1676 40.9923 75.7676 40.7723C78.4176 43.0723 80.3276 40.4823 82.8976 39.8723C86.9276 39.5623 85.1076 35.0323 87.7576 33.4223C91.7476 30.5723 90.2576 36.5923 101.248 33.7223C104.418 33.3423 102.718 29.4323 105.388 28.7823C107.578 28.4323 107.958 26.8423 108.618 25.0823C111.218 24.0523 112.448 20.5523 115.928 21.0623C117.948 19.7923 120.558 20.0423 121.038 22.9423C121.298 25.7523 123.048 28.0923 123.048 30.9023C124.798 31.3023 125.868 28.6323 127.658 30.5423C130.558 32.5023 133.908 28.5023 136.908 27.9323C139.838 26.3423 142.258 29.2023 145.258 29.0823C147.548 29.2523 149.398 30.8823 151.308 31.9323C156.128 33.1323 151.878 38.8123 155.958 40.4923C157.698 41.2423 158.408 41.0023 159.038 39.1123C159.258 38.4523 159.448 37.7823 160.128 37.5923C162.478 36.9223 164.068 35.1223 165.918 33.7323C168.818 32.5123 172.928 38.9523 173.778 41.6223C174.948 45.7323 180.008 41.7523 181.888 44.7623C184.928 48.3623 184.558 51.5223 190.478 50.5123C190.528 54.6523 187.448 54.5223 184.188 54.4623C178.558 54.3323 179.248 44.4923 172.618 47.6823C163.148 48.4223 164.198 39.0923 156.058 52.7723C154.918 54.4323 153.538 54.8523 151.778 53.4723C149.658 51.8223 146.548 51.4423 145.188 48.8823C144.078 46.7923 142.468 45.4023 140.548 44.1823C137.118 41.4623 132.748 44.7523 129.318 41.8723C121.068 35.7223 116.858 42.1323 109.468 40.4423C107.028 39.5523 104.418 39.7823 101.918 40.1223C99.7076 40.4223 97.6376 40.5123 95.6076 39.4323C91.8576 38.4323 86.0376 43.4223 82.1376 44.8123C81.5976 45.1623 80.6476 45.2223 80.6676 45.9523C80.7576 49.7623 77.4576 51.5023 75.5576 54.3223L75.5476 54.3323Z" fill="#D2E5AB"/>
<path d="M75.9777 40.7024C72.9677 40.5724 71.6677 44.5624 73.5576 46.6924C75.8676 49.7824 71.6277 49.9624 70.8677 52.5624C68.9177 52.8724 66.9477 52.4324 64.8577 53.3024C63.0877 54.5124 61.7477 53.7224 60.2377 52.7724C58.3977 49.9624 52.8577 52.2424 52.6277 48.4424C54.3177 42.1824 49.9277 44.0224 51.4777 40.0524C55.6677 27.8224 44.8077 28.3624 51.2177 22.8924C53.0677 18.7924 60.2977 20.8824 63.5577 22.1224C64.4977 22.7824 65.7277 22.1724 66.5477 21.2124C67.4877 20.1124 68.5277 19.2124 70.1577 19.4324C71.0877 19.5524 71.3876 18.7724 71.8076 18.1424C75.4576 12.3124 85.6477 16.6724 84.9177 22.8324C83.8377 26.1824 87.6377 29.1324 85.0177 32.1624C82.6977 42.1324 83.8177 36.0624 75.9677 40.7024H75.9777Z" fill="#D2E39E"/>
<path d="M52.5276 48.2424C52.8276 49.4124 53.4776 49.9424 54.8176 49.9424C56.2576 51.4524 58.2276 51.2224 59.9476 52.0624C61.5076 52.4124 62.5876 53.7724 64.3976 53.3324C64.7776 55.2724 64.4176 57.0124 62.5376 58.3224C58.0876 56.0024 52.3476 57.8424 50.2376 61.9924C44.0976 59.4624 39.2476 65.8524 34.9276 63.0124C31.1576 60.4524 37.0976 57.0324 35.3676 53.5424C35.0976 51.4624 36.6576 49.7424 34.6976 47.8924C38.9776 48.5324 43.4876 43.0824 47.0276 46.7524C48.4376 48.2224 50.5376 47.5624 52.5176 48.2424H52.5276Z" fill="#CFE4B1"/>
<path d="M75.4475 54.6324C74.9775 51.0024 81.0175 50.0424 79.6875 46.1924C79.3175 45.3124 79.6075 44.4124 80.4275 44.4624C83.7475 44.1624 85.7975 41.3224 89.0675 40.7524C91.5275 40.5024 92.8175 36.5424 95.4275 38.5624C100.288 41.1624 105.688 37.4724 110.788 40.1024C114.028 42.0124 116.738 37.2824 119.718 38.3024C126.668 37.4724 129.638 43.4824 135.228 42.3224C138.948 41.1824 142.208 44.4124 144.858 46.2624C145.358 50.5524 149.318 50.6324 152.018 52.6824C156.768 57.5224 157.868 41.0124 165.678 44.9524C176.068 51.3224 168.278 43.5324 178.528 47.3924C181.098 49.0524 179.038 52.5724 183.828 54.3024C183.708 56.7424 185.218 58.3924 186.118 60.4724C179.828 65.4424 177.808 58.7124 175.448 63.0224C174.448 59.4724 169.568 60.3324 169.788 56.5624C170.908 50.4524 163.888 54.7724 162.768 57.6424C161.808 59.6024 165.008 61.6524 162.468 62.8924C158.568 65.2024 154.938 70.3024 149.668 67.2124C146.828 59.8324 146.248 62.5724 140.978 57.6424C139.408 54.8424 134.968 56.8124 134.708 53.5524C134.948 49.1224 129.658 54.8724 125.118 53.7924C117.998 52.2424 122.558 45.0424 115.448 49.1824C110.998 52.1424 113.628 43.6224 107.718 45.8624C100.638 46.8324 97.4475 41.1024 95.1775 50.8524C94.8975 51.0624 94.6475 51.0624 94.2075 51.0624C90.7975 54.6024 88.8175 52.7924 85.9275 49.8724C80.9575 47.1924 86.0375 59.8924 77.2275 57.9724C76.5375 56.8324 76.0275 55.8124 75.4375 54.6224L75.4475 54.6324Z" fill="#CFE4B1"/>
<path d="M193.008 64.2723C195.478 64.6623 195.558 66.9423 195.698 68.7023C195.468 72.0723 198.028 74.4323 198.078 77.6823C197.928 79.3323 198.738 80.7423 199.188 82.4723C194.918 80.3023 194.968 68.6923 193.018 64.2823L193.008 64.2723Z" fill="#CFE4B1"/>
<path d="M148.158 131.682C148.898 135.932 139.948 132.462 140.968 140.382C141.368 143.432 138.558 147.602 135.098 146.122C127.228 146.052 118.488 149.242 111.968 153.882C109.928 154.912 108.448 162.282 105.878 158.762C101.688 154.282 98.3976 159.592 103.358 162.662C104.898 163.032 106.448 165.462 104.028 165.622C101.788 164.982 98.8876 165.722 98.0376 168.132C95.3376 176.742 83.1176 166.982 78.2176 173.792C76.9476 176.262 74.2576 176.162 71.9776 177.032C66.1876 181.062 75.7376 182.602 67.7876 188.172C64.2276 191.812 60.7976 184.732 56.5376 184.832C50.7276 182.862 46.8276 177.562 40.9176 175.732C38.8776 174.872 36.7076 174.162 35.2676 172.062C40.7076 174.172 46.9776 174.782 51.7376 178.562C53.4476 179.792 54.8876 179.972 56.5376 178.592C58.2976 176.172 61.3576 179.432 62.0976 176.832C63.2976 173.992 67.1276 173.502 68.0776 170.142C69.2076 167.762 69.7376 167.572 72.2776 168.092C74.6576 168.572 74.6676 168.582 75.4876 166.122C76.6976 162.762 81.5176 161.532 79.0276 157.492C77.1476 153.792 77.5376 149.022 74.9476 145.722C74.1176 144.932 74.0376 144.022 74.9476 143.292C76.3476 142.152 76.7076 140.722 76.5276 139.032C75.2876 134.052 82.6976 135.482 80.0776 131.522C77.6676 127.022 82.2776 122.272 83.1776 118.252C81.3776 116.052 83.4176 113.492 82.4376 111.192C82.0776 110.352 82.8476 109.752 83.7776 110.052C90.6176 109.202 93.0776 117.102 98.1976 111.552C99.5676 110.292 100.668 108.722 102.588 108.102C107.158 106.312 109.548 114.482 114.358 111.472C128.538 100.962 122.578 114.642 132.438 114.062C133.758 113.702 133.998 114.072 133.858 115.512C132.978 120.352 139.538 117.182 139.678 123.352C139.968 128.652 145.648 128.252 148.168 131.672L148.158 131.682Z" fill="#BCE3DF"/>
<path d="M34.0177 171.132C33.0877 171.332 32.1677 171.222 31.8577 169.812C32.8377 169.602 33.3977 170.262 34.0177 171.132Z" fill="#BCE3DF"/>
<path d="M77.0676 58.0724C82.8876 56.7224 81.4776 57.1824 82.6976 51.8924C82.2076 49.0624 84.0876 46.7824 86.5476 49.3024C88.6676 52.0724 90.7276 53.4724 93.8276 51.0924C92.1276 56.4324 84.9976 56.4824 81.2276 60.0024C79.5776 60.9324 76.6076 60.3924 77.0676 58.0724Z" fill="#C2DFB4"/>
<path d="M60.0676 51.9923C58.1576 52.3123 56.2676 52.2723 55.0476 50.1423C56.7476 50.5323 59.1676 49.9623 60.0676 51.9923Z" fill="#D8E7A6"/>
<path d="M121.548 140.092C120.648 143.042 117.748 144.502 115.428 146.232C110.458 148.892 113.168 140.792 112.688 138.382C112.468 134.432 111.818 130.362 110.678 126.612C109.228 124.072 109.798 121.562 110.878 119.062C112.998 116.202 117.568 116.432 120.578 114.592C126.188 113.762 135.478 124.142 130.708 129.192C128.548 130.222 128.598 133.342 126.178 133.982C123.038 134.612 123.108 137.742 121.548 140.092Z" fill="#CBE6E5"/>
</g>
<defs>
<filter id="filter0_f_53_558" x="0.357666" y="0.142456" width="202.98" height="201.98" filterUnits="userSpaceOnUse" color-interpolation-filters="sRGB">
<feFlood flood-opacity="0" result="BackgroundImageFix"/>
<feBlend mode="normal" in="SourceGraphic" in2="BackgroundImageFix" result="shape"/>
<feGaussianBlur stdDeviation="0.75" result="effect1_foregroundBlur_53_558"/>
</filter>
<clipPath id="clip0_53_558">
<rect width="199.98" height="198.98" fill="white" transform="translate(1.85767 1.64246)"/>
</clipPath>
</defs>
</svg>
