<svg width="295" height="51" viewBox="0 0 295 51" fill="none" xmlns="http://www.w3.org/2000/svg">
<path d="M52.4595 25.4248C52.4595 22.5319 51.8896 19.6674 50.7825 16.9947C49.6753 14.322 48.0526 11.8935 46.0069 9.84792C43.9611 7.80233 41.5325 6.17968 38.8597 5.07262C36.1868 3.96555 33.322 3.39575 30.4289 3.39575L30.4289 25.4248H52.4595Z" fill="url(#paint0_radial_129_36)"/>
<path d="M52.4595 25.4248C52.4595 28.3177 51.8896 31.1823 50.7825 33.855C49.6753 36.5277 48.0526 38.9561 46.0069 41.0017C43.9611 43.0473 41.5325 44.67 38.8597 45.777C36.1868 46.8841 33.322 47.4539 30.4289 47.4539L30.4289 25.4248H52.4595Z" fill="url(#paint1_radial_129_36)"/>
<path d="M8.39797 25.4248C8.39797 28.3177 8.9678 31.1822 10.0749 33.8549C11.1821 36.5276 12.8048 38.9561 14.8506 41.0017C16.8963 43.0473 19.3249 44.6699 21.9978 45.777C24.6706 46.8841 27.5354 47.4539 30.4285 47.4539L30.4285 25.4248L8.39797 25.4248Z" fill="url(#paint2_radial_129_36)"/>
<path d="M30.4289 3.39572C27.5359 3.39572 24.6711 3.96552 21.9982 5.07258C19.3254 6.17965 16.8967 7.8023 14.851 9.84789C12.8053 11.8935 11.1825 14.3219 10.0754 16.9946C8.96827 19.6673 8.39844 22.5319 8.39844 25.4248L30.4289 25.4248L30.4289 3.39572Z" fill="url(#paint3_radial_129_36)"/>
<rect x="1.09424" y="0.967957" width="60.8061" height="48.9137" rx="24.4568" stroke="black" stroke-width="1.5"/>
<path d="M68.1541 25.4248C68.1541 27.9624 67.3899 30.2304 66.1907 31.8465C64.9914 33.4626 63.3941 34.3885 61.6962 34.3885C59.9982 34.3885 58.401 33.4626 57.2017 31.8465C56.0025 30.2304 55.2383 27.9624 55.2383 25.4248C55.2383 22.8872 56.0025 20.6192 57.2017 19.0031C58.401 17.387 59.9982 16.4612 61.6962 16.4612C63.3941 16.4612 64.9914 17.387 66.1907 19.0031C67.3899 20.6192 68.1541 22.8872 68.1541 25.4248Z" stroke="black" stroke-width="1.5"/>
<mask id="mask0_129_36" style="mask-type:alpha" maskUnits="userSpaceOnUse" x="94" y="3" width="201" height="44">
<circle cx="273.876" cy="24.4846" r="20.8775" fill="white"/>
<circle cx="220.001" cy="25.0598" r="20.8775" fill="#D9D9D9"/>
<circle cx="169.013" cy="24.7722" r="20.8775" fill="#D9D9D9"/>
<circle cx="115.141" cy="25.4248" r="20.8775" fill="white"/>
</mask>
<g mask="url(#mask0_129_36)">
<g filter="url(#filter0_d_129_36)">
<path d="M102.551 25.7937C101.397 25.7937 99.997 25.8514 98.3519 25.9668L97.3128 26.0534C97.0242 26.0823 96.7933 26.0101 96.6202 25.8369C96.4759 25.6349 96.4037 25.4185 96.4037 25.1876C96.4037 24.9278 96.4759 24.7113 96.6202 24.5382C96.7933 24.365 97.0242 24.2929 97.3128 24.3217L98.3519 24.4083C100.17 24.5237 101.57 24.5815 102.551 24.5815H112.119C112.609 24.5815 112.985 24.4516 113.244 24.1918C113.504 23.9032 113.634 23.528 113.634 23.0662V8.69317C113.634 7.97163 113.836 7.4377 114.24 7.09136C114.673 6.71616 115.207 6.52855 115.842 6.52855C116.361 6.52855 116.794 6.62957 117.141 6.8316C117.487 7.03363 117.66 7.23567 117.66 7.4377C117.66 7.66859 117.429 7.79847 116.968 7.82733C116.794 7.85619 116.65 7.9572 116.535 8.13037C116.448 8.30354 116.405 8.49114 116.405 8.69317V23.0662C116.405 23.528 116.535 23.9032 116.794 24.1918C117.083 24.4516 117.458 24.5815 117.92 24.5815H127.401C127.978 24.5815 128.454 24.466 128.83 24.2351C129.234 23.9754 129.652 23.629 130.085 23.1961C130.72 22.5612 131.37 22.2437 132.033 22.2437C132.409 22.2437 132.784 22.3591 133.159 22.59C133.592 22.8786 133.996 23.225 134.371 23.629C134.689 24.0042 134.847 24.365 134.847 24.7113C134.847 25.0288 134.717 25.2886 134.458 25.4906C134.198 25.6926 133.823 25.7937 133.332 25.7937L117.92 25.8369C117.458 25.8369 117.083 25.9668 116.794 26.2266C116.535 26.4863 116.405 26.8615 116.405 27.3522V41.682C116.405 42.2015 116.203 42.62 115.799 42.9374C115.423 43.2838 115.019 43.4569 114.586 43.4569C114.298 43.4569 114.053 43.3559 113.851 43.1539C113.677 42.9807 113.605 42.721 113.634 42.3746V27.3089C113.634 26.8182 113.504 26.443 113.244 26.1833C112.985 25.9235 112.609 25.7937 112.119 25.7937H102.551ZM149.653 21.2047C151.905 19.3864 154.055 17.1929 156.104 14.6242C158.153 12.0267 159.784 9.01065 160.996 5.57612C161.14 5.1432 161.4 4.81129 161.775 4.5804C162.15 4.32065 162.554 4.19077 162.987 4.19077C163.709 4.19077 164.301 4.46495 164.762 5.01332C164.964 5.21535 165.065 5.41738 165.065 5.61942C165.065 5.73486 165.008 5.83588 164.892 5.92246C164.806 6.00905 164.69 6.05234 164.546 6.05234C164.113 6.05234 163.767 6.39868 163.507 7.09136C163.478 7.14908 163.464 7.23567 163.464 7.35111C163.464 7.69745 163.694 7.87062 164.156 7.87062H169.308C169.654 7.87062 169.972 7.8129 170.26 7.69745C170.549 7.582 170.867 7.3944 171.213 7.13465C171.53 6.8749 171.862 6.74502 172.209 6.74502C172.497 6.74502 172.771 6.8316 173.031 7.00477C174.128 7.69745 174.676 8.36127 174.676 8.99622C174.676 9.22711 174.619 9.40028 174.503 9.51573C174.417 9.63117 174.258 9.77548 174.027 9.94865C173.565 10.1795 173.161 10.5403 172.815 11.031C171.429 12.9647 170.159 14.5088 169.005 15.6632C168.716 15.923 168.572 16.1683 168.572 16.3992C168.572 16.5724 168.644 16.7167 168.789 16.8321C168.962 16.9187 169.193 16.962 169.481 16.962H177.231C177.49 16.9332 177.721 16.861 177.923 16.7456C178.154 16.6012 178.399 16.4136 178.659 16.1828C179.092 15.7498 179.453 15.5334 179.741 15.5334C180.203 15.5045 180.679 15.62 181.17 15.8797C181.69 16.1106 182.123 16.4136 182.469 16.7888C182.815 17.1352 183.003 17.4238 183.032 17.6547C183.061 17.8567 183.032 18.0155 182.945 18.1309C182.859 18.2175 182.714 18.3474 182.512 18.5205C182.252 18.7514 182.05 18.9679 181.906 19.1699C181.791 19.3431 181.733 19.6317 181.733 20.0358L181.776 29.3869C181.776 29.8776 181.589 30.2961 181.213 30.6424C180.838 30.9887 180.449 31.1619 180.045 31.1619C179.496 31.1619 179.135 30.9022 178.962 30.3826C178.818 29.9786 178.587 29.7766 178.27 29.7766L159.524 29.7333C159.033 29.7333 158.644 29.8776 158.355 30.1662C158.095 30.4259 157.965 30.7867 157.965 31.2485V37.6558C157.965 39.272 158.297 40.2966 158.961 40.7295C159.394 41.0181 160.621 41.2346 162.641 41.3789C164.661 41.5521 166.999 41.6387 169.654 41.6387C172.367 41.6387 174.878 41.5521 177.187 41.3789C179.496 41.2057 180.939 40.9893 181.516 40.7295C182.469 40.2389 182.945 38.9112 182.945 36.7466L182.902 34.8418C182.902 34.4954 182.96 34.2357 183.075 34.0625C183.19 33.8605 183.335 33.7595 183.508 33.7595C183.681 33.7595 183.825 33.8605 183.941 34.0625C184.056 34.2357 184.114 34.5099 184.114 34.8851L184.071 36.0972C184.071 37.0208 184.186 37.6125 184.417 37.8722C184.619 38.1031 184.792 38.435 184.937 38.8679C185.081 39.3009 185.153 39.7627 185.153 40.2533C185.153 41.3789 184.605 42.2015 183.508 42.721C182.613 43.1539 180.91 43.4858 178.399 43.7167C175.917 43.9476 173.161 44.063 170.131 44.063C167.216 44.063 164.56 43.9476 162.165 43.7167C159.769 43.5147 158.211 43.2405 157.489 42.8941C156.566 42.3458 155.945 41.7108 155.628 40.9893C155.31 40.2677 155.151 39.3442 155.151 38.2186V19.5596C155.151 18.9535 154.949 18.6504 154.545 18.6504C154.286 18.6504 154.04 18.7659 153.809 18.9968C152.424 20.2378 151.212 21.2191 150.173 21.9406C150.029 22.0561 149.87 22.1138 149.697 22.1138C149.466 22.1138 149.35 21.9984 149.35 21.7675C149.35 21.5654 149.451 21.3778 149.653 21.2047ZM157.662 15.2736C157.374 15.5622 157.229 15.8508 157.229 16.1395C157.229 16.3126 157.316 16.4714 157.489 16.6157C157.778 16.8466 158.023 16.962 158.225 16.962H165.065C165.614 16.962 166.061 16.7888 166.407 16.4425C167.331 15.5767 168.11 14.6242 168.745 13.5852C169.38 12.5173 169.799 11.6082 170.001 10.8578C170.03 10.7423 170.044 10.598 170.044 10.4249C170.044 10.0497 169.914 9.74662 169.654 9.51573C169.395 9.25597 169.063 9.1261 168.659 9.1261H164.329C163.839 9.1261 163.406 9.24154 163.031 9.47244C162.684 9.67447 162.28 10.0641 161.818 10.6413C160.751 11.969 159.365 13.5131 157.662 15.2736ZM157.965 27.0058C157.965 27.4676 158.095 27.8428 158.355 28.1314C158.644 28.3912 159.033 28.5211 159.524 28.5211H165.975C166.696 28.5211 167.057 28.1603 167.057 27.4388V19.2998C167.057 18.5783 166.696 18.2175 165.975 18.2175H159.437C158.976 18.2175 158.615 18.3474 158.355 18.6071C158.095 18.8669 157.965 19.2421 157.965 19.7327V27.0058ZM169.828 27.4388C169.828 28.1603 170.188 28.5211 170.91 28.5211H177.404C177.894 28.5211 178.27 28.3912 178.529 28.1314C178.789 27.8428 178.919 27.4676 178.919 27.0058L178.962 19.7327C178.962 19.2421 178.832 18.8669 178.573 18.6071C178.313 18.3474 177.938 18.2175 177.447 18.2175H170.91C170.188 18.2175 169.828 18.5783 169.828 19.2998V27.4388ZM209.487 42.5642C212.676 40.0243 214.905 36.6238 216.175 32.3626C217.474 28.1013 218.207 23.3462 218.377 18.0972C218.405 17.6175 218.292 17.2506 218.038 16.9966C217.784 16.7427 217.431 16.6157 216.98 16.6157C216.415 16.6157 215.286 16.6862 213.593 16.8273C213.311 16.8555 213.085 16.785 212.916 16.6157C212.775 16.4181 212.704 16.2065 212.704 15.9807C212.704 15.7267 212.775 15.5151 212.916 15.3458C213.085 15.1764 213.311 15.1059 213.593 15.1341L216.937 15.3458C217.417 15.374 217.784 15.2611 218.038 15.0071C218.292 14.7249 218.419 14.3439 218.419 13.8642V13.0176C218.362 10.1956 218.334 8.36127 218.334 7.51466C218.334 6.80915 218.532 6.28708 218.927 5.94844C219.35 5.58158 219.872 5.39814 220.493 5.39814C221.001 5.39814 221.424 5.49691 221.763 5.69446C222.102 5.892 222.271 6.08954 222.271 6.28708C222.271 6.51284 222.045 6.63983 221.594 6.66805C221.424 6.69627 221.283 6.79504 221.17 6.96437C221.086 7.13369 221.043 7.31712 221.043 7.51466V11.79V13.9065C221.043 14.3863 221.17 14.7531 221.424 15.0071C221.678 15.2611 222.045 15.3881 222.525 15.3881H223.075C223.329 15.3881 223.555 15.3458 223.753 15.2611C223.95 15.1482 224.19 14.993 224.472 14.7955C224.952 14.4286 225.333 14.2452 225.615 14.2452C225.925 14.2452 226.321 14.3863 226.8 14.6685C227.308 14.9507 227.746 15.2752 228.113 15.6421C228.479 15.9807 228.663 16.2629 228.663 16.4887C228.663 16.6862 228.62 16.8414 228.536 16.9543C228.451 17.039 228.324 17.1519 228.155 17.293C227.929 17.4623 227.746 17.6457 227.605 17.8433C227.492 18.0408 227.435 18.3371 227.435 18.7322C227.407 23.2474 227.336 26.7891 227.224 29.3571C227.111 31.9251 226.829 34.3239 226.377 36.5533C225.925 38.7826 225.22 40.5605 224.26 41.8869C223.865 42.4513 223.428 42.8887 222.948 43.1991C222.497 43.5095 222.073 43.6647 221.678 43.6647C221.34 43.6647 221.043 43.5519 220.789 43.3261C220.535 43.1286 220.352 42.8181 220.239 42.3948C220.07 41.8586 219.745 41.4071 219.265 41.0403C218.814 40.6452 218.391 40.3348 217.996 40.109C217.601 39.8832 217.347 39.7421 217.234 39.6857C216.81 39.4599 216.599 39.1777 216.599 38.8391C216.599 38.6698 216.655 38.5287 216.768 38.4158C216.881 38.2747 217.036 38.2041 217.234 38.2041C217.318 38.2041 217.445 38.2324 217.615 38.2888C217.784 38.3452 217.996 38.444 218.25 38.5851C218.532 38.7262 218.729 38.825 218.842 38.8814C219.294 39.1354 219.661 39.3329 219.943 39.474C220.253 39.5869 220.55 39.6434 220.832 39.6434C221.255 39.6434 221.622 39.474 221.932 39.1354C222.976 37.9219 223.696 35.5938 224.091 32.1509C224.486 28.708 224.698 24.0094 224.726 18.0549C224.726 17.5752 224.599 17.2083 224.345 16.9543C224.091 16.7003 223.724 16.5733 223.245 16.5733H222.483C221.523 16.5733 221.015 17.0672 220.959 18.0549C220.818 21.8364 220.437 25.2369 219.816 28.2565C219.223 31.2479 218.151 34.0699 216.599 36.7226C215.075 39.3753 212.93 41.6893 210.164 43.6647C209.882 43.8623 209.628 43.9611 209.403 43.9611C209.261 43.9611 209.134 43.9187 209.022 43.8341C208.937 43.7494 208.895 43.6365 208.895 43.4954C208.895 43.185 209.092 42.8746 209.487 42.5642ZM201.571 25.0817C201.289 25.11 201.063 25.0394 200.894 24.8701C200.753 24.6725 200.682 24.4609 200.682 24.2351C200.682 23.9811 200.753 23.7695 200.894 23.6002C201.063 23.4309 201.289 23.3603 201.571 23.3885L203.18 23.5155C203.801 23.572 204.168 23.6002 204.281 23.6002C204.732 23.6002 205.071 23.4732 205.296 23.2192C205.55 22.9652 205.677 22.5984 205.677 22.1186V11.9593C205.677 11.5078 205.565 11.1551 205.339 10.9011C205.113 10.6189 204.789 10.4778 204.365 10.4778C204.252 10.4778 203.942 10.506 203.434 10.5624C202.192 10.6753 201.571 10.7318 201.571 10.7318C201.289 10.76 201.063 10.6894 200.894 10.5201C200.753 10.3226 200.682 10.1109 200.682 9.88516C200.682 9.63118 200.753 9.41952 200.894 9.2502C201.063 9.08088 201.289 9.01033 201.571 9.03855L203.815 9.20787C204.944 9.26431 205.621 9.29253 205.847 9.29253H207.286C207.85 9.29253 208.316 9.17965 208.683 8.95389C209.078 8.69991 209.487 8.36127 209.91 7.93796C210.531 7.31712 211.152 7.0067 211.773 7.0067C212.479 7.0067 213.255 7.45822 214.101 8.36127C214.412 8.72813 214.567 9.08088 214.567 9.41952C214.567 9.72995 214.44 9.98393 214.186 10.1815C213.932 10.379 213.565 10.4778 213.085 10.4778L209.868 10.5201C209.417 10.5201 209.05 10.6471 208.768 10.9011C208.514 11.1551 208.387 11.5219 208.387 12.0017V21.1873C208.387 21.78 208.471 22.2597 208.641 22.6266C208.81 22.9934 208.993 23.0922 209.191 22.9229C209.388 22.7818 209.628 22.5701 209.91 22.2879C210.531 21.6671 211.152 21.3567 211.773 21.3567C212.479 21.3567 213.255 21.8082 214.101 22.7112C214.412 23.0781 214.567 23.4309 214.567 23.7695C214.567 24.0799 214.44 24.3339 214.186 24.5314C213.932 24.729 213.565 24.8278 213.085 24.8278L209.868 24.8701C209.417 24.8701 209.05 24.9971 208.768 25.2511C208.514 25.505 208.387 25.8719 208.387 26.3516V34.2674C208.387 34.6625 208.471 34.987 208.641 35.241C208.81 35.4668 209.036 35.5797 209.318 35.5797C209.6 35.5797 209.882 35.4809 210.164 35.2833C211.011 34.7754 211.985 34.1122 213.085 33.2938C213.283 33.1527 213.452 33.0822 213.593 33.0822C213.734 33.0822 213.847 33.1386 213.932 33.2515C214.045 33.3644 214.101 33.4914 214.101 33.6325C214.101 33.8582 213.988 34.084 213.763 34.3097C210.517 37.2446 207.399 39.5023 204.408 41.0826C204.012 41.3084 203.744 41.4918 203.603 41.6329C203.49 41.774 203.49 41.9433 203.603 42.1409C203.66 42.2255 203.688 42.3384 203.688 42.4795C203.688 42.7617 203.547 42.9028 203.265 42.9028C203.208 42.9028 203.067 42.8746 202.841 42.8181C202.249 42.5924 201.797 42.282 201.487 41.8869C201.176 41.52 201.021 41.1249 201.021 40.7016C201.021 40.2783 201.19 39.8832 201.529 39.5164C201.868 39.1213 202.333 38.825 202.926 38.6274C203.519 38.4581 204.055 38.2747 204.535 38.0771C205.296 37.7667 205.677 37.2023 205.677 36.3839V26.3093C205.677 25.3216 205.367 24.8278 204.746 24.8278C204.605 24.8278 204.168 24.856 203.434 24.9124C202.418 25.0253 201.797 25.0817 201.571 25.0817ZM229.848 14.3298C229.848 14.0194 230.06 13.8642 230.483 13.8642C230.991 13.8642 231.4 13.9348 231.711 14.0759C232.049 14.217 232.388 14.4004 232.727 14.6262C233.065 14.8519 233.305 14.9648 233.446 14.9648H236.028C236.282 14.9648 236.522 14.9084 236.748 14.7955C237.002 14.6544 237.228 14.4992 237.425 14.3298C237.595 14.1887 237.778 14.0617 237.975 13.9489C238.173 13.8078 238.371 13.7372 238.568 13.7372C239.02 13.7372 239.471 13.8783 239.923 14.1605C240.402 14.4427 240.798 14.7673 241.108 15.1341C241.447 15.501 241.616 15.7973 241.616 16.0231C241.616 16.2206 241.574 16.3758 241.489 16.4887C241.404 16.5733 241.277 16.6862 241.108 16.8273C240.882 16.9966 240.699 17.1801 240.558 17.3776C240.445 17.5752 240.388 17.8715 240.388 18.2666V41.0826C240.388 41.6188 240.191 42.0421 239.796 42.3525C239.401 42.6629 238.963 42.8181 238.483 42.8181C238.06 42.8181 237.792 42.6347 237.679 42.2678C237.595 41.9292 237.552 41.2519 237.552 40.236C237.552 39.728 237.425 39.3329 237.171 39.0507C236.917 38.7403 236.55 38.5851 236.071 38.5851H234.039C233.559 38.5851 233.192 38.698 232.938 38.9237C232.684 39.1213 232.557 39.4176 232.557 39.8127C232.557 40.8851 232.374 41.647 232.007 42.0985C231.64 42.5783 231.203 42.8181 230.695 42.8181C230.13 42.8181 229.848 42.4936 229.848 41.8445V14.3298ZM232.557 35.9183C232.557 36.3698 232.684 36.7367 232.938 37.0189C233.22 37.2729 233.587 37.3999 234.039 37.3999L236.198 37.4422C236.677 37.4422 237.044 37.3152 237.298 37.0612C237.552 36.779 237.679 36.4122 237.679 35.9606V17.5893C237.679 17.1095 237.552 16.7427 237.298 16.4887C237.044 16.2347 236.677 16.1077 236.198 16.1077H234.039C233.587 16.1077 233.22 16.2347 232.938 16.4887C232.684 16.7427 232.557 17.1095 232.557 17.5893V35.9183ZM284.759 42.8941C284.759 43.4136 284.557 43.8321 284.153 44.1496C283.778 44.496 283.374 44.6691 282.941 44.6691C282.652 44.6691 282.407 44.5681 282.205 44.3661C282.032 44.1929 281.96 43.9332 281.988 43.5868V6.57185C281.988 5.85031 282.19 5.31637 282.595 4.97003C283.027 4.59483 283.561 4.40723 284.196 4.40723C284.716 4.40723 285.149 4.50825 285.495 4.71028C285.841 4.91231 286.015 5.11434 286.015 5.31637C286.015 5.54726 285.784 5.67714 285.322 5.706C285.149 5.73486 285.004 5.83588 284.889 6.00905C284.802 6.18222 284.759 6.36982 284.759 6.57185V11.8968C284.759 12.3586 284.889 12.7338 285.149 13.0224C285.437 13.2822 285.813 13.412 286.274 13.412H287.227C287.804 13.412 288.28 13.2966 288.655 13.0657C289.06 12.8059 289.478 12.4596 289.911 12.0267C290.546 11.3917 291.195 11.0743 291.859 11.0743C292.234 11.0743 292.609 11.1897 292.985 11.4206C293.418 11.7092 293.822 12.0555 294.197 12.4596C294.514 12.8348 294.673 13.1956 294.673 13.5419C294.673 13.8594 294.543 14.1192 294.283 14.3212C294.024 14.5232 293.648 14.6242 293.158 14.6242L286.274 14.6675C285.784 14.6675 285.409 14.7974 285.149 15.0572C284.889 15.3169 284.759 15.6777 284.759 16.1395V21.0315C284.759 21.4933 284.889 21.8685 285.149 22.1571C285.437 22.4169 285.813 22.5467 286.274 22.5467C286.909 22.5467 287.414 22.4313 287.79 22.2004C288.194 21.9406 288.612 21.5943 289.045 21.1614C289.68 20.5264 290.329 20.2089 290.993 20.2089C291.368 20.2089 291.744 20.3244 292.119 20.5553C292.552 20.8439 292.956 21.1902 293.331 21.5943C293.648 21.9695 293.807 22.3303 293.807 22.6766C293.807 22.9941 293.677 23.2538 293.418 23.4559C293.158 23.6579 292.783 23.7589 292.292 23.7589L286.274 23.8022C285.264 23.7445 284.759 24.2351 284.759 25.2741V29.8198C284.759 30.2816 284.889 30.6568 285.149 30.9454C285.437 31.2052 285.813 31.3351 286.274 31.3351H287.227C287.804 31.3351 288.28 31.2196 288.655 30.9887C289.06 30.729 289.478 30.3826 289.911 29.9497C290.546 29.3148 291.195 28.9973 291.859 28.9973C292.234 28.9973 292.609 29.1127 292.985 29.3436C293.418 29.6322 293.822 29.9786 294.197 30.3826C294.514 30.7578 294.673 31.1186 294.673 31.465C294.673 31.7824 294.543 32.0422 294.283 32.2442C294.024 32.4462 293.648 32.5473 293.158 32.5473L286.274 32.5906C285.784 32.5906 285.409 32.7204 285.149 32.9802C284.889 33.2399 284.759 33.6007 284.759 34.0625V42.8941ZM268.481 37.7423C268.048 37.598 267.688 37.3383 267.399 36.9631C267.11 36.559 266.966 36.1405 266.966 35.7076C266.966 34.8706 267.514 34.279 268.611 33.9326C270.862 33.2399 272.681 32.605 274.066 32.0278C274.441 31.8546 274.73 31.6381 274.932 31.3784C275.134 31.1186 275.264 30.7867 275.321 30.3826C275.466 29.1993 275.624 27.5254 275.798 25.3607C275.855 24.3217 275.35 23.8022 274.282 23.8022C273.186 23.8022 272.19 23.8311 271.295 23.8888C270.429 23.9465 269.852 23.9898 269.564 24.0187C269.275 24.0475 269.044 23.9754 268.871 23.8022C268.727 23.6002 268.654 23.3837 268.654 23.1528C268.654 22.8931 268.727 22.6766 268.871 22.5034C269.044 22.3303 269.275 22.2581 269.564 22.287C271.786 22.4313 273.402 22.5179 274.412 22.5467C275.394 22.5467 275.913 22.0417 275.971 21.0315C276 19.9925 276.014 18.3762 276.014 16.1828C276.014 15.2015 275.509 14.6819 274.499 14.6242C273.316 14.6242 271.93 14.682 270.343 14.7974L269.131 14.884C268.842 14.9128 268.611 14.8407 268.438 14.6675C268.294 14.4655 268.221 14.249 268.221 14.0181C268.221 13.7584 268.294 13.5419 268.438 13.3687C268.611 13.1956 268.842 13.1234 269.131 13.1523L270.083 13.1956C272.45 13.3399 273.922 13.412 274.499 13.412C274.989 13.412 275.365 13.2822 275.624 13.0224C275.884 12.7338 276.014 12.3586 276.014 11.8968V6.91819C276.014 6.22551 276.231 5.706 276.663 5.35966C277.125 4.98446 277.674 4.79686 278.309 4.79686C279.059 4.79686 279.636 5.04218 280.04 5.53283C280.127 5.61942 280.17 5.72043 280.17 5.83588C280.17 6.09563 280.055 6.22551 279.824 6.22551C279.506 6.22551 279.261 6.28323 279.088 6.39868C278.944 6.48526 278.871 6.73059 278.871 7.13465L278.915 16.0962C278.915 21.0026 278.756 24.8845 278.438 27.7418L278.395 28.2613C278.395 28.752 278.467 29.0983 278.612 29.3003C278.756 29.5024 278.958 29.5312 279.218 29.3869L280.257 28.7375C280.401 28.6221 280.56 28.5644 280.733 28.5644C280.964 28.5644 281.079 28.6942 281.079 28.954C281.079 29.2138 280.935 29.4735 280.646 29.7333L278.612 31.2918C278.121 31.6381 277.76 32.2009 277.529 32.9802C276.865 35.4911 275.884 37.6991 274.585 39.6039C273.316 41.5088 271.613 43.125 269.477 44.4527C269.275 44.597 269.058 44.6691 268.828 44.6691C268.712 44.6691 268.611 44.6258 268.524 44.5392C268.438 44.4815 268.395 44.3949 268.395 44.2795C268.395 44.0197 268.539 43.7888 268.828 43.5868C271.31 41.6242 273.099 38.8824 274.196 35.3613C274.225 35.3035 274.239 35.217 274.239 35.1015C274.239 34.8129 274.124 34.6686 273.893 34.6686C273.777 34.6686 273.647 34.7119 273.503 34.7985C272.637 35.2891 271.512 35.8375 270.126 36.4436C269.982 36.5013 269.78 36.5879 269.52 36.7033C269.289 36.7899 269.145 36.8765 269.087 36.9631C269.03 37.0208 269.03 37.1074 269.087 37.2228C269.116 37.2806 269.131 37.3671 269.131 37.4826C269.131 37.6269 269.073 37.7279 268.957 37.7856C268.842 37.8145 268.683 37.8001 268.481 37.7423ZM253.459 24.4949C253.17 24.5237 252.939 24.4516 252.766 24.2784C252.622 24.0764 252.55 23.8599 252.55 23.629C252.55 23.3693 252.622 23.1528 252.766 22.9797C252.939 22.8065 253.17 22.7343 253.459 22.7632L255.32 22.8931C255.898 22.9508 256.258 22.9797 256.403 22.9797C257.355 22.9797 257.831 22.4746 257.831 21.4644V11.7669C257.831 11.3051 257.716 10.9444 257.485 10.6846C257.254 10.4249 256.922 10.295 256.489 10.295C256.374 10.295 255.999 10.3239 255.364 10.3816L253.459 10.5115C253.17 10.5403 252.939 10.4682 252.766 10.295C252.622 10.093 252.55 9.8765 252.55 9.64561C252.55 9.38585 252.622 9.16939 252.766 8.99622C252.939 8.82305 253.17 8.7509 253.459 8.77976L255.753 8.95293C256.908 9.01065 257.6 9.03951 257.831 9.03951H259.606C260.184 9.03951 260.66 8.92407 261.035 8.69317C261.439 8.43342 261.857 8.08708 262.29 7.65416C262.925 7.0192 263.56 6.70172 264.195 6.70172C264.917 6.70172 265.71 7.16351 266.576 8.08708C266.894 8.46228 267.053 8.82305 267.053 9.16939C267.053 9.48687 266.923 9.74662 266.663 9.94865C266.403 10.1507 266.028 10.2517 265.537 10.2517L262.117 10.295C261.655 10.295 261.28 10.4249 260.992 10.6846C260.732 10.9444 260.602 11.3196 260.602 11.8102V20.5986C260.602 21.2335 260.689 21.7242 260.862 22.0705C261.064 22.4169 261.28 22.5034 261.511 22.3303C261.713 22.186 261.973 21.9551 262.29 21.6376C262.925 21.0026 263.56 20.6852 264.195 20.6852C264.917 20.6852 265.71 21.1469 266.576 22.0705C266.894 22.4457 267.053 22.8065 267.053 23.1528C267.053 23.4703 266.923 23.7301 266.663 23.9321C266.403 24.1341 266.028 24.2351 265.537 24.2351L262.117 24.2784C261.655 24.2784 261.28 24.4083 260.992 24.6681C260.732 24.9278 260.602 25.303 260.602 25.7937V35.3613C260.602 35.7653 260.689 36.0972 260.862 36.357C261.035 36.5879 261.266 36.7033 261.554 36.7033C261.785 36.7033 262.074 36.6023 262.42 36.4003C263.142 35.9962 264.181 35.3035 265.537 34.3223C265.739 34.1779 265.913 34.1058 266.057 34.1058C266.201 34.1058 266.317 34.1635 266.403 34.279C266.49 34.3944 266.533 34.5243 266.533 34.6686C266.533 34.9283 266.432 35.1592 266.23 35.3613C262.853 38.3629 259.563 40.6718 256.359 42.288C255.926 42.4901 255.652 42.6632 255.537 42.8076C255.421 42.9807 255.421 43.1683 255.537 43.3704C255.595 43.4569 255.623 43.5724 255.623 43.7167C255.623 44.0053 255.479 44.1496 255.19 44.1496C255.133 44.1496 254.988 44.1208 254.758 44.063C254.151 43.8321 253.69 43.5147 253.372 43.1106C253.055 42.7354 252.896 42.3313 252.896 41.8984C252.896 41.4366 253.055 41.0181 253.372 40.6429C253.719 40.2677 254.209 39.9791 254.844 39.7771C255.104 39.6905 255.696 39.4885 256.619 39.171C257.427 38.9112 257.831 38.334 257.831 37.4393V25.7504C257.831 24.7402 257.514 24.2351 256.879 24.2351C256.677 24.2351 256.201 24.264 255.45 24.3217C254.238 24.4372 253.574 24.4949 253.459 24.4949Z" fill="black"/>
</g>
</g>
<defs>
<filter id="filter0_d_129_36" x="95.3024" y="3.0894" width="202.675" height="44.8838" filterUnits="userSpaceOnUse" color-interpolation-filters="sRGB">
<feFlood flood-opacity="0" result="BackgroundImageFix"/>
<feColorMatrix in="SourceAlpha" type="matrix" values="0 0 0 0 0 0 0 0 0 0 0 0 0 0 0 0 0 0 127 0" result="hardAlpha"/>
<feOffset dx="1.10137" dy="1.10137"/>
<feGaussianBlur stdDeviation="1.10137"/>
<feComposite in2="hardAlpha" operator="out"/>
<feColorMatrix type="matrix" values="0 0 0 0 0 0 0 0 0 0 0 0 0 0 0 0 0 0 0.4 0"/>
<feBlend mode="normal" in2="BackgroundImageFix" result="effect1_dropShadow_129_36"/>
<feBlend mode="normal" in="SourceGraphic" in2="effect1_dropShadow_129_36" result="shape"/>
</filter>
<radialGradient id="paint0_radial_129_36" cx="0" cy="0" r="1" gradientUnits="userSpaceOnUse" gradientTransform="translate(45.4778 9.49634) rotate(132.359) scale(17.5805 17.5806)">
<stop stop-color="#96E2DD"/>
<stop offset="1" stop-color="#9AE4DF" stop-opacity="0"/>
</radialGradient>
<radialGradient id="paint1_radial_129_36" cx="0" cy="0" r="1" gradientUnits="userSpaceOnUse" gradientTransform="translate(46.8782 39.9845) rotate(-137.192) scale(17.544 17.5439)">
<stop stop-color="#D5B2EA"/>
<stop offset="1" stop-color="#D5B2EA" stop-opacity="0"/>
</radialGradient>
<radialGradient id="paint2_radial_129_36" cx="0" cy="0" r="1" gradientUnits="userSpaceOnUse" gradientTransform="translate(15.2908 41.0181) rotate(-45.4493) scale(17.1571 17.1571)">
<stop stop-color="#C4D4A6"/>
<stop offset="1" stop-color="#C4D4A6" stop-opacity="0"/>
</radialGradient>
<radialGradient id="paint3_radial_129_36" cx="0" cy="0" r="1" gradientUnits="userSpaceOnUse" gradientTransform="translate(14.2709 9.70391) rotate(44.8101) scale(17.5963 17.5963)">
<stop stop-color="#D8AAAA"/>
<stop offset="1" stop-color="#D8AAAA" stop-opacity="0"/>
</radialGradient>
</defs>
</svg>
