<svg width="84" height="351" viewBox="0 0 84 351" fill="none" xmlns="http://www.w3.org/2000/svg">
<mask id="mask0_129_12" style="mask-type:alpha" maskUnits="userSpaceOnUse" x="16" y="112" width="45" height="239">
<circle cx="38.329" cy="134.449" r="21.701" fill="#D9D9D9"/>
<circle cx="38.1324" cy="264.047" r="21.701" fill="#D9D9D9"/>
<circle cx="38.7308" cy="200.748" r="21.701" fill="#D9D9D9"/>
<circle cx="38.5341" cy="328.346" r="21.701" fill="#D9D9D9"/>
</mask>
<g mask="url(#mask0_129_12)">
<path d="M25.4479 135.838C24.2479 135.838 22.7929 135.898 21.0829 136.018L20.0029 136.108C19.7029 136.138 19.4629 136.063 19.2829 135.883C19.1329 135.673 19.0579 135.448 19.0579 135.208C19.0579 134.938 19.1329 134.713 19.2829 134.533C19.4629 134.353 19.7029 134.278 20.0029 134.308L21.0829 134.398C22.9729 134.518 24.4279 134.578 25.4479 134.578H35.3929C35.9029 134.578 36.2929 134.443 36.5629 134.173C36.8329 133.873 36.9679 133.483 36.9679 133.003V118.063C36.9679 117.313 37.1779 116.758 37.5979 116.398C38.0479 116.008 38.6029 115.813 39.2629 115.813C39.8029 115.813 40.2529 115.918 40.6129 116.128C40.9729 116.338 41.1529 116.548 41.1529 116.758C41.1529 116.998 40.9129 117.133 40.4329 117.163C40.2529 117.193 40.1029 117.298 39.9829 117.478C39.8929 117.658 39.8479 117.853 39.8479 118.063V133.003C39.8479 133.483 39.9829 133.873 40.2529 134.173C40.5529 134.443 40.9429 134.578 41.4229 134.578H51.2779C51.8779 134.578 52.3729 134.458 52.7629 134.218C53.1829 133.948 53.6179 133.588 54.0679 133.138C54.7279 132.478 55.4029 132.148 56.0929 132.148C56.4829 132.148 56.8729 132.268 57.2629 132.508C57.7129 132.808 58.1329 133.168 58.5229 133.588C58.8529 133.978 59.0179 134.353 59.0179 134.713C59.0179 135.043 58.8829 135.313 58.6129 135.523C58.3429 135.733 57.9529 135.838 57.4429 135.838L41.4229 135.883C40.9429 135.883 40.5529 136.018 40.2529 136.288C39.9829 136.558 39.8479 136.948 39.8479 137.458V152.353C39.8479 152.893 39.6379 153.328 39.2179 153.658C38.8279 154.018 38.4079 154.198 37.9579 154.198C37.6579 154.198 37.4029 154.093 37.1929 153.883C37.0129 153.703 36.9379 153.433 36.9679 153.073V137.413C36.9679 136.903 36.8329 136.513 36.5629 136.243C36.2929 135.973 35.9029 135.838 35.3929 135.838H25.4479ZM19.2829 196.068C21.6229 194.178 23.8579 191.898 25.9879 189.228C28.1179 186.528 29.8129 183.393 31.0729 179.823C31.2229 179.373 31.4929 179.028 31.8829 178.788C32.2729 178.518 32.6929 178.383 33.1429 178.383C33.8929 178.383 34.5079 178.668 34.9879 179.238C35.1979 179.448 35.3029 179.658 35.3029 179.868C35.3029 179.988 35.2429 180.093 35.1229 180.183C35.0329 180.273 34.9129 180.318 34.7629 180.318C34.3129 180.318 33.9529 180.678 33.6829 181.398C33.6529 181.458 33.6379 181.548 33.6379 181.668C33.6379 182.028 33.8779 182.208 34.3579 182.208H39.7129C40.0729 182.208 40.4029 182.148 40.7029 182.028C41.0029 181.908 41.3329 181.713 41.6929 181.443C42.0229 181.173 42.3679 181.038 42.7279 181.038C43.0279 181.038 43.3129 181.128 43.5829 181.308C44.7229 182.028 45.2929 182.718 45.2929 183.378C45.2929 183.618 45.2329 183.798 45.1129 183.918C45.0229 184.038 44.8579 184.188 44.6179 184.368C44.1379 184.608 43.7179 184.983 43.3579 185.493C41.9179 187.503 40.5979 189.108 39.3979 190.308C39.0979 190.578 38.9479 190.833 38.9479 191.073C38.9479 191.253 39.0229 191.403 39.1729 191.523C39.3529 191.613 39.5929 191.658 39.8929 191.658H47.9479C48.2179 191.628 48.4579 191.553 48.6679 191.433C48.9079 191.283 49.1629 191.088 49.4329 190.848C49.8829 190.398 50.2579 190.173 50.5579 190.173C51.0379 190.143 51.5329 190.263 52.0429 190.533C52.5829 190.773 53.0329 191.088 53.3929 191.478C53.7529 191.838 53.9479 192.138 53.9779 192.378C54.0079 192.588 53.9779 192.753 53.8879 192.873C53.7979 192.963 53.6479 193.098 53.4379 193.278C53.1679 193.518 52.9579 193.743 52.8079 193.953C52.6879 194.133 52.6279 194.433 52.6279 194.853L52.6729 204.573C52.6729 205.083 52.4779 205.518 52.0879 205.878C51.6979 206.238 51.2929 206.418 50.8729 206.418C50.3029 206.418 49.9279 206.148 49.7479 205.608C49.5979 205.188 49.3579 204.978 49.0279 204.978L29.5429 204.933C29.0329 204.933 28.6279 205.083 28.3279 205.383C28.0579 205.653 27.9229 206.028 27.9229 206.508V213.168C27.9229 214.848 28.2679 215.913 28.9579 216.363C29.4079 216.663 30.6829 216.888 32.7829 217.038C34.8829 217.218 37.3129 217.308 40.0729 217.308C42.8929 217.308 45.5029 217.218 47.9029 217.038C50.3029 216.858 51.8029 216.633 52.4029 216.363C53.3929 215.853 53.8879 214.473 53.8879 212.223L53.8429 210.243C53.8429 209.883 53.9029 209.613 54.0229 209.433C54.1429 209.223 54.2929 209.118 54.4729 209.118C54.6529 209.118 54.8029 209.223 54.9229 209.433C55.0429 209.613 55.1029 209.898 55.1029 210.288L55.0579 211.548C55.0579 212.508 55.1779 213.123 55.4179 213.393C55.6279 213.633 55.8079 213.978 55.9579 214.428C56.1079 214.878 56.1829 215.358 56.1829 215.868C56.1829 217.038 55.6129 217.893 54.4729 218.433C53.5429 218.883 51.7729 219.228 49.1629 219.468C46.5829 219.708 43.7179 219.828 40.5679 219.828C37.5379 219.828 34.7779 219.708 32.2879 219.468C29.7979 219.258 28.1779 218.973 27.4279 218.613C26.4679 218.043 25.8229 217.383 25.4929 216.633C25.1629 215.883 24.9979 214.923 24.9979 213.753V194.358C24.9979 193.728 24.7879 193.413 24.3679 193.413C24.0979 193.413 23.8429 193.533 23.6029 193.773C22.1629 195.063 20.9029 196.083 19.8229 196.833C19.6729 196.953 19.5079 197.013 19.3279 197.013C19.0879 197.013 18.9679 196.893 18.9679 196.653C18.9679 196.443 19.0729 196.248 19.2829 196.068ZM27.6079 189.903C27.3079 190.203 27.1579 190.503 27.1579 190.803C27.1579 190.983 27.2479 191.148 27.4279 191.298C27.7279 191.538 27.9829 191.658 28.1929 191.658H35.3029C35.8729 191.658 36.3379 191.478 36.6979 191.118C37.6579 190.218 38.4679 189.228 39.1279 188.148C39.7879 187.038 40.2229 186.093 40.4329 185.313C40.4629 185.193 40.4779 185.043 40.4779 184.863C40.4779 184.473 40.3429 184.158 40.0729 183.918C39.8029 183.648 39.4579 183.513 39.0379 183.513H34.5379C34.0279 183.513 33.5779 183.633 33.1879 183.873C32.8279 184.083 32.4079 184.488 31.9279 185.088C30.8179 186.468 29.3779 188.073 27.6079 189.903ZM27.9229 202.098C27.9229 202.578 28.0579 202.968 28.3279 203.268C28.6279 203.538 29.0329 203.673 29.5429 203.673H36.2479C36.9979 203.673 37.3729 203.298 37.3729 202.548V194.088C37.3729 193.338 36.9979 192.963 36.2479 192.963H29.4529C28.9729 192.963 28.5979 193.098 28.3279 193.368C28.0579 193.638 27.9229 194.028 27.9229 194.538V202.098ZM40.2529 202.548C40.2529 203.298 40.6279 203.673 41.3779 203.673H48.1279C48.6379 203.673 49.0279 203.538 49.2979 203.268C49.5679 202.968 49.7029 202.578 49.7029 202.098L49.7479 194.538C49.7479 194.028 49.6129 193.638 49.3429 193.368C49.0729 193.098 48.6829 192.963 48.1729 192.963H41.3779C40.6279 192.963 40.2529 193.338 40.2529 194.088V202.548ZM26.3519 282.27C29.6666 279.63 31.9839 276.095 33.3039 271.666C34.6533 267.236 35.4159 262.294 35.5919 256.838C35.6213 256.339 35.5039 255.958 35.2399 255.694C34.9759 255.43 34.6093 255.298 34.1399 255.298C33.5533 255.298 32.3799 255.371 30.6199 255.518C30.3266 255.547 30.0919 255.474 29.9159 255.298C29.7693 255.092 29.6959 254.872 29.6959 254.638C29.6959 254.374 29.7693 254.154 29.9159 253.978C30.0919 253.802 30.3266 253.728 30.6199 253.758L34.0959 253.978C34.5946 254.007 34.9759 253.89 35.2399 253.626C35.5039 253.332 35.6359 252.936 35.6359 252.438V251.558C35.5773 248.624 35.5479 246.718 35.5479 245.838C35.5479 245.104 35.7533 244.562 36.1639 244.21C36.6039 243.828 37.1466 243.638 37.7919 243.638C38.3199 243.638 38.7599 243.74 39.1119 243.946C39.4639 244.151 39.6399 244.356 39.6399 244.562C39.6399 244.796 39.4053 244.928 38.9359 244.958C38.7599 244.987 38.6133 245.09 38.4959 245.266C38.4079 245.442 38.3639 245.632 38.3639 245.838V250.282V252.482C38.3639 252.98 38.4959 253.362 38.7599 253.626C39.0239 253.89 39.4053 254.022 39.9039 254.022H40.4759C40.7399 254.022 40.9746 253.978 41.1799 253.89C41.3853 253.772 41.6346 253.611 41.9279 253.406C42.4266 253.024 42.8226 252.834 43.1159 252.834C43.4386 252.834 43.8493 252.98 44.3479 253.274C44.8759 253.567 45.3306 253.904 45.7119 254.286C46.0933 254.638 46.2839 254.931 46.2839 255.166C46.2839 255.371 46.2399 255.532 46.1519 255.65C46.0639 255.738 45.9319 255.855 45.7559 256.002C45.5213 256.178 45.3306 256.368 45.1839 256.574C45.0666 256.779 45.0079 257.087 45.0079 257.498C44.9786 262.191 44.9053 265.872 44.7879 268.542C44.6706 271.211 44.3773 273.704 43.9079 276.022C43.4386 278.339 42.7053 280.187 41.7079 281.566C41.2973 282.152 40.8426 282.607 40.3439 282.93C39.8746 283.252 39.4346 283.414 39.0239 283.414C38.6719 283.414 38.3639 283.296 38.0999 283.062C37.8359 282.856 37.6453 282.534 37.5279 282.094C37.3519 281.536 37.0146 281.067 36.5159 280.686C36.0466 280.275 35.6066 279.952 35.1959 279.718C34.7853 279.483 34.5213 279.336 34.4039 279.278C33.9639 279.043 33.7439 278.75 33.7439 278.398C33.7439 278.222 33.8026 278.075 33.9199 277.958C34.0373 277.811 34.1986 277.738 34.4039 277.738C34.4919 277.738 34.6239 277.767 34.7999 277.826C34.9759 277.884 35.1959 277.987 35.4599 278.134C35.7533 278.28 35.9586 278.383 36.0759 278.442C36.5453 278.706 36.9266 278.911 37.2199 279.058C37.5426 279.175 37.8506 279.234 38.1439 279.234C38.5839 279.234 38.9653 279.058 39.2879 278.706C40.3733 277.444 41.1213 275.024 41.5319 271.446C41.9426 267.867 42.1626 262.983 42.1919 256.794C42.1919 256.295 42.0599 255.914 41.7959 255.65C41.5319 255.386 41.1506 255.254 40.6519 255.254H39.8599C38.8626 255.254 38.3346 255.767 38.2759 256.794C38.1293 260.724 37.7333 264.259 37.0879 267.398C36.4719 270.507 35.3573 273.44 33.7439 276.198C32.1599 278.955 29.9306 281.36 27.0559 283.414C26.7626 283.619 26.4986 283.722 26.2639 283.722C26.1173 283.722 25.9853 283.678 25.8679 283.59C25.7799 283.502 25.7359 283.384 25.7359 283.238C25.7359 282.915 25.9413 282.592 26.3519 282.27ZM18.1239 264.098C17.8306 264.127 17.5959 264.054 17.4199 263.878C17.2733 263.672 17.1999 263.452 17.1999 263.218C17.1999 262.954 17.2733 262.734 17.4199 262.558C17.5959 262.382 17.8306 262.308 18.1239 262.338L19.7959 262.47C20.4413 262.528 20.8226 262.558 20.9399 262.558C21.4093 262.558 21.7613 262.426 21.9959 262.162C22.2599 261.898 22.3919 261.516 22.3919 261.018V250.458C22.3919 249.988 22.2746 249.622 22.0399 249.358C21.8053 249.064 21.4679 248.918 21.0279 248.918C20.9106 248.918 20.5879 248.947 20.0599 249.006C18.7693 249.123 18.1239 249.182 18.1239 249.182C17.8306 249.211 17.5959 249.138 17.4199 248.962C17.2733 248.756 17.1999 248.536 17.1999 248.302C17.1999 248.038 17.2733 247.818 17.4199 247.642C17.5959 247.466 17.8306 247.392 18.1239 247.422L20.4559 247.598C21.6293 247.656 22.3333 247.686 22.5679 247.686H24.0639C24.6506 247.686 25.1346 247.568 25.5159 247.334C25.9266 247.07 26.3519 246.718 26.7919 246.278C27.4373 245.632 28.0826 245.31 28.7279 245.31C29.4613 245.31 30.2679 245.779 31.1479 246.718C31.4706 247.099 31.6319 247.466 31.6319 247.818C31.6319 248.14 31.4999 248.404 31.2359 248.61C30.9719 248.815 30.5906 248.918 30.0919 248.918L26.7479 248.962C26.2786 248.962 25.8973 249.094 25.6039 249.358C25.3399 249.622 25.2079 250.003 25.2079 250.502V260.05C25.2079 260.666 25.2959 261.164 25.4719 261.546C25.6479 261.927 25.8386 262.03 26.0439 261.854C26.2493 261.707 26.4986 261.487 26.7919 261.194C27.4373 260.548 28.0826 260.226 28.7279 260.226C29.4613 260.226 30.2679 260.695 31.1479 261.634C31.4706 262.015 31.6319 262.382 31.6319 262.734C31.6319 263.056 31.4999 263.32 31.2359 263.526C30.9719 263.731 30.5906 263.834 30.0919 263.834L26.7479 263.878C26.2786 263.878 25.8973 264.01 25.6039 264.274C25.3399 264.538 25.2079 264.919 25.2079 265.418V273.646C25.2079 274.056 25.2959 274.394 25.4719 274.658C25.6479 274.892 25.8826 275.01 26.1759 275.01C26.4693 275.01 26.7626 274.907 27.0559 274.702C27.9359 274.174 28.9479 273.484 30.0919 272.634C30.2973 272.487 30.4733 272.414 30.6199 272.414C30.7666 272.414 30.8839 272.472 30.9719 272.59C31.0893 272.707 31.1479 272.839 31.1479 272.986C31.1479 273.22 31.0306 273.455 30.7959 273.69C27.4226 276.74 24.1813 279.087 21.0719 280.73C20.6613 280.964 20.3826 281.155 20.2359 281.302C20.1186 281.448 20.1186 281.624 20.2359 281.83C20.2946 281.918 20.3239 282.035 20.3239 282.182C20.3239 282.475 20.1773 282.622 19.8839 282.622C19.8253 282.622 19.6786 282.592 19.4439 282.534C18.8279 282.299 18.3586 281.976 18.0359 281.566C17.7133 281.184 17.5519 280.774 17.5519 280.334C17.5519 279.894 17.7279 279.483 18.0799 279.102C18.4319 278.691 18.9159 278.383 19.5319 278.178C20.1479 278.002 20.7053 277.811 21.2039 277.606C21.9959 277.283 22.3919 276.696 22.3919 275.846V265.374C22.3919 264.347 22.0693 263.834 21.4239 263.834C21.2773 263.834 20.8226 263.863 20.0599 263.922C19.0039 264.039 18.3586 264.098 18.1239 264.098ZM47.5159 252.922C47.5159 252.599 47.7359 252.438 48.1759 252.438C48.7039 252.438 49.1293 252.511 49.4519 252.658C49.8039 252.804 50.1559 252.995 50.5079 253.23C50.8599 253.464 51.1093 253.582 51.2559 253.582H53.9399C54.2039 253.582 54.4533 253.523 54.6879 253.406C54.9519 253.259 55.1866 253.098 55.3919 252.922C55.5679 252.775 55.7586 252.643 55.9639 252.526C56.1693 252.379 56.3746 252.306 56.5799 252.306C57.0493 252.306 57.5186 252.452 57.9879 252.746C58.4866 253.039 58.8973 253.376 59.2199 253.758C59.5719 254.139 59.7479 254.447 59.7479 254.682C59.7479 254.887 59.7039 255.048 59.6159 255.166C59.5279 255.254 59.3959 255.371 59.2199 255.518C58.9853 255.694 58.7946 255.884 58.6479 256.09C58.5306 256.295 58.4719 256.603 58.4719 257.014V280.73C58.4719 281.287 58.2666 281.727 57.8559 282.05C57.4453 282.372 56.9906 282.534 56.4919 282.534C56.0519 282.534 55.7733 282.343 55.6559 281.962C55.5679 281.61 55.5239 280.906 55.5239 279.85C55.5239 279.322 55.3919 278.911 55.1279 278.618C54.8639 278.295 54.4826 278.134 53.9839 278.134H51.8719C51.3733 278.134 50.9919 278.251 50.7279 278.486C50.4639 278.691 50.3319 278.999 50.3319 279.41C50.3319 280.524 50.1413 281.316 49.7599 281.786C49.3786 282.284 48.9239 282.534 48.3959 282.534C47.8093 282.534 47.5159 282.196 47.5159 281.522V252.922ZM50.3319 275.362C50.3319 275.831 50.4639 276.212 50.7279 276.506C51.0213 276.77 51.4026 276.902 51.8719 276.902L54.1159 276.946C54.6146 276.946 54.9959 276.814 55.2599 276.55C55.5239 276.256 55.6559 275.875 55.6559 275.406V256.31C55.6559 255.811 55.5239 255.43 55.2599 255.166C54.9959 254.902 54.6146 254.77 54.1159 254.77H51.8719C51.4026 254.77 51.0213 254.902 50.7279 255.166C50.4639 255.43 50.3319 255.811 50.3319 256.31V275.362ZM50.6929 347.613C50.6929 348.153 50.4829 348.588 50.0629 348.918C49.6729 349.278 49.2529 349.458 48.8029 349.458C48.5029 349.458 48.2479 349.353 48.0379 349.143C47.8579 348.963 47.7829 348.693 47.8129 348.333V309.858C47.8129 309.108 48.0229 308.553 48.4429 308.193C48.8929 307.803 49.4479 307.608 50.1079 307.608C50.6479 307.608 51.0979 307.713 51.4579 307.923C51.8179 308.133 51.9979 308.343 51.9979 308.553C51.9979 308.793 51.7579 308.928 51.2779 308.958C51.0979 308.988 50.9479 309.093 50.8279 309.273C50.7379 309.453 50.6929 309.648 50.6929 309.858V315.393C50.6929 315.873 50.8279 316.263 51.0979 316.563C51.3979 316.833 51.7879 316.968 52.2679 316.968H53.2579C53.8579 316.968 54.3529 316.848 54.7429 316.608C55.1629 316.338 55.5979 315.978 56.0479 315.528C56.7079 314.868 57.3829 314.538 58.0729 314.538C58.4629 314.538 58.8529 314.658 59.2429 314.898C59.6929 315.198 60.1129 315.558 60.5029 315.978C60.8329 316.368 60.9979 316.743 60.9979 317.103C60.9979 317.433 60.8629 317.703 60.5929 317.913C60.3229 318.123 59.9329 318.228 59.4229 318.228L52.2679 318.273C51.7579 318.273 51.3679 318.408 51.0979 318.678C50.8279 318.948 50.6929 319.323 50.6929 319.803V324.888C50.6929 325.368 50.8279 325.758 51.0979 326.058C51.3979 326.328 51.7879 326.463 52.2679 326.463C52.9279 326.463 53.4529 326.343 53.8429 326.103C54.2629 325.833 54.6979 325.473 55.1479 325.023C55.8079 324.363 56.4829 324.033 57.1729 324.033C57.5629 324.033 57.9529 324.153 58.3429 324.393C58.7929 324.693 59.2129 325.053 59.6029 325.473C59.9329 325.863 60.0979 326.238 60.0979 326.598C60.0979 326.928 59.9629 327.198 59.6929 327.408C59.4229 327.618 59.0329 327.723 58.5229 327.723L52.2679 327.768C51.2179 327.708 50.6929 328.218 50.6929 329.298V334.023C50.6929 334.503 50.8279 334.893 51.0979 335.193C51.3979 335.463 51.7879 335.598 52.2679 335.598H53.2579C53.8579 335.598 54.3529 335.478 54.7429 335.238C55.1629 334.968 55.5979 334.608 56.0479 334.158C56.7079 333.498 57.3829 333.168 58.0729 333.168C58.4629 333.168 58.8529 333.288 59.2429 333.528C59.6929 333.828 60.1129 334.188 60.5029 334.608C60.8329 334.998 60.9979 335.373 60.9979 335.733C60.9979 336.063 60.8629 336.333 60.5929 336.543C60.3229 336.753 59.9329 336.858 59.4229 336.858L52.2679 336.903C51.7579 336.903 51.3679 337.038 51.0979 337.308C50.8279 337.578 50.6929 337.953 50.6929 338.433V347.613ZM33.7729 342.258C33.3229 342.108 32.9479 341.838 32.6479 341.448C32.3479 341.028 32.1979 340.593 32.1979 340.143C32.1979 339.273 32.7679 338.658 33.9079 338.298C36.2479 337.578 38.1379 336.918 39.5779 336.318C39.9679 336.138 40.2679 335.913 40.4779 335.643C40.6879 335.373 40.8229 335.028 40.8829 334.608C41.0329 333.378 41.1979 331.638 41.3779 329.388C41.4379 328.308 40.9129 327.768 39.8029 327.768C38.6629 327.768 37.6279 327.798 36.6979 327.858C35.7979 327.918 35.1979 327.963 34.8979 327.993C34.5979 328.023 34.3579 327.948 34.1779 327.768C34.0279 327.558 33.9529 327.333 33.9529 327.093C33.9529 326.823 34.0279 326.598 34.1779 326.418C34.3579 326.238 34.5979 326.163 34.8979 326.193C37.2079 326.343 38.8879 326.433 39.9379 326.463C40.9579 326.463 41.4979 325.938 41.5579 324.888C41.5879 323.808 41.6029 322.128 41.6029 319.848C41.6029 318.828 41.0779 318.288 40.0279 318.228C38.7979 318.228 37.3579 318.288 35.7079 318.408L34.4479 318.498C34.1479 318.528 33.9079 318.453 33.7279 318.273C33.5779 318.063 33.5029 317.838 33.5029 317.598C33.5029 317.328 33.5779 317.103 33.7279 316.923C33.9079 316.743 34.1479 316.668 34.4479 316.698L35.4379 316.743C37.8979 316.893 39.4279 316.968 40.0279 316.968C40.5379 316.968 40.9279 316.833 41.1979 316.563C41.4679 316.263 41.6029 315.873 41.6029 315.393V310.218C41.6029 309.498 41.8279 308.958 42.2779 308.598C42.7579 308.208 43.3279 308.013 43.9879 308.013C44.7679 308.013 45.3679 308.268 45.7879 308.778C45.8779 308.868 45.9229 308.973 45.9229 309.093C45.9229 309.363 45.8029 309.498 45.5629 309.498C45.2329 309.498 44.9779 309.558 44.7979 309.678C44.6479 309.768 44.5729 310.023 44.5729 310.443L44.6179 319.758C44.6179 324.858 44.4529 328.893 44.1229 331.863L44.0779 332.403C44.0779 332.913 44.1529 333.273 44.3029 333.483C44.4529 333.693 44.6629 333.723 44.9329 333.573L46.0129 332.898C46.1629 332.778 46.3279 332.718 46.5079 332.718C46.7479 332.718 46.8679 332.853 46.8679 333.123C46.8679 333.393 46.7179 333.663 46.4179 333.933L44.3029 335.553C43.7929 335.913 43.4179 336.498 43.1779 337.308C42.4879 339.918 41.4679 342.213 40.1179 344.193C38.7979 346.173 37.0279 347.853 34.8079 349.233C34.5979 349.383 34.3729 349.458 34.1329 349.458C34.0129 349.458 33.9079 349.413 33.8179 349.323C33.7279 349.263 33.6829 349.173 33.6829 349.053C33.6829 348.783 33.8329 348.543 34.1329 348.333C36.7129 346.293 38.5729 343.443 39.7129 339.783C39.7429 339.723 39.7579 339.633 39.7579 339.513C39.7579 339.213 39.6379 339.063 39.3979 339.063C39.2779 339.063 39.1429 339.108 38.9929 339.198C38.0929 339.708 36.9229 340.278 35.4829 340.908C35.3329 340.968 35.1229 341.058 34.8529 341.178C34.6129 341.268 34.4629 341.358 34.4029 341.448C34.3429 341.508 34.3429 341.598 34.4029 341.718C34.4329 341.778 34.4479 341.868 34.4479 341.988C34.4479 342.138 34.3879 342.243 34.2679 342.303C34.1479 342.333 33.9829 342.318 33.7729 342.258ZM18.1579 328.488C17.8579 328.518 17.6179 328.443 17.4379 328.263C17.2879 328.053 17.2129 327.828 17.2129 327.588C17.2129 327.318 17.2879 327.093 17.4379 326.913C17.6179 326.733 17.8579 326.658 18.1579 326.688L20.0929 326.823C20.6929 326.883 21.0679 326.913 21.2179 326.913C22.2079 326.913 22.7029 326.388 22.7029 325.338V315.258C22.7029 314.778 22.5829 314.403 22.3429 314.133C22.1029 313.863 21.7579 313.728 21.3079 313.728C21.1879 313.728 20.7979 313.758 20.1379 313.818L18.1579 313.953C17.8579 313.983 17.6179 313.908 17.4379 313.728C17.2879 313.518 17.2129 313.293 17.2129 313.053C17.2129 312.783 17.2879 312.558 17.4379 312.378C17.6179 312.198 17.8579 312.123 18.1579 312.153L20.5429 312.333C21.7429 312.393 22.4629 312.423 22.7029 312.423H24.5479C25.1479 312.423 25.6429 312.303 26.0329 312.063C26.4529 311.793 26.8879 311.433 27.3379 310.983C27.9979 310.323 28.6579 309.993 29.3179 309.993C30.0679 309.993 30.8929 310.473 31.7929 311.433C32.1229 311.823 32.2879 312.198 32.2879 312.558C32.2879 312.888 32.1529 313.158 31.8829 313.368C31.6129 313.578 31.2229 313.683 30.7129 313.683L27.1579 313.728C26.6779 313.728 26.2879 313.863 25.9879 314.133C25.7179 314.403 25.5829 314.793 25.5829 315.303V324.438C25.5829 325.098 25.6729 325.608 25.8529 325.968C26.0629 326.328 26.2879 326.418 26.5279 326.238C26.7379 326.088 27.0079 325.848 27.3379 325.518C27.9979 324.858 28.6579 324.528 29.3179 324.528C30.0679 324.528 30.8929 325.008 31.7929 325.968C32.1229 326.358 32.2879 326.733 32.2879 327.093C32.2879 327.423 32.1529 327.693 31.8829 327.903C31.6129 328.113 31.2229 328.218 30.7129 328.218L27.1579 328.263C26.6779 328.263 26.2879 328.398 25.9879 328.668C25.7179 328.938 25.5829 329.328 25.5829 329.838V339.783C25.5829 340.203 25.6729 340.548 25.8529 340.818C26.0329 341.058 26.2729 341.178 26.5729 341.178C26.8129 341.178 27.1129 341.073 27.4729 340.863C28.2229 340.443 29.3029 339.723 30.7129 338.703C30.9229 338.553 31.1029 338.478 31.2529 338.478C31.4029 338.478 31.5229 338.538 31.6129 338.658C31.7029 338.778 31.7479 338.913 31.7479 339.063C31.7479 339.333 31.6429 339.573 31.4329 339.783C27.9229 342.903 24.5029 345.303 21.1729 346.983C20.7229 347.193 20.4379 347.373 20.3179 347.523C20.1979 347.703 20.1979 347.898 20.3179 348.108C20.3779 348.198 20.4079 348.318 20.4079 348.468C20.4079 348.768 20.2579 348.918 19.9579 348.918C19.8979 348.918 19.7479 348.888 19.5079 348.828C18.8779 348.588 18.3979 348.258 18.0679 347.838C17.7379 347.448 17.5729 347.028 17.5729 346.578C17.5729 346.098 17.7379 345.663 18.0679 345.273C18.4279 344.883 18.9379 344.583 19.5979 344.373C19.8679 344.283 20.4829 344.073 21.4429 343.743C22.2829 343.473 22.7029 342.873 22.7029 341.943V329.793C22.7029 328.743 22.3729 328.218 21.7129 328.218C21.5029 328.218 21.0079 328.248 20.2279 328.308C18.9679 328.428 18.2779 328.488 18.1579 328.488Z" fill="black"/>
</g>
<path d="M63.7833 30.9601C63.7833 27.4614 63.0941 23.9969 61.7551 20.7645C60.4161 17.5321 58.4535 14.595 55.9794 12.121C53.5053 9.64704 50.568 7.68456 47.3354 6.34565C44.1028 5.00674 40.6381 4.31761 37.1391 4.31761L37.1391 30.9601H63.7833Z" fill="url(#paint0_radial_129_12)"/>
<path d="M63.7833 30.9601C63.7833 34.4588 63.0941 37.9233 61.7551 41.1557C60.4161 44.3881 58.4535 47.3252 55.9794 49.7992C53.5053 52.2731 50.568 54.2356 47.3354 55.5745C44.1028 56.9134 40.6381 57.6026 37.1391 57.6026L37.1391 30.9601H63.7833Z" fill="url(#paint1_radial_129_12)"/>
<path d="M10.4953 30.96C10.4953 34.4587 11.1844 37.9232 12.5234 41.1556C13.8624 44.3881 15.825 47.3251 18.2992 49.7991C20.7733 52.2731 23.7105 54.2355 26.9432 55.5745C30.1758 56.9134 33.6405 57.6025 37.1395 57.6025L37.1395 30.96L10.4953 30.96Z" fill="url(#paint2_radial_129_12)"/>
<path d="M37.1391 4.31756C33.6401 4.31756 30.1754 5.00669 26.9428 6.3456C23.7102 7.68451 20.7729 9.64698 18.2988 12.121C15.8246 14.595 13.862 17.532 12.523 20.7644C11.184 23.9968 10.4949 27.4613 10.4949 30.9601L37.1391 30.9601V4.31756Z" fill="url(#paint3_radial_129_12)"/>
<rect x="1.50439" y="1.2243" width="73.8545" height="59.4715" rx="29.7357" stroke="black" stroke-width="1.5"/>
<path d="M82.9224 30.96C82.9224 34.0594 81.9892 36.8359 80.5168 38.8202C79.0444 40.8045 77.0698 41.958 74.955 41.958C72.8402 41.958 70.8655 40.8045 69.3931 38.8202C67.9207 36.8359 66.9875 34.0594 66.9875 30.96C66.9875 27.8607 67.9207 25.0842 69.3931 23.0999C70.8655 21.1156 72.8402 19.9621 74.955 19.9621C77.0698 19.9621 79.0444 21.1156 80.5168 23.0999C81.9892 25.0842 82.9224 27.8607 82.9224 30.96Z" stroke="black" stroke-width="1.5"/>
<defs>
<radialGradient id="paint0_radial_129_12" cx="0" cy="0" r="1" gradientUnits="userSpaceOnUse" gradientTransform="translate(55.3396 11.6958) rotate(132.359) scale(21.2623 21.2624)">
<stop stop-color="#96E2DD"/>
<stop offset="1" stop-color="#9AE4DF" stop-opacity="0"/>
</radialGradient>
<radialGradient id="paint1_radial_129_12" cx="0" cy="0" r="1" gradientUnits="userSpaceOnUse" gradientTransform="translate(57.0332 48.5688) rotate(-137.192) scale(21.2181 21.218)">
<stop stop-color="#D5B2EA"/>
<stop offset="1" stop-color="#D5B2EA" stop-opacity="0"/>
</radialGradient>
<radialGradient id="paint2_radial_129_12" cx="0" cy="0" r="1" gradientUnits="userSpaceOnUse" gradientTransform="translate(18.8316 49.819) rotate(-45.4493) scale(20.7502 20.7502)">
<stop stop-color="#C4D4A6"/>
<stop offset="1" stop-color="#C4D4A6" stop-opacity="0"/>
</radialGradient>
<radialGradient id="paint3_radial_129_12" cx="0" cy="0" r="1" gradientUnits="userSpaceOnUse" gradientTransform="translate(17.5972 11.9468) rotate(44.8101) scale(21.2814 21.2814)">
<stop stop-color="#D8AAAA"/>
<stop offset="1" stop-color="#D8AAAA" stop-opacity="0"/>
</radialGradient>
</defs>
</svg>
