<svg width="189" height="189" viewBox="0 0 189 189" fill="none" xmlns="http://www.w3.org/2000/svg">
<g opacity="0.7" filter="url(#filter0_f_53_183)">
<g opacity="0.75">
<path d="M103.189 185.445C94.0634 189.336 84.6097 185.081 75.2179 185.693C72.5598 183.043 76.5912 178.177 72.5244 177.025C68.9626 174.969 63.106 176.83 61.3872 172.469C58.5165 167.098 55.1142 162.082 51.3752 157.287C48.4779 154.131 43.277 153.963 41.248 149.691C39.9456 147.732 38.6166 146.775 36.1623 147.174C28.1616 148.37 36.2775 137.619 28.5603 134.747C26.0528 134.092 25.4238 130.608 28.2945 130.076C29.6589 129.527 30.7133 127.675 32.3524 128.508C34.1156 129.678 31.3778 132.709 34.7358 132.549C37.3673 132.762 38.1027 133.808 37.1723 136.307C35.8876 139.259 39.7418 139.25 41.2037 140.89C45.1288 143.531 47.9552 136.334 53.67 140.092C56.585 141.608 58.4367 140.615 60.4657 138.984C63.4339 136.609 64.4262 136.733 66.5349 140.092C68.0766 142.6 71.2397 140.446 73.5167 140.42C75.4748 140.074 75.5634 138.355 75.209 136.999C73.8534 133.764 75.2445 128.862 72.0105 126.788C68.7322 125.672 70.6106 121.169 73.7028 121.63C78.2392 121.692 78.2392 121.674 78.8594 117.26C80.1087 109.975 70.1499 110.081 70.4688 104.453C69.0335 107.91 64.9224 109.071 64.1515 112.696C62.5567 117.234 59.181 111.854 59.0481 109.328C58.0823 105.924 53.6345 108.796 51.136 106.687C50.3297 118.395 46.573 111.384 43.2681 114.743C43.0644 117.048 46.9983 116.711 47.3615 119.21C48.0792 120.939 47.9995 122.49 46.0945 123.287C42.834 124.475 46.192 129.022 42.6745 130.139C36.437 131.982 38.0052 124.351 35.0548 121.293C37.1635 116.64 33.6371 112.793 33.1321 108.512C32.5651 105.233 25.6098 104.754 28.4451 100.66C31.4487 94.863 25.8668 88.1802 30.8373 82.8889C32.1752 79.6981 31.1829 75.4704 34.594 73.0773C37.766 69.6561 29.3488 61.5108 37.7217 59.9686C45.7135 59.5077 46.2806 50.547 51.517 46.3282C58.5165 41.6838 66.2691 37.7486 74.4913 35.453C76.6355 34.6996 77.8671 33.5829 78.062 31.2962C78.3101 22.2469 88.7119 22.885 93.6382 17.0973C107.469 10.5297 125.003 14.7397 138.763 19.7563C140.429 20.4654 141.953 21.2365 143.875 21.139C146.684 21.2896 149.245 23.727 151.53 25.1894C154.561 26.1821 155.509 29.1602 157.192 31.5089C157.839 32.8118 158.955 33.6627 159.673 34.9478C160.337 36.8977 161.037 38.759 162.411 40.3632C165.831 44.981 167.071 50.5293 169.455 55.5193C170.58 58.5682 173.938 60.1282 174.195 63.2126C169.853 65.9336 165.866 55.927 164.679 52.7185C163.306 46.8954 159.248 41.5332 156.288 36.5077C154.339 33.8222 150.317 36.5432 147.818 37.2966C144.841 38.8033 142.484 37.2788 142.458 33.9286C138.701 26.0846 126.004 23.9752 117.95 23.3459C117.321 23.2661 116.586 23.4168 116.161 23.8511C114.017 26.058 110.419 26.5012 109.17 29.8249C107.823 32.7143 103.491 28.3004 100.142 30.2592C97.9088 31.3316 94.8609 29.107 94.1077 33.0068C93.7976 34.868 92.4775 36.4457 93.0268 38.6438C94.5242 46.9752 83.5642 37.4207 82.3769 43.9174C81.925 45.4596 80.1353 46.5497 81.0302 48.5706C82.1997 54.4469 97.1379 51.9208 91.7687 59.6761C83.5907 63.1416 83.635 70.7108 77.7076 72.3505C75.5723 72.7582 74.9432 74.2029 74.7837 76.011C75.0052 81.3467 83.8743 75.5856 87.4006 77.0746C92.2028 83.6688 83.8743 82.8977 85.6817 88.5436C86.0982 92.2041 81.6769 95.2353 84.716 98.949C89.0043 104.382 81.6592 105.951 84.3793 110.604C87.7019 116.702 85.3894 123.784 84.3084 130.156C83.9008 131.654 84.273 133.028 84.9729 134.322C87.1082 138.222 84.7337 142.671 86.169 146.792C86.8513 149.912 84.1578 152.58 85.2121 155.771C85.5311 157.207 84.9729 158.43 84.016 159.485C82.6073 161.045 82.3769 162.392 84.0692 164.12C88.5081 167.488 82.182 174.322 87.5867 173.231C95.0912 173.745 92.1674 181.935 100.106 183.362C101.249 183.823 102.631 183.85 103.145 185.463L103.189 185.445Z" fill="#E8C5DA"/>
<path d="M148.766 23.4522C146.321 23.6029 144.868 20.873 142.36 21.9278C139.144 21.5732 135.981 18.6041 132.552 17.8861C122.717 16.5212 112.936 12.843 102.826 15.4842C100.416 14.4384 98.0593 16.0603 95.7912 16.2642C94.0546 18.9586 90.413 19.1802 88.6321 21.7948C87.0905 24.0815 83.759 22.1139 82.3326 24.6842C77.1139 27.0861 81.0567 35.0364 75.1115 36.0291C69.5562 38.1563 63.5136 39.0515 58.8709 43.2083C58.1886 43.7667 57.3203 44.396 56.5052 44.4491C52.9523 44.6796 51.4638 47.6399 49.3373 49.705C47.2552 51.6017 47.4235 55.1293 44.73 56.4854C44.3136 56.6715 44.0655 57.3185 43.844 57.7971C42.4707 61.8033 38.2798 59.2684 35.7901 61.4576C34.3371 63.0619 33.832 64.4977 34.9484 66.3501C39.157 76.3212 32.4676 71.3135 32.2904 79.6272C32.8929 83.3497 28.3122 85.2376 29.6678 88.7829C29.9601 89.9617 30.1551 91.043 29.6678 92.204C29.2779 94.6857 31.8031 96.9459 29.8184 99.4187C29.0476 100.89 27.1338 103.779 29.7918 104.347C30.8107 104.444 34.8421 107.945 34.3194 108.84C33.7434 112.9 38.3064 116.259 35.9319 120.619C34.1067 123.801 40.4949 122.259 38.209 126.248C36.0294 129.997 45.4743 131.353 43.9326 126.31C43.4365 124.838 43.2238 123.057 45.2971 122.773C49.1513 122.321 46.4666 117.384 43.8972 116.986C41.9302 116.418 41.7264 115.966 42.2315 114.663C43.4542 110.772 47.1932 114.912 49.293 112.607C49.107 110.905 51.1714 109.647 50.2145 107.794C49.6297 106.669 50.7461 104.55 51.889 105.818C54.0243 109.08 59.6417 104.223 59.7569 109.23C59.81 111.632 63.3275 117.11 63.5933 111.809C64.3907 108.424 68.9892 107.192 70.141 103.576C70.3713 103.168 70.5308 102.521 71.4168 102.521C70.141 109.939 73.8445 106.234 78.7796 112.793C81.0567 114.982 79.0366 118.333 79.1783 121.045C78.9923 123.642 75.209 122.658 73.3749 122.295C71.5055 121.683 69.5031 125.308 71.5941 125.911C74.8369 126.443 74.5533 129.102 74.9255 131.282C74.6419 133.87 76.6 135.979 76.0153 138.603C76.1127 142.503 71.6561 140.766 69.2195 142.015C64.754 143.85 65.8527 134.464 61.334 139.268C52.9788 145.791 57.471 138.603 46.9008 140.278C45.2439 140.801 44.7921 144.054 42.391 142.503C40.2911 141.324 38.5013 139.604 36.0737 138.993C35.4092 138.824 35.3826 138.222 35.6661 137.672C37.2432 135.988 37.8103 132.523 34.4877 133.187C33.7612 133.25 32.9372 134.171 32.3258 133.117C30.8284 131.45 33.3004 129.802 32.1309 128.942C30.0931 128.26 29.6766 131.566 27.3464 131.149C25.8225 131.823 27.5679 134.552 29.0121 134.18C30.4918 134.083 31.0943 134.712 31.298 136.121C32.7688 139.064 35.0813 140.251 32.7511 143.806C32.0511 146.314 34.1599 147.014 36.1977 146.624C38.1115 144.843 39.2722 147.386 40.867 147.413C41.7176 150.905 43.8617 150.985 45.8021 153.369C47.3526 154.911 50.4005 153.812 51.4815 156.391C53.8737 159.077 56.0179 162.073 57.3292 165.308C60.5277 166.628 60.4745 170.049 62.0339 172.416C63.5845 176.599 68.5019 172.877 71.2308 176.121C71.8421 176.839 72.9497 176.422 73.8357 176.511C76.7861 176.404 74.2964 182.839 74.9609 185.48C74.385 185.729 73.8091 185.72 73.0117 185.702C68.3601 179.888 62.601 183.282 60.8112 179.108C59.6063 176.218 57.7545 174.401 54.3256 174.33C52.3409 174.286 50.4626 172.744 48.3184 173.719C45.111 172.097 41.1151 170.129 39.0684 166.735C35.2319 163.491 29.7121 162.693 28.3033 156.702C27.2844 155 24.2188 149.567 22.1632 149.629C17.0952 149.744 16.2978 143.611 17.2547 139.861C18.3179 136.715 10.1665 138.488 14.2156 130.387C15.0574 127.506 17.2635 123.527 21.0911 125.016C23.3859 126.726 28.1261 122.188 25.0516 120.921C23.8466 120.274 23.572 119.458 24.2631 118.271C25.4326 116.099 23.2619 113.662 24.6086 111.419C25.344 109.585 24.6795 108.362 23.191 107.245C18.3888 104.648 25.3883 101.298 23.2087 97.4777C22.3759 96.0241 23.3682 94.0476 22.872 92.6915C20.4621 90.1389 22.3936 87.1786 22.0392 84.4399C21.7911 82.5432 23.3239 81.5505 24.901 80.9478C29.9158 79.5385 24.9099 74.4245 28.321 71.8276C29.8627 70.179 30.3057 68.3177 29.9247 66.0931C27.7363 54.1898 42.3201 57.3806 41.9834 48.1451C41.9834 44.715 47.2463 46.1243 46.9805 42.3397C46.9894 40.4341 48.7437 40.2303 50.2322 40.3898C54.1484 41.4268 52.908 37.2079 55.7787 37.5093C60.5986 38.3601 63.3452 33.2549 67.6336 32.9093C79.0189 33.0333 74.0483 26.448 76.1836 19.1093C78.4784 12.4885 107.77 12.4619 114.752 12.4087C121.725 13.6052 146.595 17.3189 148.748 23.4788L148.766 23.4522Z" fill="#EACADD"/>
<path d="M103.349 185.658C101.213 183.327 97.6428 184.505 95.729 181.82C93.7798 181.394 92.8849 180.579 93.2128 178.221C93.071 176.493 88.5966 172.186 86.5676 174.348C84.5475 175.554 83.6526 172.274 84.6007 170.936C85.8411 168.277 85.2386 165.689 82.8198 163.863C81.6414 162.968 81.3313 162.055 82.2262 160.938C84.0159 158.713 85.3627 156.453 84.2551 153.431C85.1057 150.24 86.3461 147.182 84.9639 143.85C84.2817 140.526 86.5056 137.344 84.1222 134.207C83.2362 132.842 82.7489 131.105 83.8387 129.394C84.9108 124.599 85.4601 119.458 85.2829 114.46C79.5504 103.531 86.736 107.413 85.1943 101.413C82.8818 96.8395 81.7211 95.2264 84.8222 90.653C85.912 88.0738 83.1919 85.1135 86.4436 83.2345C90.0763 81.5061 86.3639 79.1308 87.8346 76.5871C94.4975 73.6002 87.9232 67.5023 95.7202 63.957C99.8313 59.4988 101.887 64.9408 103.225 62.9909C103.482 62.211 102.817 61.9628 102.179 61.7235C89.9168 55.0318 109.843 47.9412 111.075 41.2495C110.8 36.2241 116.79 36.8179 118.668 33.051C124.755 23.7358 130.798 25.5173 138.063 32.599C143.503 37.1724 138.151 37.7397 134.191 35.5682C131.205 34.3273 135.325 39.9466 133.597 41.9586C132.41 44.1832 135.662 47.8969 132.64 49.0403C127.785 50.8927 129.132 44.1832 124.427 44.653C122.788 44.5821 121.335 43.288 119.403 43.0931C117.348 41.3647 120.183 40.3011 119.749 38.8299C116.914 40.3898 116.293 41.8877 117.445 44.7062C117.623 46.7004 116.231 47.9944 115.824 49.6518C115.425 58.3289 130.47 58.7189 116.772 67.2984C111.412 67.9543 109.196 73.9724 103.384 73.1393C99.5301 73.1481 98.9541 73.6445 98.5732 77.3404C98.644 79.9285 97.3947 82.2595 96.9517 84.6526C98.1922 88.5524 95.3924 90.3693 93.0178 92.3902C84.9019 97.1585 90.7408 103.646 97.6694 105.197C100.46 105.738 102.02 108.433 101.736 111.419C97.3859 113.041 92.185 111.535 92.0166 117.828C91.2812 121.913 89.5446 125.618 91.4141 129.686C92.0698 133.95 89.651 138.124 90.3598 142.52C90.6522 147.342 96.872 149.859 101.249 149.318C106.202 149.575 106.902 153.404 113.352 152.447C114.114 154.255 112.811 155.221 111.97 156.312C109.329 159.325 115.567 162.338 118.358 161.408C122.939 161.053 126.642 162.392 129.353 165.972C138.4 172.15 145.399 158.43 153.905 157.783C159.434 156.923 160.116 147.431 165.246 144.054C168.382 141.989 167.603 136.325 171.944 136.281C172.883 137.619 171.333 138.789 170.863 140.003C170.562 141.581 170.137 142.857 168.87 143.814C164.51 151.969 157.945 158.456 151.451 165.024C144.176 171.928 135.635 176.289 126.226 179.099C122.221 179.436 118.544 179.312 115.08 182.041C111.855 184.053 107.212 184.807 103.349 185.684V185.658Z" fill="#E2B9D5"/>
<path d="M148.784 23.6826C145.381 19.0295 138.657 19.3131 133.863 16.6187C130.293 15.4487 126.314 16.3971 122.832 14.5713C121.468 13.8179 119.838 13.8711 118.349 13.8445C115.177 11.8946 111.598 14.2522 108.381 12.8784C104.093 13.5609 99.5479 13.6229 95.3216 13.4811C91.3876 14.3408 87.5778 15.9362 83.5198 15.9805C73.6407 15.5994 76.919 24.693 75.9621 31.0745C75.6166 32.9801 72.6041 32.0052 71.3814 33.2992C67.731 34.8148 66.4906 31.562 63.487 36.0734C60.2265 36.3481 58.162 40.0175 54.9812 37.9347C54.175 38.2005 54.4939 38.9894 54.2813 39.53C53.6877 42.1358 51.7207 40.9659 49.6651 40.9925C45.5629 40.3366 49.6651 45.1316 46.378 45.4063C42.1783 46.9928 42.6302 46.5408 42.9048 50.7242C41.3632 52.5146 40.5303 55.1204 37.7837 55.5813C33.203 56.4499 28.9412 61.626 30.6689 66.0487C32.6536 70.7019 25.9376 72.3682 28.0109 76.6668C29.0032 78.6079 27.94 80.4957 25.849 81.2934C24.2985 81.71 22.0392 82.8533 22.6859 84.8564C24.2365 86.8772 20.8342 89.0044 22.5353 90.6086C25.3086 92.3104 22.5176 95.0225 23.8466 97.2738C25.6098 99.9238 23.5808 102.184 22.0923 104.187C21.1266 107.076 27.7008 107.271 25.6098 110.87C23.1201 114.096 27.4882 116.578 24.3694 119.476C28.4273 121.718 27.9932 122.374 24.5377 125.335C23.5336 126.268 22.4054 126.392 21.1531 125.707C19.2659 124.688 16.3598 125.982 15.9699 128.109C15.27 130.874 12.3461 133.17 14.4992 136.086C15.0662 138.372 19.8684 135.926 18.3267 139.064C17.042 141.475 17.6445 143.814 18.2381 146.154C18.8229 150.542 24.7858 147.111 25.6009 151.401C25.7693 151.915 25.8047 152.518 26.2654 152.855C29.1627 154.805 29.6678 158.19 31.1385 160.956C33.5662 161.816 35.0813 164.404 37.8811 164.537C38.7583 164.572 39.6797 164.776 39.6886 165.76C40.1493 169.73 44.6857 169.757 46.8387 172.372C47.6007 173.16 48.531 173.63 49.4259 172.735C51.4017 171.166 52.9966 174.286 55.1673 173.737C58.5519 173.231 60.0492 175.686 61.3694 178.337C63.23 183.477 69.1575 178.088 72.8167 185.471C69.3436 186.305 66.845 183.486 63.9034 182.485C61.52 182.777 60.067 180.925 57.8785 180.801C41.4429 174.375 32.0511 170.652 21.2417 155.532C13.5688 145.33 3.92012 128.782 13.1524 116.977C14.7118 114.787 15.0839 112.492 14.3928 110.054C12.7626 103.451 17.7686 97.0522 13.0549 90.8568C10.9905 88.446 12.3461 85.2641 13.5511 82.4456C15.4649 77.9874 19.4254 74.4244 19.2216 69.009C19.5494 66.8021 20.6392 62.468 23.5188 62.6275C25.0605 62.725 25.6275 61.8653 25.7604 60.5447C26.9477 55.1647 32.4144 51.9296 33.8054 46.4433C35.0902 41.799 39.8215 40.9481 42.7542 37.9081C44.2516 35.0718 48.0969 36.1709 49.6208 33.5828C51.8536 29.426 57.9228 32.2268 59.7303 27.4229C61.3606 24.6842 65.4274 24.7639 68.174 23.6915C71.8776 21.8302 71.7358 15.7235 76.538 14.3763C102.8 7.82638 141.953 7.69343 159.77 31.2341C163.226 36.5077 166.424 41.9585 169.57 47.436C171.156 52.2576 172.653 57.3894 176.986 60.6156C178.173 61.5107 179.502 62.4857 179.307 64.4977C177.668 66.3235 176.091 63.3188 174.239 63.31C172.573 60.6067 169.809 58.8695 169.233 55.8117C166.85 50.6711 165.884 45.0961 162.189 40.567C161.915 39.9909 161.064 39.6541 161.108 38.9451C160.568 37.7219 159.584 36.5697 159.478 35.1959C159.203 34.5578 158.362 34.2564 158.397 33.5208C157.989 32.7497 156.847 32.2799 156.776 31.3493C154.623 28.256 152.106 25.6148 148.793 23.6826H148.784Z" fill="#EDD0E0"/>
<path d="M178.988 64.9852C179.112 62.7339 177.446 61.7944 176.17 60.7929C171.643 57.4869 170.527 52.3551 168.843 47.4361C166.176 42.6499 163.19 38.0411 160.382 33.3436C145.08 9.29774 108.054 10.06 82.8641 13.3216C79.7807 13.7559 75.8468 14.6068 73.9419 17.0708C73.4191 18.3205 72.8432 19.4372 71.5142 20.1286C70.8054 20.492 70.6636 21.396 71.0003 22.3C71.4522 23.5054 71.0003 24.2145 69.627 24.179C55.4596 26.2442 62.6895 30.7378 55.3444 31.3582C49.222 31.3228 51.313 36.1709 46.564 36.1532C44.5704 36.0114 43.6844 37.8372 42.6655 39.1313C42.0098 39.9644 41.3365 40.6912 40.3619 40.8596C37.6595 41.3293 36.49 43.5806 34.8863 45.3355C34.8863 48.6149 31.7409 50.3875 31.0587 53.339C29.2069 56.1043 26.1767 57.8681 26.221 61.6704C25.9907 63.4873 25.9021 63.4785 24.0857 63.2746C19.3544 63.1417 20.4088 70.8881 19.124 73.9991C18.9291 76.3921 16.2445 76.9948 15.8812 79.3702C15.3851 80.7528 15.4825 82.4634 13.7282 83.1813C9.9715 93.4361 18.557 90.0415 15.075 99.9948C17.2368 103.15 12.8333 105.446 14.756 108.601C17.8393 115.115 10.8752 119.848 9.56393 125.592C11.1676 141.838 20.3202 156.046 32.37 166.584C38.6253 175.483 50.0194 174.056 57.6303 180.614C51.4725 180.818 45.1641 178.035 39.9188 174.446C34.0446 172.318 29.0651 167.258 25.8046 161.957C18.6633 154.725 13.2232 146.491 9.58165 137.008C9.45761 136.139 9.44875 135.394 9.43989 134.428C7.78304 132.31 7.87164 129.793 7.27801 127.329C4.86804 120.176 6.56033 113.706 7.10966 106.483C6.6578 99.9416 8.46527 93.6133 7.80076 87.1255C8.65133 78.2534 13.3384 70.4892 14.6762 61.6881C14.9775 60.0573 15.5534 58.6923 17.0508 58.001C18.7874 57.2033 19.7531 55.7675 20.0987 54.0923C20.6391 50.2634 23.9971 48.6326 26.1767 45.823C29.1006 43.3235 23.6073 38.697 28.8348 37.5891C37.4823 35.7012 40.6099 26.0315 49.0625 23.9043C49.7448 23.7802 50.2498 23.3814 50.3916 22.7078C51.1092 20.2261 55.8937 15.8831 57.6215 19.4816C58.667 21.6176 60.0934 19.0295 60.8022 18.0457C63.8767 13.818 69.9371 16.8049 73.8001 13.3748C82.0755 8.87231 92.3001 8.42029 101.524 7.75555C115.035 5.60179 127.883 8.38483 140.367 14.2789C142.458 14.1814 143.733 15.369 145.009 16.4947C150.06 20.4476 155.969 23.3016 159.682 28.85C164.803 35.1251 171.288 40.895 174.23 48.4376C174.992 53.5605 179.263 57.3628 180.033 62.4149C180.441 66.5983 183.746 67.5112 182.771 72.7228C180.751 73.485 181.3 71.8099 180.973 70.6754C180.787 68.6634 179.396 67.0149 179.006 65.0029L178.988 64.9852Z" fill="#F1DCE4" fill-opacity="0.9"/>
<path d="M140.5 14.2168C132.144 11.9833 123.541 9.25339 115.009 7.09964C105.475 8.90773 95.5608 8.01255 86.1779 10.4588C83.1211 10.2195 80.6225 11.1501 77.9379 12.2403C74.6862 12.9582 72.2408 15.6969 68.8474 16.3262C64.816 16.6808 62.2023 15.6792 60.2442 20.1906C56.6026 25.2515 58.1266 16.5389 54.9015 19.0472C53.4041 20.2703 50.9144 20.7224 51.1448 23.1332C51.1891 23.9043 50.9853 24.826 50.0638 24.6222C47.6627 23.7802 40.0696 29.7717 39.5114 32.147C36.5521 34.7439 33.008 37.2522 28.9944 38.2892C23.7757 39.0337 30.2525 43.0399 27.6476 45.2646C25.7959 46.9308 24.7415 49.3948 22.3581 50.5116C21.7379 50.8041 21.3215 51.2561 21.4012 51.9829C21.3392 53.7555 19.9659 58.0276 18.1673 58.3201C16.0054 59.0202 15.4738 59.7382 15.4472 62.0071C14.8624 65.3308 13.7815 68.5393 12.8512 71.8276C10.1134 76.3301 9.92731 81.3732 8.62487 86.3898C7.92491 89.2615 9.67036 92.1066 8.69575 94.9162C6.69335 102.095 9.08559 109.673 6.33894 116.791C5.67443 120.176 7.96035 123.199 7.28698 126.886C6.32122 127.019 6.15288 126.345 6.22376 125.565C3.99986 113.334 1.34181 100.722 2.83032 88.1624C1.10259 75.816 3.60115 62.9378 10.4058 52.4615C13.9498 46.6472 18.0078 39.2199 24.5909 36.5255C29.7564 33.3347 31.8916 26.448 37.4736 23.8954C42.3821 18.285 48.2741 13.6584 54.2458 9.11158C71.0358 4.54704 88.6942 0.886536 106.308 2.06534C117.738 5.47767 130.771 7.1085 140.5 14.2168Z" fill="#F2E8EE" fill-opacity="0.85"/>
<path d="M172.104 136.431C168.072 137.123 169.224 142.494 165.84 144.355C161.224 147.98 160.275 153.706 156.306 157.694C155.659 158.261 154.986 158.696 154.135 158.554C146.152 158.616 142.041 169.083 133.225 167.967C130.443 168.516 129.841 168.339 128.476 165.804C126.882 163.305 121.565 161.523 118.544 161.816C116.338 161.434 118.845 157.916 114.539 154.539C112.174 151.871 113.689 147.28 117.056 145.888C118.801 149.824 118.464 154.459 124.215 154.601C129.991 155.93 133.571 158.066 138.781 153.528C143.547 151.401 139.454 145.117 144.203 142.68C146.941 141.262 146.879 136.458 150.804 137.486C151.858 137.867 152.301 139.152 153.719 138.621C157.245 138.248 160.24 145.516 161.268 142.184C161.95 139.622 165.751 139.596 165.503 136.671C165.388 134.978 166.132 134.295 167.789 134.021C171.98 133.32 174.275 128.907 172.511 125.095C172.033 124.067 171.661 123.03 172.068 121.976C174.062 118.607 169.898 114.717 172.751 111.969C173.761 111.109 173.832 110.099 173.114 109.097C169.685 100.518 178.793 92.8333 180.592 84.688C187.148 81.2757 185.492 96.3166 185.093 99.7643C183.764 106.146 181.983 112.793 178.465 118.35C177.181 120.097 178.058 122.171 177.819 124.174C175.409 127.825 176.242 134.437 172.104 136.431Z" fill="#DAB2D4"/>
<path d="M183.959 84.6969C178.474 86.2923 180.61 81.3644 176.525 80.6996C174.593 80.3628 173.388 79.2195 173.451 77.2075C173.557 73.9548 171.2 71.1008 172.095 67.7062C171.962 65.1093 166.894 66.5628 166.513 62.3706C165.786 59.7027 162.871 58.3467 162.987 55.2889C162.747 52.6742 161.197 50.8484 158.876 49.3505C157.777 46.6827 160.63 46.5232 161.472 44.8923C165.627 48.3933 164.502 54.4025 168.232 58.4353C170.961 60.6954 169.366 63.895 173.867 63.1948C175.471 62.8403 175.914 64.1786 177.065 64.8877C178.953 66.0576 180.778 67.0769 180.955 69.47C180.113 76.1174 185.013 70.7463 183.95 84.7058L183.959 84.6969Z" fill="#E7BCD5"/>
<path d="M106.078 185.082C105.608 183.779 111.5 182.91 112.75 182.325C115.789 182.095 117.304 178.204 120.591 178.647C132.384 178.815 141.855 171.539 151.149 165.077C150.086 169.367 144.363 170.812 141.332 173.604C131.037 180.73 118.296 184.337 106.078 185.082Z" fill="#EDD0E0"/>
<path d="M183.932 85.078C183.843 84.6171 183.852 84.3689 183.879 83.9258C186.953 84.9628 185.465 91.4772 186.51 94.1982C187.423 99.7111 183.684 104.134 183.303 109.443C183.055 110.959 182.869 112.483 181.256 113.502C180.255 112.758 181.061 111.987 181.309 111.357C182.78 106.97 183.835 102.414 184.703 97.8499C184.605 93.6221 184.729 89.2526 183.941 85.078H183.932Z" fill="#EDD0E0"/>
<path d="M39.7861 174.499C43.2416 175.571 46.4844 178.345 50.1968 178.611C51.7651 178.514 52.908 179.17 53.8295 180.597C48.8501 180.304 42.896 178.354 39.7861 174.499Z" fill="#F2E8EE" fill-opacity="0.85"/>
<path d="M182.869 74.3979C180.131 73.4052 179.874 72.9266 180.45 69.8245C180.805 69.4788 181.053 69.399 181.505 69.5763C181.894 70.7551 181.15 72.0137 182.55 72.9089C182.922 73.29 183.073 73.8307 182.869 74.4068V74.3979Z" fill="#E8C5DA"/>
<path d="M152.062 164.483C152.762 162.312 154.516 160.947 156.572 159.662C155.916 161.869 154.144 163.234 152.062 164.483Z" fill="#EDD0E0"/>
<path d="M175.976 129.846C175.887 128.224 175.781 125.033 177.615 124.431C177.695 126.319 177.101 128.109 175.976 129.846Z" fill="#EDD0E0"/>
<path d="M182.78 74.779C182.754 74.327 182.762 74.0788 182.78 73.6445C184.88 74.7524 184.437 76.7023 183.976 78.7586C182.798 77.7659 183.684 76.1528 182.771 74.779H182.78Z" fill="#F1DCE4" fill-opacity="0.9"/>
<path d="M33.2915 170.697C34.6471 170.865 35.8521 171.459 36.5166 173.019C35.099 172.93 33.8674 172.389 33.2915 170.697Z" fill="#F2E8EE" fill-opacity="0.85"/>
<path d="M177.978 122.685C177.198 121.337 176.906 119.91 178.244 118.51C178.341 119.839 178.244 121.213 177.978 122.685Z" fill="#EDD0E0"/>
<path d="M78.9214 185.817C80.02 184.851 81.2605 184.718 82.5275 185.923C81.4022 186.154 80.2238 186.376 78.9214 185.817Z" fill="#EDD0E0"/>
<path d="M29.4995 166.894C30.8817 166.894 31.6525 167.816 32.1753 169.234C30.8197 169.19 30.0311 168.295 29.4995 166.894Z" fill="#F2E8EE" fill-opacity="0.85"/>
<path d="M178.669 117.925C178.634 116.968 178.749 115.949 179.839 115.231C180.078 116.285 179.874 117.26 178.669 117.925Z" fill="#EDD0E0"/>
<path d="M7.83643 131.663C9.25405 131.645 8.90851 133.001 9.41353 134.003C8.10223 133.959 7.96047 132.913 7.83643 131.663Z" fill="#F2E8EE" fill-opacity="0.85"/>
<path d="M7.28707 128.41C8.55407 128.437 8.50091 129.217 7.9693 130.263C7.15417 129.943 7.30479 129.252 7.28707 128.41Z" fill="#F2E8EE" fill-opacity="0.85"/>
<path d="M173.707 135.173C173.521 134.313 173.663 133.48 174.868 133.081C175.267 134.074 174.514 134.561 173.707 135.173Z" fill="#EDD0E0"/>
<path d="M171.935 136.556C172.343 136.174 172.742 135.997 173.317 135.784C173.619 136.768 172.901 137.273 172.104 137.903C171.944 137.575 171.935 137.167 171.935 136.556Z" fill="#EDD0E0"/>
<path d="M170.996 140.065C169.915 139.117 170.863 138.886 171.687 138.505C171.944 139.135 171.687 139.622 170.996 140.065Z" fill="#EDD0E0"/>
<path d="M9.45766 137.078C10.2551 136.937 10.5475 137.398 10.5209 138.337C9.73233 138.479 9.43108 138.018 9.45766 137.078Z" fill="#F2E8EE" fill-opacity="0.85"/>
<path d="M25.6894 162.019C26.2653 162.064 26.6552 162.463 26.7527 163.287C25.9818 163.411 25.6717 162.95 25.6894 162.019Z" fill="#F2E8EE" fill-opacity="0.85"/>
<path d="M21.9238 158.199C22.4023 158.066 22.8276 158.199 22.9516 158.944C22.482 159.068 22.0567 158.935 21.9238 158.199Z" fill="#F2E8EE" fill-opacity="0.85"/>
<path d="M133.084 37.3143C130.328 35.453 131.258 33.6361 134.315 34.8414C135.582 35.1162 141.226 38.1563 139.516 34.8503C138.187 32.9447 135.573 32.0407 133.952 30.6935C133.252 28.265 131.046 28.4599 129.336 27.6623C127.36 26.705 125.437 27.1659 123.807 28.2561C122.717 30.7821 119.785 31.7482 118.713 34.2565C117.516 37.6777 111.376 36.3836 111.81 40.7887C112.218 43.9617 109.835 45.6457 107.309 46.6738C107.212 49.0935 104.9 49.0137 103.597 50.0596C100.833 52.7008 97.2709 55.794 99.8669 59.747C100.576 62.1312 105.263 59.8622 104.208 63.3366C102.924 67.4669 99.8404 60.3497 97.4836 63.3721C95.933 64.5952 94.5331 65.9867 92.7434 66.9085C92.1054 67.2364 91.5738 67.9543 91.9371 68.7254C92.3092 72.448 92.0877 76.401 87.6311 77.1898C85.3894 76.915 83.5997 78.0407 81.677 78.4129C79.8784 78.7586 77.9203 77.9875 76.2546 79.2726C75.8205 79.6095 75.2268 79.3081 74.8104 78.8738C71.3638 68.69 80.3037 73.9725 81.1543 68.8584C83.83 66.0488 85.1768 61.9894 89.3322 60.5447C91.8839 60.3054 94.1078 55.0318 90.5372 54.6064C87.9766 54.3316 85.859 52.8515 83.4048 52.2754C77.7165 49.9266 80.5695 44.3605 83.1833 40.7887C83.4313 40.4075 84.0161 40.31 84.4325 40.443C86.0451 40.9571 87.8969 40.5316 89.3499 41.5332C91.122 42.7297 93.6382 40.7975 92.4687 38.9362C90.7498 35.8784 93.8332 34.0349 93.9661 31.1632C93.8597 29.7717 94.7635 29.231 95.8178 29.6653C97.5987 30.3921 99.167 29.6919 100.806 29.3729C105.741 27.5293 106.813 31.7127 108.497 29.8958C109.56 28.8411 108.78 26.3682 110.8 26.3416C114.406 25.5085 116.081 20.9528 120.582 22.8939C122.097 23.3636 123.754 23.7536 125.579 23.2129C127.103 22.7609 128.538 24.2145 129.965 24.8969C134.803 26.2885 139.286 28.6461 143.184 32.0407C144.522 33.4056 141.465 35.3201 143.796 36.552C144.992 37.3497 146.498 37.6334 147.588 36.6939C150.414 35.063 155.961 32.6966 157.493 36.7204C158.326 39.5478 160.967 41.3382 161.64 44.006C161.348 44.4757 160.887 44.6353 160.674 44.3782C155.907 39.0781 149.227 46.9663 144.726 41.028C146.861 43.1463 150.742 46.727 153.303 43.7756C154.587 42.189 158.787 41.7636 159.655 43.9174C159.841 44.8746 159.079 45.105 158.397 45.3709C153.781 47.6488 149.183 51.6018 143.716 50.5559C138.63 48.9073 137.372 40.9659 133.084 37.2966V37.3143Z" fill="#E7BCD5"/>
<path d="M152.532 48.7212C152.54 48.2072 152.576 47.6311 152.762 47.569C154.791 46.922 156.147 44.9278 158.397 44.7328C158.751 44.7062 159.15 44.653 159.203 44.201C157.874 41.5243 153.648 43.4476 152.523 46.3105C148.899 44.9898 145.231 43.7844 143.335 39.929C152.39 45.7078 149.165 40.9659 158.494 42.1713C159.823 42.2334 160.045 43.8997 161.454 44.1833C161.649 44.2099 161.649 44.4758 161.649 44.6087C162.287 47.9413 158.849 45.9205 158.946 48.8631C156.838 49.0758 154.667 51.0611 152.532 48.7035V48.7212Z" fill="#E2B9D5"/>
<path d="M162.207 41.1609C165.29 42.3574 167.647 48.1451 167.603 51.584C167.151 51.7347 166.619 51.6017 166.619 51.0965C166.619 47.0726 163.536 44.6264 162.207 41.1609Z" fill="#EACADD"/>
<path d="M167.603 53.0908C168.95 53.0908 169.074 54.1633 169.224 55.4041C167.877 55.4041 167.753 54.3317 167.603 53.0908Z" fill="#EACADD"/>
<path d="M159.496 36.2861C160.825 36.2861 160.949 37.3586 161.099 38.5994C159.664 38.6437 160.018 37.2699 159.496 36.2861Z" fill="#EACADD"/>
<path d="M149.75 24.3562C150.565 24.2055 151.141 24.5689 151.335 25.6148C150.52 25.7655 149.944 25.4021 149.75 24.3562Z" fill="#EACADD"/>
<path d="M156.793 31.9343C157.609 31.7837 158.184 32.1471 158.379 33.1929C157.564 33.3436 156.988 32.9802 156.793 31.9343Z" fill="#EACADD"/>
<path d="M161.126 39.5123C161.596 39.3794 162.03 39.5123 162.163 40.248C161.693 40.3809 161.268 40.248 161.126 39.5123Z" fill="#EACADD"/>
<path d="M158.415 34.0969C158.884 33.964 159.31 34.0969 159.451 34.8326C158.982 34.9655 158.557 34.8326 158.415 34.0969Z" fill="#EACADD"/>
<path d="M155.712 30.3035C156.182 30.1705 156.607 30.3035 156.749 31.0391C156.279 31.1721 155.854 31.0391 155.712 30.3035Z" fill="#EACADD"/>
<path d="M152.222 48.5528C155.774 50.609 156.085 47.5867 158.751 49.0136C162.517 49.8911 163.633 53.073 163.828 56.2549C165.122 59.2063 167.266 61.6792 168.551 64.6572C169.96 65.9335 174.292 64.9674 172.91 68.2734C172.334 70.1967 172.715 71.8187 173.557 73.4318C174.859 75.3994 172.848 79.6005 176.02 79.8842C182.86 80.1589 180.716 89.5096 177.508 92.9042C174.868 93.5246 173.282 92.6472 173.007 90.1212C172.511 85.3262 165.813 87.994 164.085 83.394C161.658 78.1027 159.46 86.8418 155.828 83.6422C151.433 80.1057 151.034 87.8699 146.967 88.2156C142.298 91.2556 157.325 90.0414 151.406 95.4302C150.148 96.5736 149.501 97.646 149.75 99.3743C150.37 102.051 146.684 102.866 146.294 99.9948C144.726 95.9531 143.804 95.5011 139.684 96.8572C136.53 98.2753 136.344 92.9751 133.066 94.3223C131.108 94.8098 131.48 92.3635 133.03 92.0267C136.592 89.9971 136.61 89.8287 133.704 86.957C129.424 82.295 138.798 79.0688 137.443 74.0256C137.159 72.182 139.835 72.2795 140.491 73.609C141.74 75.1867 140.783 77.3404 142.192 78.7674C145.107 73.8483 137.753 71.2869 134.696 68.8672C131.037 66.6514 126.394 71.0121 129.017 74.4599C129.504 75.1069 130.319 75.7096 130.169 76.5339C131.63 91.3531 133.828 87.4622 119.155 90.7859C117.755 88.6676 111.164 86.2036 113.999 83.6776C115.647 82.4899 115.053 81.5593 113.848 80.478C110.623 78.5901 111.801 72.0402 116.169 74.0256C118.615 75.7362 120.219 73.6533 118.801 71.3046C118.349 69.8067 116.949 68.8672 116.613 67.1743C117.569 64.3027 121.743 64.4179 121.955 61.6614C121.672 60.3054 121.556 58.5327 120.059 57.9743C118.287 57.3628 117.693 55.9801 116.887 54.5354C113.511 52.4083 114.787 48.925 116.683 46.1065C117.543 41.8256 120.36 41.6129 123.647 43.8198C124.153 44.2807 124.79 44.2098 125.437 44.1389C129.77 43.5716 128.14 46.6472 129.805 48.4198C133.101 49.1377 133.934 48.2514 132.844 45.0784C131.719 42.1978 134.262 40.372 132.933 37.3851C137.833 39.1578 138.993 46.5851 143.007 49.8911C144.655 50.5558 146.879 49.0491 148.766 49.6695C150.06 49.7582 150.777 48.473 152.213 48.5528H152.222Z" fill="#DCAED0"/>
<path d="M117.401 146.225C115.151 146.092 114.185 150.409 113.441 152.403C107.868 155.992 104.394 147.989 98.7505 150.329C97.8733 150.754 96.9607 150.169 96.243 149.638C93.4521 147.697 89.2967 146.979 89.6156 142.777C88.8005 137.477 92.1231 132.505 90.1029 127.515C88.6942 123.128 91.8307 119.352 91.7155 114.929C93.0091 111.313 97.8379 111.366 101.284 111.419C105.413 107.945 112.404 111.056 114.211 104.914C114.61 103.744 114.548 102.211 116.329 102.281C121.193 102.361 120.963 107.706 123.231 111.331C124.188 109.301 124.844 107.901 122.717 106.766C117.25 103.974 123.727 97.9474 119.262 94.5351C115.665 86.9127 127.874 97.6904 127.519 99.7466C127.998 103.044 128.627 106.359 128.078 109.709C126.066 115.94 137.018 115.718 131.533 120.114C131.055 120.575 130.505 121.107 130.78 121.727C131.772 123.961 130.851 126.363 131.622 128.65C132.543 131.415 131.843 132.842 129.274 134.526C128.654 134.933 127.892 135.253 128.042 136.112C128.529 140.251 121.37 145.853 117.41 146.225H117.401Z" fill="#DCAED0"/>
<path d="M118.987 91.7254C118.713 93.0283 119.324 93.7639 120.059 94.4818C124.897 97.7701 117.375 104.125 123.612 106.447C125.446 107.138 125.145 108.335 124.702 109.886C124.215 110.684 124.516 112.182 123.267 112.244C121.814 112.323 122.274 110.808 121.92 109.984C121.167 108.264 120.112 106.686 119.758 104.763C119.563 103.717 116.958 102.565 115.904 102.813C115.239 102.964 115.124 103.46 115.08 104.036C114.805 108.016 111.004 110.409 107.035 109.992C104.448 109.106 103.925 112.527 101.692 111.49C101.293 107.635 99.1227 105.587 95.3394 105.454C84.53 100.367 87.002 95.1288 95.5521 89.2437C96.509 88.5258 96.8634 87.7724 96.4558 86.7265C95.0116 83.784 98.1127 81.6213 97.7317 78.7319C97.6608 71.6768 100.664 72.3682 106.432 72.182C110.712 71.5882 111.864 66.3146 116.462 66.9793C118.429 68.9647 121.433 72.7138 119.368 75.2753C117.268 76.9859 115.381 72.5986 113.591 74.5396C112.874 75.4791 112.005 76.525 112.697 77.9608C113.405 80.1589 118.349 81.8163 114.894 83.8549C110.65 86.1504 120.166 87.4179 118.987 91.7254Z" fill="#DAB2D4"/>
<path d="M113.423 152.802C115.275 152.757 115.204 155.78 117.029 156.276C119.705 157.535 116.887 159.662 118.225 161.638C116.285 163.863 113.325 160.823 111.482 159.813C108.24 157.535 112.794 155.461 113.423 152.811V152.802Z" fill="#DCAED0"/>
<path d="M128.388 32.7763C126.199 32.9358 126.58 35.5859 124.755 36.2773C123.807 36.7913 122.762 35.9759 121.645 36.3216C120.927 36.5432 121.06 35.4353 121.043 34.8591C120.91 31.8634 125.109 35.3555 125.358 31.4645C125.251 28.5485 130.31 32.0938 128.388 32.7763Z" fill="#E7BCD5"/>
<path d="M118.881 42.3929C118.101 43.0488 118.42 44.201 117.392 44.6796C113.689 43.5451 117.702 38.112 120.803 37.394C121.264 39.468 119.607 40.6557 118.881 42.3929Z" fill="#E7BCD5"/>
<path d="M180.051 66.8021C178.811 67.201 176.552 65.7917 176.685 64.4357C178.111 64.4977 180.308 64.8522 180.051 66.8021Z" fill="#EACADD"/>
<path d="M176.791 64.0988C176.809 64.5154 176.809 64.7547 176.809 65.1801C176.047 64.9585 175.426 64.4445 175.196 63.3809C176.268 62.2287 176.454 63.2214 176.791 64.1077V64.0988Z" fill="#E8C5DA"/>
<path d="M181.655 69.5232C181.433 69.6916 181.194 69.6916 180.778 69.6916C180.601 69.4523 180.601 69.213 180.601 68.7875C181.097 68.6457 181.522 68.7875 181.655 69.5232Z" fill="#EDD0E0"/>
<path d="M119.04 91.9293C118.854 91.5039 118.854 91.0962 118.854 90.4846C133.509 85.211 130.904 93.2056 129.566 77.7393C130.541 74.6815 125.889 75.0449 127.679 70.7994C129.433 65.5879 136.211 67.4757 138.878 71.0033C139.374 71.6237 140.003 72.0935 140.792 72.4303C144.168 73.7154 144.868 78.5725 141.696 80.2742C141.288 80.2653 141.058 79.9197 141.102 79.5297C140.996 77.7659 140.553 75.9578 140.26 74.2384C139.543 72.253 136.707 73.0241 138.409 74.9208C138.674 75.3019 139.047 75.9135 138.728 76.1262C136.991 77.243 137.381 79.9197 135.272 80.7174C134.439 81.0276 134.173 81.6834 133.925 82.5432C131.232 87.0368 140.464 88.0472 134.971 91.9913C134.023 92.5409 132.605 92.3104 132.074 93.5778C132.437 94.0476 132.765 93.8349 133.093 93.7197C137.248 91.3886 136.353 98.2842 139.862 96.0418C140.907 95.7139 142.015 94.3224 143.016 94.9516C144.513 95.9532 146.471 96.7066 146.746 98.9401C146.968 99.8264 146.959 101.546 148.226 101.44C149.626 101.05 149.245 98.9489 148.917 97.8676C148.199 96.4141 149.448 95.8645 150.609 95.4657C152.505 94.1274 152.735 91.9204 150.086 91.6191C148.491 90.7328 145.125 91.6457 144.903 89.2526C144.85 87.0457 147.8 87.7015 149.067 86.5405C149.484 86.3455 150.042 86.0973 150.033 85.6807C150.015 83.8017 151.601 83.1902 152.682 82.2064C155.429 78.9181 157.104 87.2938 160.045 82.0911C163.571 76.5871 165.104 87.8965 171.324 86.505C176.011 86.6291 170.979 92.4522 177.145 92.9929C177.438 94.1185 177.287 95.1378 176.339 95.9266C174.106 99.0819 171.776 104.949 173.672 108.619C175.054 110.684 174.983 110.905 173.096 112.501C170.553 115.098 175.258 118.776 172.689 122.029C172.192 122.897 172.37 123.952 173.132 124.794C175.958 127.568 171.873 135.244 167.975 134.756C164.741 134.198 167.798 138.789 164.732 139.87C163.315 140.659 161.879 141.262 161.702 143.176C161.667 143.549 161.259 144.018 160.896 144.196C160.125 144.577 159.168 144.745 159.008 143.566C158.796 141.997 157.919 141.226 156.51 140.766C155.518 140.438 155.296 138.878 153.728 139.055C152.798 138.966 152.177 138.665 151.486 138.089C147.056 136.866 147.313 142.813 143.592 144.196C140.252 146.216 144.097 151.463 140.562 153.271C136.991 155.23 132.72 159.157 128.609 156.507C125.854 154.486 122.132 156.489 119.864 153.91C117.933 151.827 116.808 149.487 117.233 146.34C120.555 144.55 127.732 140.455 127.254 136.316C126.731 135.058 127.05 134.455 128.512 134.056C131.019 133.382 131.985 131.229 130.993 128.774C129.602 126.717 131.453 124.617 130.16 122.614C128.476 119.139 131.746 120.097 132.836 118.2C132.703 115.878 126.687 116.383 127.103 110.71C127.856 106.633 127.75 101.448 126.013 97.8765C122.992 96.6002 122.035 92.984 119.031 91.9116L119.04 91.9293Z" fill="#D6A9CE"/>
<path d="M151.371 138.16C152.124 137.947 152.868 137.982 153.435 138.886C152.399 140.048 151.823 139.418 151.371 138.16Z" fill="#DCAED0"/>
<path d="M118.145 80.8503C115.638 81.515 117.233 78.1204 118.624 77.952C119.891 78.3775 119.616 80.3628 118.145 80.8503Z" fill="#DAB2D4"/>
<path d="M144.203 126.496C146.303 124.041 149.289 126.469 149.165 129.057C149.05 129.775 147.402 132.275 146.471 131.867C145.505 130.156 142.892 128.703 144.203 126.496Z" fill="#DCAED0"/>
<path d="M135.91 70.9678C135.68 72.1555 135.006 71.9162 134.377 71.5528C133.447 70.5601 135.281 69.7358 135.91 70.9678Z" fill="#DCAED0"/>
</g>
</g>
<defs>
<filter id="filter0_f_53_183" x="0.80127" y="0.342285" width="187.352" height="188.262" filterUnits="userSpaceOnUse" color-interpolation-filters="sRGB">
<feFlood flood-opacity="0" result="BackgroundImageFix"/>
<feBlend mode="normal" in="SourceGraphic" in2="BackgroundImageFix" result="shape"/>
<feGaussianBlur stdDeviation="0.75" result="effect1_foregroundBlur_53_183"/>
</filter>
</defs>
</svg>
