<svg width="207" height="207" viewBox="0 0 207 207" fill="none" xmlns="http://www.w3.org/2000/svg">
<g opacity="0.7" clip-path="url(#clip0_53_237)" filter="url(#filter0_f_53_237)">
<path d="M200.767 114.342C200.277 118.142 197.067 120.972 197.057 124.992C194.497 131.712 188.997 136.972 188.547 144.312C187.537 147.872 184.287 150.902 183.057 154.522C180.017 158.932 177.957 164.812 172.817 167.182C169.997 163.952 178.757 159.232 176.937 153.752C176.877 153.392 176.997 152.892 177.267 152.702C180.947 150.122 179.097 145.562 180.987 142.282C181.787 140.892 181.047 138.972 180.697 137.312C179.887 133.352 181.127 131.682 185.047 131.202C187.577 130.342 195.647 128.052 190.907 124.772C182.487 118.632 181.647 125.632 177.977 122.422C175.857 120.562 183.637 114.632 178.897 115.062C174.767 115.432 175.057 122.362 170.407 120.062C168.647 119.332 166.647 120.082 164.697 119.182C163.207 116.832 160.937 113.802 163.327 111.472C166.987 108.142 155.537 108.732 153.407 104.282C148.997 99.2216 146.567 110.042 150.137 112.502C153.687 117.162 159.277 115.982 164.287 118.842C164.537 125.312 155.277 125.932 157.207 132.542C157.507 133.692 157.207 134.982 156.567 136.082C154.737 140.022 150.957 135.282 148.067 137.682C141.867 141.542 135.087 141.962 128.097 141.982C125.837 143.842 123.337 143.262 120.837 142.732C118.647 141.952 114.547 143.002 115.637 139.232C115.227 136.112 108.097 137.082 106.597 139.432C104.457 142.012 101.537 142.432 98.7575 142.432C94.3475 141.292 88.5775 147.062 85.9375 141.962C85.4675 140.992 85.0675 139.692 83.5975 139.922C80.9475 140.362 81.4975 143.612 79.7875 145.132C75.8375 150.492 91.7775 148.632 76.1475 157.882C73.2275 158.922 72.3675 162.402 73.3675 165.222C72.1375 170.292 76.9175 170.472 79.3575 172.532C86.1775 173.802 91.1475 177.532 95.6975 182.432C96.4475 183.092 96.7275 183.972 96.8575 184.932C97.8875 187.722 99.4575 193.122 103.087 192.502C111.307 191.672 119.637 192.402 127.757 191.632C125.907 196.712 119.517 198.052 114.897 199.392C111.677 197.052 108.217 198.302 104.987 198.272C99.0475 198.272 93.4075 195.432 87.3475 195.492C85.0675 195.252 83.7075 194.312 83.3675 191.942C81.8475 187.212 75.8075 185.592 72.5975 182.032C70.7475 180.412 68.8675 179.852 66.4275 181.072C58.3275 184.402 46.4475 170.222 49.4475 162.102C49.3675 161.152 49.7875 160.382 50.7575 160.202C55.1975 158.782 52.0375 150.472 59.8675 153.182C61.5775 153.772 61.8775 153.052 62.0475 151.772C68.3175 137.792 56.6575 143.912 59.3575 136.872C62.0275 130.912 48.9675 132.102 54.7975 123.642C58.2575 116.542 64.2675 111.032 67.2075 103.642C68.8675 100.282 73.7875 97.2216 69.4275 93.5016C62.1775 88.0816 68.2875 87.5816 70.0975 82.2216C71.4075 77.4816 76.6875 75.2016 78.1475 70.2716C79.9375 66.6516 83.0575 65.8316 86.6575 67.4916C87.6675 67.9616 88.1775 68.5316 87.9075 69.6516C86.5375 79.5116 98.7575 75.4716 94.1675 71.6716C80.6575 59.3716 98.0075 49.8616 103.247 39.5416C103.897 37.5616 105.587 36.4116 107.827 36.3816C108.577 36.3716 109.387 36.3616 109.977 35.8316C113.967 32.2716 118.977 31.6916 123.907 31.5416C132.017 31.3916 141.477 32.3716 147.527 38.4716C148.437 39.7016 149.637 40.2016 151.217 39.9516C160.027 38.6816 167.367 44.0516 174.877 47.6516C178.767 49.3916 179.147 50.4016 178.367 54.5416C177.967 56.6816 177.647 58.7716 176.487 60.6716C174.637 64.1216 180.937 65.4116 179.317 69.3316C179.207 71.8016 183.257 69.8316 184.807 69.8816C188.857 68.9016 192.487 70.5316 192.907 74.5216C194.657 83.0116 199.667 90.5316 198.617 99.4916C198.597 104.162 202.917 109.692 200.747 114.332L200.767 114.342Z" fill="#E7B3A7"/>
<path d="M129.658 191.302C127.308 191.942 125.738 189.232 123.578 191.182C121.698 192.592 119.768 191.672 118.198 190.322C115.338 187.412 119.728 184.922 120.208 181.942C119.008 181.762 117.718 182.222 116.838 181.012C114.978 179.652 113.038 184.142 109.038 181.342C104.518 179.092 91.3075 182.802 95.2475 173.982C95.9175 170.512 94.8175 169.462 91.3875 170.342C85.4675 172.242 86.5875 163.772 80.7775 165.552C71.1975 166.572 77.4775 154.642 84.2175 158.142C84.6275 158.342 85.0875 158.532 85.7975 158.132C83.5175 154.472 86.4075 151.632 87.6675 148.622C90.9275 140.102 101.888 153.652 101.508 146.042C101.598 140.432 125.938 146.652 130.838 146.042C135.518 146.722 139.208 142.932 143.498 142.002C144.798 141.812 145.648 140.962 146.568 140.142C148.768 138.172 150.098 138.122 152.088 140.192C154.568 142.682 159.628 140.882 159.188 137.292C158.458 123.932 158.578 129.932 166.688 122.442C169.728 117.942 174.968 123.912 177.908 126.022C182.408 131.352 179.788 138.882 177.928 144.942C175.988 151.152 175.838 158.372 171.588 163.762C169.748 171.702 163.478 164.242 155.878 169.622C150.608 170.572 145.638 176.422 140.308 174.262C139.108 173.622 138.158 173.812 137.418 174.992C127.138 183.242 140.298 180.272 133.988 186.722C133.928 189.312 132.268 190.922 129.658 191.312V191.302Z" fill="#E8A696"/>
<path d="M201.327 111.692C198.647 109.602 200.527 105.032 198.167 102.292C197.757 95.8116 197.767 89.3816 194.947 83.2616C191.647 79.3616 194.177 73.0816 189.057 70.5716C187.237 68.5016 177.077 74.2616 178.297 69.8216C179.157 67.0316 178.967 66.4416 176.647 64.6616C172.477 61.8516 178.467 58.4716 177.437 54.7916C177.267 53.4316 179.167 52.5316 178.377 51.1416C171.337 45.8216 162.097 40.5316 152.947 40.4916C150.207 40.9816 148.407 41.4816 146.797 38.8816C144.007 34.8416 139.227 35.1316 135.297 33.3016C133.477 32.1516 131.597 31.4316 129.517 32.8216C128.127 33.8916 126.627 32.2216 125.277 32.1316C120.637 32.4116 115.567 32.9916 111.617 35.2716C110.257 38.7516 105.967 35.6216 104.387 38.8716C102.717 43.5316 99.9975 46.9416 95.9675 49.7016C91.9175 53.7216 89.1875 60.3316 90.5375 65.9116C90.5775 66.1916 90.5775 66.6116 90.7375 66.7016C92.5475 67.6916 92.9275 69.9216 94.5675 71.0416C95.8575 71.9016 97.8675 73.7416 95.7075 74.8416C92.3375 76.7316 93.0275 77.8516 89.0675 76.0116C88.5775 75.9816 87.9775 75.7016 87.9775 75.2716C87.9775 73.0316 85.7875 70.9816 87.5975 68.5916C86.4275 67.9116 85.0875 68.2416 84.1075 67.3416C83.4475 66.7316 82.5075 66.9716 81.7875 67.6016C79.0675 69.2016 77.7975 72.0216 76.7875 75.0416C76.7075 75.8916 75.6975 76.2316 75.0675 76.7816C68.2375 81.4716 73.5075 83.3916 66.9275 87.5216C65.5675 89.1216 67.9975 91.7716 69.4875 92.6516C72.6675 94.0716 73.1275 100.452 69.4275 101.482C68.2375 101.822 67.9975 102.882 67.9475 103.942C68.2175 106.552 64.4975 107.042 65.4775 109.782C65.6775 110.392 65.1075 110.802 64.5775 111.042C61.9575 112.232 60.7275 114.482 60.1875 117.122C59.9275 118.422 59.4375 119.132 58.1675 119.802C55.5675 121.662 54.4175 125.242 54.4075 128.442C54.5475 133.982 64.8875 130.802 59.1075 139.132C59.2175 139.612 59.4475 139.732 59.7275 139.802C63.6875 140.532 66.4075 144.532 64.4575 148.062C61.7475 149.102 63.8375 157.222 59.8975 154.032C56.9875 151.802 53.3875 154.922 53.7775 158.262C53.7075 160.402 53.6375 160.502 51.5975 160.712C48.4575 160.682 51.3975 163.962 49.8275 165.572C48.0575 168.762 52.3075 169.882 52.1775 172.812C53.0475 175.462 56.6575 176.402 58.2275 178.812C62.8475 184.172 68.5575 176.632 72.3575 180.932C76.2775 185.112 83.9275 186.902 84.3775 193.272C84.3975 194.002 84.9475 194.532 85.6675 194.532C91.1375 195.402 96.6975 195.302 101.807 197.722C102.777 198.132 103.617 197.882 104.517 197.542C105.747 197.072 106.997 196.612 108.247 197.542C110.907 198.292 112.187 195.252 114.737 198.932C111.257 202.582 105.447 202.132 100.997 203.972C97.8575 203.532 97.9475 198.322 94.1675 200.122C89.5475 201.642 85.3375 200.552 81.2875 198.322C76.2575 196.792 70.9275 196.132 65.9375 194.322C63.1575 193.502 62.4375 189.842 60.0275 188.122C56.4375 184.392 51.2075 182.322 47.4375 178.972C44.8775 177.122 45.5775 174.452 44.7075 171.952C41.8375 168.622 42.7175 154.722 46.9275 152.602C57.9475 144.312 58.8775 152.342 53.5775 138.392C53.5375 136.692 52.3675 136.652 51.1975 137.342C45.5075 140.932 39.9775 139.602 39.2375 132.342C37.7775 128.452 42.9675 124.312 46.2675 127.472C47.3375 128.552 48.1975 127.992 48.4375 126.662C49.1175 124.152 48.7475 121.282 49.9775 118.962C51.3475 116.892 52.3975 114.882 51.7575 112.182C52.0575 107.442 55.7975 108.892 55.1275 101.902C57.0775 99.4716 56.6575 96.1116 58.4575 93.6316C60.0475 88.7016 58.1275 82.7216 63.5175 79.4016C65.9275 77.4016 67.8775 74.9616 69.8575 72.6316C70.4975 69.1316 71.9075 66.1716 75.1175 64.2016C76.4475 62.6316 74.8075 58.2916 78.4775 58.7616C86.4275 59.0816 80.5875 53.0316 85.8475 51.0716C90.7375 50.0316 88.6775 41.4316 94.1675 41.8316C100.647 43.3616 99.6075 34.1716 105.497 33.6216C107.097 33.5616 107.307 31.2016 108.727 31.1316C114.017 31.1216 115.047 24.6116 121.617 27.0616C125.087 27.0016 128.377 29.3916 131.717 28.6416C133.867 27.9716 135.997 27.0616 138.217 28.4516C138.647 28.7216 139.117 28.5716 139.527 28.2816C145.447 24.9716 152.787 36.8416 160.637 37.4816C163.737 37.8216 165.217 33.7416 168.787 35.8616C171.027 36.3616 170.927 38.6016 172.817 39.7716C174.607 40.7916 175.277 42.3716 176.727 43.7816C178.077 49.5516 189.217 53.8216 184.587 60.6616C195.977 60.5116 202.377 85.1316 203.817 94.2616C204.617 96.8616 202.927 99.4516 204.277 101.912C204.727 102.932 203.857 103.622 203.907 104.672C204.337 106.012 202.847 106.942 203.177 108.152C203.297 109.342 202.327 111.112 201.317 111.702L201.327 111.692Z" fill="#E8BBB1"/>
<path d="M48.3074 180.932C41.3974 182.002 39.1374 173.762 33.9874 170.882C29.6074 167.592 30.5274 161.522 27.0074 157.692C16.2674 145.982 26.6474 143.202 24.0974 133.282C23.7974 132.712 24.6274 131.912 25.3174 131.552C29.5474 129.112 20.9874 127.252 25.9974 124.032C27.6474 121.682 31.5274 121.652 32.3874 118.962C32.6974 114.532 34.8174 110.562 35.4574 106.172C35.9274 102.922 38.4274 100.192 39.0474 96.8017C39.2574 89.3216 39.2874 82.1217 42.1074 75.0517C43.0674 71.8916 47.9574 71.6116 47.4874 67.6516C46.8874 63.9116 52.2574 64.1216 51.9774 60.5116C52.0674 57.6016 53.4774 55.4916 55.9574 54.1416C68.9174 46.8216 54.9474 34.6016 64.9974 33.6516C73.7674 36.6616 78.5574 27.4116 84.0074 32.3516C85.9974 34.2616 92.0674 32.4116 93.4574 29.9216C97.7574 23.4916 92.1774 14.4416 98.1974 8.96165C100.927 7.47165 102.387 4.30165 105.777 4.82165C109.937 5.40165 114.167 4.58165 118.537 5.49165C125.047 8.07165 130.667 12.2516 137.747 13.4216C139.157 13.1516 139.787 14.6116 141.137 14.5516C148.847 20.6516 164.237 24.6816 167.867 33.8116C157.367 38.2716 150.977 29.4416 142.227 26.2516C139.457 25.6316 136.777 24.8216 134.837 22.4816C132.857 19.6416 129.317 26.3616 126.277 26.5116C121.367 27.1916 117.017 23.9016 111.937 27.2416C109.567 28.7216 107.387 26.2616 104.887 27.1016C99.6474 27.3016 104.927 32.8316 100.997 34.5316C95.5374 42.8016 92.1074 35.6816 88.8774 42.4316C86.5574 49.4216 77.3274 52.2916 70.7874 50.9016C68.6574 49.9616 66.4474 51.7716 66.6474 54.4216C66.8474 57.1916 65.7874 58.5916 63.4074 59.5516C58.6874 62.9416 56.0174 69.1317 52.0474 73.5517C49.7674 76.9716 46.3974 80.1717 45.6974 84.3817C46.2574 87.8517 44.1674 91.1717 45.1774 94.6617C45.4174 95.4917 45.1274 96.3817 44.6674 97.1017C42.9674 99.7417 43.4374 103.152 41.5074 105.762C40.7374 106.802 41.4574 108.332 41.2974 109.642C39.3874 126.452 32.4574 134.172 41.8974 150.952C43.3474 161.112 34.5074 170.632 46.6674 178.162C47.4974 178.922 48.5974 179.372 48.3074 180.932Z" fill="#EACAC4"/>
<path d="M48.1774 181.242C45.0873 175.772 35.8174 172.592 39.9774 164.062C40.8974 161.362 39.5174 158.372 41.3174 155.862C42.2074 154.482 41.9474 153.122 41.4274 151.582C40.3373 146.512 35.4974 142.352 36.7074 137.002C37.2874 135.052 35.6374 132.152 36.1174 129.922C35.6474 126.242 39.3474 123.922 38.8074 120.442C39.5674 116.732 40.0174 112.762 40.7074 108.962C40.6174 107.242 39.8374 105.632 41.2974 104.202C41.7274 103.592 42.5774 103.142 42.4674 102.352C42.0874 98.4417 45.6674 95.8517 44.1274 91.9217C44.1774 91.3317 43.5674 90.6417 44.0674 90.0517C45.2374 88.7017 44.9574 87.2117 44.8474 85.6117C44.9874 77.1617 56.8374 68.8917 59.4774 61.6817C59.1674 59.2217 67.3074 58.6717 65.8674 56.0017C64.7074 52.8317 68.2674 48.0317 71.5474 50.3217C75.0374 51.6517 79.0874 49.5317 82.3074 48.0517C88.1774 48.4017 86.5473 39.9317 91.9973 38.5517C93.0873 38.0617 93.8074 37.5217 94.9973 38.3917C98.3074 39.5417 98.6474 33.6917 101.807 33.1017C102.957 32.4917 101.767 31.1717 101.527 30.3417C100.387 27.2017 103.207 26.2617 105.717 26.3017C106.897 25.7617 107.827 25.9317 108.817 26.7617C111.027 28.6717 112.707 24.4117 115.377 25.2617C117.877 25.5617 120.517 23.6217 122.687 25.6617C125.767 27.5417 129.527 24.0717 131.647 21.7817C133.037 19.7717 133.607 19.8017 135.067 21.6617C139.077 26.6017 146.567 24.8517 150.447 30.1917C151.957 31.8917 154.547 31.6517 156.347 33.1217C159.537 36.5117 169.027 30.9317 168.957 35.8017C162.507 35.3317 163.347 40.5517 160.297 38.2717C158.897 36.9417 157.307 36.3517 155.427 36.5817C150.227 36.2217 143.797 23.2317 138.877 30.2917C137.057 27.4517 134.627 28.2717 132.267 29.2717C130.077 30.3817 128.037 29.5517 126.277 28.3117C123.517 29.1717 121.107 27.0517 118.367 27.4917C113.187 27.2317 114.007 32.7717 110.067 31.8817C107.267 30.5717 108.697 34.5017 106.067 34.3217C100.677 34.3717 101.397 40.7217 97.2574 42.7717C94.8274 44.0217 92.3874 40.4617 91.3774 44.3417C90.6874 45.7617 89.7073 47.0217 89.8473 48.7617C88.8973 52.3217 82.3974 50.9417 84.2274 55.8717C85.0974 58.7517 80.2473 59.9017 78.0373 59.4317C77.0974 59.0617 76.6373 59.6617 76.4573 60.4917C76.5573 63.2717 76.4773 65.6617 73.3573 66.5817C71.6474 67.1817 71.3174 68.7617 71.3674 70.2617C70.8074 74.8217 66.0273 77.5417 63.1073 80.7417C59.5473 83.4317 59.7474 87.7117 59.9774 91.7317C58.2274 94.5817 58.1474 98.0717 56.3474 100.862C55.8674 101.602 55.2274 102.302 55.6273 103.142C58.0074 107.882 49.9774 109.782 52.9374 114.442C53.3974 115.232 52.9374 116.032 52.4374 116.492C48.3174 119.722 51.0574 125.832 48.0174 128.992C45.6774 130.112 45.6774 125.962 43.4074 127.032C40.8574 127.362 38.8874 129.492 39.8974 132.232C40.9074 134.532 41.1374 139.182 44.5174 138.652C47.5073 139.612 54.5774 132.562 54.3274 138.042C53.3274 142.052 60.5774 145.092 56.8074 148.212C46.3773 152.772 44.4174 152.822 43.9674 164.522C42.2274 168.942 46.4974 170.712 45.8974 174.562C46.1574 180.572 54.9674 180.922 57.0373 185.482C55.7073 186.092 55.1173 184.932 53.9973 184.542C52.7273 183.662 51.3474 183.002 49.9174 182.392C49.2774 182.132 48.1474 182.122 48.1574 181.222L48.1774 181.242Z" fill="#E8C2BA"/>
<path d="M37.0574 177.492C-2.46255 164.952 -1.87255 113.962 6.23745 80.3917C11.9074 57.3517 27.7675 39.1717 44.7575 23.3917C56.0475 9.21172 74.5975 4.94172 92.0574 5.89172C91.8475 8.89172 84.8274 7.84172 83.2974 12.3917C81.8674 15.5117 78.5774 12.1417 76.4474 14.0017C74.7775 15.2117 73.1974 16.5817 70.8774 16.1517C63.7075 21.2617 57.2674 28.4217 49.0975 32.3517C44.5374 36.6917 45.1674 41.5917 37.2775 44.3717C29.0175 47.2617 35.1474 53.1017 29.8774 55.9917C24.0074 58.4717 26.2074 65.0517 22.7574 68.9717C10.8974 81.6317 10.7574 100.432 10.2074 116.712C7.91745 140.102 22.4274 162.152 37.0574 177.492Z" fill="#F6F1F0" fill-opacity="0.8"/>
<path d="M30.2574 170.152C27.6474 170.112 21.8074 160.222 20.5674 157.632C17.2874 150.932 13.7374 144.662 11.4674 137.562C8.10738 117.812 7.98738 93.4216 16.9174 75.4516C19.0174 72.4216 21.1774 69.2716 23.7574 66.6516C22.8074 64.3516 25.1874 62.7816 25.0474 60.7016C24.5174 55.8516 32.2074 56.3116 31.7274 51.6716C30.2874 45.9616 36.3574 43.9616 40.1874 41.6616C44.3674 41.4916 44.4774 36.2416 46.7574 33.6416C47.6074 32.1316 48.7774 31.2316 50.4274 30.8416C53.7074 30.1716 55.1574 26.8716 58.1274 25.4816C60.9274 24.0216 62.3574 20.0716 65.7674 19.6116C67.2574 19.4516 67.9974 18.5416 68.5274 17.1716C69.3074 15.1416 69.7074 14.9516 71.9374 15.4516C74.9874 15.8516 76.7374 10.7016 80.1074 12.9616C83.8174 14.9816 81.0374 7.44163 94.3674 5.92163C91.5574 22.1416 88.8674 16.8816 79.5574 25.1416C78.3474 26.6816 76.0974 26.1416 74.2774 25.3616C70.8974 23.9116 69.6774 24.2316 67.8374 27.2416C64.6374 30.8316 58.2474 28.5116 57.9074 35.1516C56.6974 45.4916 53.8974 47.7116 46.4274 53.8116C41.0474 57.8716 37.8774 64.0916 32.7274 68.4316C31.3074 69.4716 30.1374 70.9216 30.0974 72.9016C30.2474 76.6416 20.8074 73.1316 19.4474 82.3016C20.0474 86.2916 16.6574 88.6416 15.9774 92.1616C14.8074 98.6316 16.4274 105.352 15.2074 111.652C13.1874 122.572 12.8474 134.922 17.4174 145.302C19.8274 154.702 26.8374 161.462 30.2674 170.152H30.2574Z" fill="#F0E5E3" fill-opacity="0.9"/>
<path d="M30.1375 170.342C23.7875 159.622 15.7975 148.872 13.7875 136.282C14.6475 133.162 11.9475 130.752 12.4575 127.942C14.9175 123.092 11.9275 117.472 14.2275 112.372C14.8275 110.062 16.0075 107.822 14.4675 105.382C14.1375 102.002 15.4675 98.2816 14.8575 94.7716C14.9475 92.5516 15.4575 90.1816 16.5875 88.3616C18.9075 86.8116 18.8375 84.5016 18.4775 82.1816C24.2575 67.4416 29.7875 78.0816 29.2375 72.5316C30.7875 66.2516 38.6275 64.1816 40.5275 57.7116C40.9675 56.5816 42.1575 56.2016 43.1775 55.7316C45.2475 55.2016 45.8275 53.2716 46.6775 51.6816C49.7275 51.8016 50.0575 47.7516 52.9475 47.6116C53.5075 47.5816 53.7275 46.8616 54.0075 46.3716C57.7775 39.6716 55.1475 27.8416 65.7375 28.1716C68.1675 27.9416 66.6675 24.3916 68.9975 24.2016C70.6775 24.1316 72.4275 22.6616 74.0575 24.3316C76.1575 26.2316 79.8275 25.4916 80.7475 22.7216C81.3575 21.2316 82.3075 20.6816 83.9775 20.6916C91.8975 20.0416 91.6675 10.3816 94.9275 5.07162C98.7875 3.92162 102.447 2.87162 106.637 2.66162C108.618 5.79162 100.007 4.01162 98.5675 9.29162C90.6475 15.8116 96.8175 21.5416 90.1675 26.2016C80.4175 36.1116 84.2875 26.1816 76.1775 30.4216C71.6075 35.4916 58.5075 27.3616 59.5275 37.5916C65.9275 56.1016 53.1875 49.5116 50.3975 58.9416C50.3975 64.5816 44.9975 58.9616 44.9875 63.2816C45.3975 75.2416 34.7075 65.0716 35.7375 72.8916C35.8275 74.5216 35.2175 75.6016 33.8975 76.3916C30.5575 77.9416 32.4975 81.4716 31.1875 84.1616C28.9575 87.8816 31.0975 93.4616 26.9175 95.8816C19.9175 99.9416 25.9175 106.182 23.5575 111.492C22.5275 113.482 22.7775 115.742 23.2075 117.862C24.7975 123.482 18.2275 126.442 18.9975 131.962C19.5575 134.722 17.2875 137.312 18.2975 139.972C21.2275 151.782 26.6175 163.372 35.3775 171.912C37.0975 173.362 39.4275 174.492 39.2775 177.472C38.5475 177.642 37.9475 177.632 37.1275 177.622C36.8975 177.202 36.8975 176.782 36.8875 176.152C34.5375 174.292 32.2375 172.512 30.1175 170.292L30.1375 170.342Z" fill="#EDDDD9"/>
<path d="M39.3373 177.762C37.0673 171.942 29.9173 170.012 28.1773 163.562C21.9473 157.082 20.1373 148.482 17.5673 140.142C16.1673 137.532 18.9073 135.472 18.2873 132.852C16.8773 126.802 23.9473 124.012 22.5373 118.062C21.9773 115.382 21.5873 112.482 23.5373 109.952C24.3773 108.862 24.0273 107.582 23.3573 106.502C21.5673 103.722 22.4673 96.5716 25.7273 95.6916C30.6773 94.1816 27.8273 88.3016 30.2673 84.6216C31.9573 81.7316 29.2673 77.7116 33.1473 75.9716C35.2973 74.7216 35.2873 74.6816 34.8173 72.2916C34.4173 63.0116 45.4073 76.2016 44.2873 61.8116C44.4773 57.5116 50.3373 64.4316 49.4373 59.1016C49.4373 56.4416 52.4873 53.2416 55.1273 53.2716C55.9873 53.2816 56.7573 53.0816 57.0773 52.4616C61.5673 47.8016 61.2773 43.8016 58.8973 38.1016C56.4573 31.7016 64.5973 30.2416 69.2273 31.8016C73.3573 33.7016 77.4073 26.4016 81.3173 28.7516C82.4473 29.8216 84.8373 31.3916 85.7173 29.2316C87.1573 26.3916 90.7673 25.8116 92.4173 23.0016C93.7673 18.7916 91.7473 14.5716 96.5573 11.1716C95.4973 15.0016 96.2373 18.8516 95.9973 22.7316C95.3773 23.8516 95.8473 24.9216 96.1073 25.9816C94.9573 27.6716 94.6973 29.8216 93.4873 31.4216C92.2373 33.2516 89.6873 32.8516 87.8473 33.6116C85.8573 34.6616 84.3073 34.0116 82.8273 32.5216C79.9673 29.0416 76.3673 34.1516 73.0073 34.4616C69.5673 35.6616 66.0373 33.3616 62.8273 34.8916C60.2973 36.1516 62.0373 40.1016 62.8773 42.1516C64.0173 44.3316 62.1773 47.1916 61.6173 49.3416C60.2473 53.8816 54.2073 54.2116 52.9673 58.7016C53.3373 66.3216 48.4273 62.8116 48.2373 67.1316C48.5373 74.4316 42.3173 70.1316 41.2473 81.0516C38.3173 87.1316 41.6073 93.5916 38.9573 99.6416C38.9073 102.632 35.7973 104.062 35.8273 107.182C36.1373 111.122 33.2473 114.572 33.1873 118.142C34.6973 121.922 28.8873 121.332 27.6473 123.422C27.4173 125.232 22.9473 125.432 25.4273 127.252C31.9273 132.182 23.4473 130.732 24.7173 134.482C27.7373 139.672 25.4673 137.932 23.4373 141.962C21.4573 149.552 24.9373 154.092 29.5373 159.682C31.3873 170.532 36.7573 170.682 42.5573 178.572C41.7673 179.672 40.1273 178.272 39.3573 177.722L39.3373 177.762Z" fill="#EBD4CF"/>
<path d="M57.2274 185.582C62.7674 186.232 64.0374 196.132 70.1574 194.472C73.4974 193.612 74.8774 198.312 78.3174 196.502C80.3174 196.032 81.8374 198.092 83.5974 198.752C86.5074 199.652 90.3574 200.862 93.1574 199.642C95.2574 198.412 98.9174 199.062 99.1474 201.912C99.2174 202.462 99.9274 202.922 100.507 203.532C99.9774 205.462 98.3674 204.472 96.9474 204.792C90.8974 205.742 85.0774 203.222 80.0874 200.812C76.4674 199.972 72.8274 197.892 68.6674 198.982C67.6774 198.772 67.0874 197.922 65.8874 197.972C64.7674 197.132 63.8574 196.122 62.8574 195.162C62.5574 194.882 62.1074 194.382 61.7374 194.032C61.2074 191.942 58.7374 190.692 58.3574 188.592C57.6774 187.722 56.8374 186.772 57.2174 185.572L57.2274 185.582Z" fill="#E8C2BA"/>
<path d="M204.457 101.812C202.957 101.802 202.617 100.832 202.997 99.5716C204.217 94.3016 201.627 89.1416 201.007 83.9616C199.357 80.8116 198.647 77.3116 197.527 74.0116C193.477 70.4416 191.477 59.9616 184.927 61.8216C180.587 61.6016 186.507 58.4216 185.377 55.9216C201.477 71.9916 205.307 78.4616 204.467 101.812H204.457Z" fill="#EBD4CF"/>
<path d="M68.6673 199.182C68.6073 194.592 76.2373 200.902 79.1173 199.302C80.4673 199.032 81.8374 200.452 82.8774 201.462C84.1174 202.662 85.3673 203.302 87.0873 203.092C87.8373 202.702 89.5473 203.922 88.4073 204.742C86.9373 204.772 85.6073 204.762 84.0273 204.732C83.3773 204.272 82.7573 204.222 82.1473 203.792C79.4873 203.842 78.2174 201.772 75.5174 201.972C72.9074 201.822 70.7673 200.622 68.6773 199.172L68.6673 199.182Z" fill="#EACAC4"/>
<path d="M98.6274 9.44166C98.6574 2.74166 104.057 6.50166 106.857 2.88166C108.997 1.13166 117.087 2.98166 118.657 5.33166C117.387 6.54166 115.867 6.17166 114.457 5.83166C112.287 5.03166 110.287 6.66166 108.127 5.83166C103.817 4.05166 101.907 7.58166 98.6274 9.43166V9.44166Z" fill="#EBD4CF"/>
<path d="M168.907 34.1417C168.587 34.2417 168.287 34.1317 167.897 33.8717C162.617 26.2117 153.027 22.9017 145.517 17.7917C143.757 17.1717 141.937 17.0217 141.317 14.7517C148.007 17.1217 167.657 27.2817 168.907 34.1317V34.1417Z" fill="#F0E5E3" fill-opacity="0.9"/>
<path d="M172.588 167.942C168.408 175.792 155.468 181.352 147.188 185.022C146.158 182.882 148.258 182.922 149.368 181.982C158.058 178.752 164.808 172.092 172.588 167.942Z" fill="#EBD4CF"/>
<path d="M185.488 149.912C185.298 147.342 188.268 145.642 188.178 142.892C188.968 137.962 191.448 131.672 196.318 129.552C196.358 131.452 194.868 132.282 193.738 133.332C188.208 137.712 191.558 145.882 185.488 149.912Z" fill="#EBD4CF"/>
<path d="M149.628 182.062C149.378 183.812 146.898 182.962 146.968 185.032C143.018 187.932 137.768 188.542 133.038 189.622C132.978 189.072 133.128 188.622 133.468 187.832C138.768 185.402 144.158 182.062 149.628 182.062Z" fill="#E8BBB1"/>
<path d="M172.797 167.112C177.717 163.852 178.967 158.082 182.857 154.542C184.197 156.692 173.177 170.902 172.797 167.112Z" fill="#EBD4CF"/>
<path d="M132.727 189.632C136.547 188.042 140.487 187.312 144.527 186.172C142.607 189.532 133.577 189.752 129.607 191.472C130.407 190.592 131.217 189.592 132.727 189.632Z" fill="#EBD4CF"/>
<path d="M137.798 13.2716C136.708 14.9516 125.698 10.5416 124.958 8.55164C129.308 9.80164 133.398 11.5716 137.798 13.2716Z" fill="#F0E5E3" fill-opacity="0.9"/>
<path d="M96.8774 204.952C97.7274 203.592 99.2574 204.652 100.527 203.802C102.557 202.152 104.987 202.812 107.287 202.042C107.347 203.162 106.327 203.292 105.597 203.362C102.487 203.492 100.047 206.172 96.8674 204.962L96.8774 204.952Z" fill="#EDDDD9"/>
<path d="M199.167 120.122C201.217 122.262 198.307 127.642 196.607 129.682C195.497 128.112 196.487 126.822 197.177 125.272C197.847 123.432 197.577 121.492 199.177 120.122H199.167Z" fill="#EBD4CF"/>
<path d="M199.398 119.932C198.078 121.352 199.138 125.462 196.798 125.292C196.608 123.012 196.618 119.712 199.258 118.832C199.388 119.242 199.398 119.492 199.398 119.932Z" fill="#E8BBB1"/>
<path d="M109.867 201.872C110.257 199.922 113.937 199.392 115.787 199.192C114.467 201.092 112.217 201.362 109.867 201.872Z" fill="#EDDDD9"/>
<path d="M57.0275 185.562C57.5975 186.392 57.9675 187.212 58.3475 188.212C56.3175 187.922 55.4375 186.022 53.9475 184.612C55.0975 184.162 55.8175 185.252 57.0375 185.562H57.0275Z" fill="#EBD4CF"/>
<path d="M183.068 52.1617C181.538 51.5617 180.538 50.2517 179.728 48.5817C181.438 49.0117 182.738 50.0317 183.068 52.1617Z" fill="#EDDDD9"/>
<path d="M201.137 111.842C201.847 111.302 201.537 110.212 202.557 109.942C202.637 111.582 202.397 113.212 200.827 114.462C200.807 113.702 200.967 112.872 201.137 111.842Z" fill="#EBD4CF"/>
<path d="M88.4175 204.942C88.3175 204.602 88.4175 204.452 88.7075 204.272C89.8675 204.302 90.9275 203.992 92.0775 204.622C91.0675 205.692 89.8175 205.352 88.4175 204.942Z" fill="#EDDDD9"/>
<path d="M62.9075 195.362C64.3175 195.402 65.1075 196.352 65.6875 197.762C64.2275 197.792 63.4875 196.782 62.9075 195.362Z" fill="#EBD4CF"/>
<path d="M183.237 154.432C183.067 153.252 183.037 151.972 184.517 151.162C184.907 152.452 184.617 153.582 183.237 154.432Z" fill="#EBD4CF"/>
<path d="M59.5674 190.832C61.2674 190.922 61.4774 192.292 61.7574 193.822C60.5874 193.352 60.1374 192.142 59.5674 190.832Z" fill="#EBD4CF"/>
<path d="M175.118 41.4917C174.168 41.6117 173.598 40.9817 173.018 40.0917C173.958 39.9317 174.888 40.0417 175.118 41.4917Z" fill="#F0E5E3" fill-opacity="0.9"/>
<path d="M176.848 43.7117C175.978 43.8817 175.398 43.4817 175.198 42.3917C176.048 42.2417 176.628 42.6417 176.848 43.7117Z" fill="#EDDDD9"/>
<path d="M82.0574 203.882C82.6574 203.682 83.3674 203.512 83.7374 204.532C83.1274 204.752 82.4274 204.892 82.0574 203.882Z" fill="#EDDDD9"/>
<path d="M48.2275 181.822C48.7075 181.502 50.0875 181.752 50.0475 182.582C49.2675 182.692 48.5375 182.862 48.2275 181.822Z" fill="#F0E5E3" fill-opacity="0.9"/>
<path d="M73.5874 201.612C74.0674 201.402 74.5974 201.332 75.1674 201.822C74.6474 202.642 74.0774 202.672 73.5874 201.612Z" fill="#F0E5E3" fill-opacity="0.9"/>
<path d="M117.257 199.142C117.097 198.272 117.597 197.982 118.607 198.082C118.677 198.882 118.167 199.142 117.257 199.142Z" fill="#EDDDD9"/>
<path d="M204.057 104.732C203.237 104.222 203.217 103.672 204.237 103.162C204.497 103.642 204.557 104.152 204.057 104.732Z" fill="#EBD4CF"/>
<path d="M94.8575 4.96168C94.9575 5.27168 94.8575 5.58168 94.6175 5.98168C94.2275 6.07168 93.9675 6.07168 93.5275 6.06168C93.3975 5.23168 93.8775 4.92168 94.8575 4.95168V4.96168Z" fill="#F6F1F0" fill-opacity="0.8"/>
<path d="M199.468 118.822C199.378 118.992 199.118 118.982 198.988 118.972C198.918 118.352 198.768 117.632 199.738 117.272C200.008 117.752 199.818 118.212 199.468 118.822Z" fill="#EBD4CF"/>
<path d="M50.0675 182.812C49.9075 182.732 49.9075 182.452 49.9075 182.322C50.5275 182.242 51.2275 182.092 51.5675 183.062C51.0975 183.322 50.6575 183.142 50.0675 182.812Z" fill="#EBD4CF"/>
<path d="M70.2874 200.412C70.8374 200.292 71.5474 200.152 71.8974 201.132C71.2674 201.402 70.7474 201.132 70.2874 200.412Z" fill="#F0E5E3" fill-opacity="0.9"/>
<path d="M145.967 186.052C145.867 185.552 146.067 185.162 146.797 185.042C146.917 185.542 146.757 185.972 145.967 186.052Z" fill="#EBD4CF"/>
<path d="M41.4375 179.002C41.6675 178.812 41.9175 178.812 42.3675 178.802C42.5675 179.042 42.5675 179.282 42.5875 179.712C42.0675 179.892 41.6275 179.772 41.4375 179.002Z" fill="#F0E5E3" fill-opacity="0.9"/>
<path d="M61.7874 194.212C62.2774 194.082 62.7074 194.222 62.8574 194.972C62.3574 195.122 61.9274 194.972 61.7874 194.212Z" fill="#EBD4CF"/>
<path d="M203.317 108.092C202.527 108.072 202.017 107.802 203.167 107.122C203.337 107.362 203.347 107.622 203.317 108.092Z" fill="#EBD4CF"/>
<path d="M97.1373 4.41162C97.1973 4.92162 97.2073 5.57162 96.2673 5.08162C96.3473 4.64162 96.6173 4.46162 97.1373 4.41162Z" fill="#F0E5E3" fill-opacity="0.9"/>
<path d="M140.187 14.3117C139.707 14.5117 139.267 14.4017 139.047 13.6617C139.537 13.4417 139.967 13.5617 140.187 14.3117Z" fill="#F0E5E3" fill-opacity="0.9"/>
<path d="M127.668 191.372C127.888 191.252 127.998 191.262 128.258 191.322C128.408 191.532 128.018 191.832 127.798 191.792C127.688 191.692 127.618 191.602 127.668 191.372Z" fill="#EBD4CF"/>
<path d="M127.747 191.042C127.777 191.242 127.767 191.512 127.757 191.652C124.427 192.592 121.267 193.232 117.807 192.912C116.157 192.582 114.367 194.032 112.837 193.392C108.217 190.382 101.127 196.852 98.6274 190.482C98.1474 188.202 95.4774 187.162 96.1374 184.492C96.1774 184.152 96.0574 183.582 95.8274 183.462C93.6274 182.322 92.7974 179.642 90.3974 178.722C89.3474 178.322 88.5074 177.742 88.0974 176.472C85.0874 173.222 78.7774 175.202 75.6774 171.022C74.2174 169.572 70.5074 169.632 72.3974 166.822C74.2874 164.212 69.6574 163.972 71.9774 161.222C73.0774 159.832 74.1274 157.962 75.5974 157.002C78.6774 157.242 79.6374 154.312 81.5774 152.912C83.3874 151.602 82.9374 150.222 80.7874 149.512C78.0474 148.762 77.6174 147.302 78.3474 145.252C81.3274 144.032 79.9174 139.882 83.2074 139.022C84.3274 138.522 85.1974 138.692 85.7474 139.892C87.7374 147.812 93.5474 139.582 98.6374 141.922C100.247 142.412 101.517 140.622 103.207 140.982C107.777 139.392 107.067 134.942 114.037 137.032C119.427 136.802 114.147 140.612 116.867 141.452C119.267 141.052 121.347 142.472 123.737 142.402C127.467 143.262 127.127 139.982 129.657 140.782C136.077 142.542 143.007 139.852 148.537 136.572C151.047 133.962 154.517 139.582 156.017 135.832C158.077 132.762 154.187 128.592 157.837 126.562C159.097 125.472 161.147 124.672 161.917 123.252C162.007 121.432 163.407 120.552 164.417 119.182C167.037 119.142 169.707 118.492 172.167 119.942C175.147 120.522 173.947 114.502 177.497 114.902C178.087 114.892 178.667 114.342 179.237 114.032C181.837 112.442 181.707 116.292 180.627 117.592C180.107 119.092 177.487 120.442 178.297 122.042C182.507 124.942 180.547 117.722 191.137 123.752C192.567 124.062 193.617 127.192 193.107 128.592C192.027 131.122 188.427 128.082 187.837 131.502C187.697 132.222 186.517 131.952 185.787 131.972C176.707 131.512 184.667 140.572 180.817 145.032C180.047 146.082 179.997 147.392 180.437 148.552C182.227 152.022 175.747 151.712 177.797 155.372C178.657 160.262 171.807 162.942 172.867 167.862C168.257 169.182 165.077 174.092 160.467 174.202C156.957 173.532 154.487 175.212 152.617 177.942C151.757 179.202 150.767 180.052 149.207 180.072C143.027 180.722 138.937 185.392 133.407 187.852C132.117 186.882 133.487 185.862 134.387 185.352C138.837 181.932 130.487 182.482 132.017 179.532C143.547 165.122 136.457 180.132 149.547 171.242C150.987 169.852 151.947 169.842 153.797 170.232C155.267 168.292 158.197 168.722 159.597 166.642C161.967 164.182 169.477 170.302 170.547 164.632C171.787 160.692 175.407 157.932 175.177 153.442C175.177 152.502 175.047 151.522 175.857 150.802C178.337 148.942 175.477 145.882 177.147 144.012C178.687 142.102 179.637 139.332 179.417 137.042C178.997 136.032 179.197 135.052 179.467 134.022C180.607 129.802 178.137 126.292 174.327 124.122C171.987 123.382 169.947 119.502 167.677 122.272C166.347 124.752 164.737 126.142 162.007 126.702C155.947 128.882 163.587 138.702 157.947 141.392C150.917 144.932 151.567 136.212 147.337 140.422C145.467 143.732 141.247 141.732 139.387 144.722C137.627 146.372 134.387 145.462 132.287 146.892C131.977 147.062 131.457 147.272 131.227 147.132C129.137 145.922 126.607 147.132 124.547 145.872C120.037 145.272 115.297 146.192 110.797 144.482C108.577 143.942 106.437 145.082 104.157 144.472C101.627 143.762 102.017 146.112 102.847 147.692C103.127 151.402 96.7074 148.452 95.0874 147.322C92.5474 144.912 88.5074 147.012 87.7174 150.072C87.6374 152.722 83.8874 154.662 86.4374 157.102C86.7574 157.762 87.4474 158.482 86.9074 159.172C86.2674 159.992 85.2974 159.652 84.6174 159.152C81.6874 156.792 75.1974 159.682 76.6874 163.432C77.5374 166.222 81.2474 164.302 83.4774 164.712C87.6574 164.692 86.2874 171.952 91.4674 169.402C92.8174 169.242 95.0974 168.072 95.6774 169.902C98.2474 174.802 90.3974 180.232 100.627 178.952C101.157 178.652 101.757 178.982 102.137 179.432C104.727 181.892 105.117 177.282 110.497 181.232C113.997 183.382 115.697 176.702 117.747 180.952C118.787 182.552 119.037 180.542 119.967 180.222C120.967 180.912 122.237 183.112 120.587 183.812C118.887 185.032 116.647 188.762 118.897 190.122C120.607 191.392 122.457 191.572 123.537 190.572C124.891 189.312 126.304 189.472 127.777 191.052L127.747 191.042Z" fill="#E9AD9F"/>
<path d="M120.487 115.002C119.187 115.482 117.787 116.852 116.687 115.732C115.857 114.412 114.767 113.762 113.197 113.802C111.997 113.742 111.397 111.872 110.387 111.572C107.147 110.982 105.697 108.162 103.517 106.262C101.997 104.782 96.7074 103.952 99.1674 101.032C100.397 99.8116 102.247 97.9516 100.357 96.3316C98.5474 94.1516 103.527 92.2116 99.6174 89.0816C95.9874 85.9816 102.427 83.3016 101.827 79.5516C102.467 77.2416 103.217 73.7516 106.237 73.8016C106.767 73.8416 107.347 73.8716 107.877 73.2616C104.157 71.2716 100.367 69.2216 100.687 64.3016C100.337 60.6016 99.7674 54.4816 104.017 52.9616C107.037 53.3016 110.627 50.4316 112.887 53.4816C114.327 54.5916 116.607 53.7816 118.267 54.7016C127.697 57.3716 123.947 69.7416 129.317 75.6916C133.487 79.0716 135.917 83.7416 138.767 88.1016C139.857 90.0716 137.247 92.3216 136.767 94.2816C135.357 98.2716 140.917 94.3916 142.487 97.3016C143.077 97.8516 143.787 97.9516 144.497 98.1816C146.787 98.7916 146.577 100.442 145.187 101.912C143.747 107.002 137.967 103.322 134.967 106.532C133.857 107.492 132.877 107.922 131.427 107.332C128.297 106.142 126.657 110.432 125.187 112.602C124.647 114.642 122.277 114.282 120.507 115.012L120.487 115.002Z" fill="#E9AD9F"/>
<path d="M171.557 58.4017C169.367 60.8417 169.337 65.9817 171.257 68.4817C172.387 69.4117 172.527 70.3317 171.607 71.6317C170.617 73.2217 171.557 75.5517 170.057 77.0017C165.277 75.8917 163.707 70.7217 158.047 72.1217C153.797 72.0917 157.057 69.1017 150.757 68.0717C147.767 66.6617 141.987 73.9517 140.787 67.8617C140.327 64.7417 143.137 60.2317 139.687 58.2317C137.677 56.7217 125.357 50.5417 128.757 48.2417C132.317 45.5317 125.737 43.7917 128.487 40.8217C132.337 35.4817 136.817 42.8817 141.537 43.0417C143.477 43.8417 144.897 49.3617 147.787 46.6617C151.767 43.2917 157.057 42.9817 161.197 46.0917C165.057 48.5217 164.947 54.5517 170.387 55.1717C172.257 55.6817 172.367 56.0417 171.557 58.4117V58.4017Z" fill="#E9AD9F"/>
<path d="M164.447 118.742C160.377 119.422 157.077 115.282 152.817 117.112C151.777 117.472 150.837 117.232 150.937 115.882C150.797 112.192 145.967 111.302 147.687 106.962C148.177 104.502 149.597 100.332 152.767 102.552C156.857 109.612 169.087 107.002 164.387 111.422C161.097 113.892 164.877 115.432 164.457 118.742H164.447Z" fill="#E9AD9F"/>
<path d="M189.388 104.682C193.278 107.852 193.758 104.492 193.568 110.702C194.268 115.232 189.368 113.202 186.738 113.612C185.358 113.822 184.448 112.272 183.138 111.752C182.178 111.372 182.508 110.092 182.528 109.182C183.528 104.432 180.868 98.7316 184.858 94.8916C185.838 94.1116 186.408 94.1316 186.688 95.3116C187.208 97.4616 188.528 99.4216 188.158 101.782C187.988 102.872 188.358 103.812 189.378 104.682H189.388Z" fill="#E9AD9F"/>
<path d="M179.328 82.0916C179.818 86.0816 182.838 82.7416 185.018 84.5516C187.218 86.3216 184.438 87.3116 183.508 88.7416C182.248 90.6316 180.788 90.8516 179.578 89.0816C177.538 86.1516 174.478 89.6216 171.728 85.8316C170.488 84.4716 172.068 82.6016 171.808 80.9716C171.878 79.5116 172.278 79.2516 173.538 80.1216C175.398 82.2516 178.498 78.8216 179.318 82.0916H179.328Z" fill="#E9AD9F"/>
<path d="M196.438 125.272C196.868 125.182 197.118 125.182 197.558 125.182C197.648 126.612 196.388 127.712 196.598 129.452C195.458 129.702 194.948 130.702 193.978 131.332C194.198 129.222 194.848 127.142 196.448 125.272H196.438Z" fill="#EFB6A5"/>
<path d="M83.3475 79.3816C85.4175 80.8716 83.3475 82.3416 81.5975 82.1216C80.1275 81.2416 81.1275 79.3216 83.3475 79.3816Z" fill="#E8BBB1"/>
<path d="M184.447 117.492C185.037 116.832 185.767 116.402 186.137 117.112C186.837 118.492 183.617 119.662 184.447 117.492Z" fill="#E9AD9F"/>
<path d="M89.2074 185.302C89.0974 184.482 89.5474 184.482 90.0274 184.642C90.5974 185.152 89.8674 185.732 89.2074 185.302Z" fill="#E9AD9F"/>
<path d="M101.307 161.782C102.587 166.052 96.4673 161.382 94.6173 161.832C93.4173 161.892 93.2973 161.012 93.3973 160.092C94.0673 157.072 98.9573 161.772 101.317 161.772L101.307 161.782Z" fill="#E9AD9F"/>
<path d="M76.9674 43.3817C77.0274 45.8417 73.6374 45.6317 73.1574 48.0917C72.4174 50.0417 69.9374 47.9617 71.0474 46.5317C75.2974 44.2617 71.0874 42.7517 73.2574 40.7717C74.9874 39.8817 76.7174 41.6617 76.9674 43.3717V43.3817Z" fill="#E8C2BA"/>
<path d="M45.3774 122.922C45.1374 123.942 45.9774 125.402 44.5874 125.372C43.4674 125.352 43.7474 123.942 43.6874 123.052C43.2274 120.372 45.6874 119.832 45.3774 122.922Z" fill="#E8BBB1"/>
<path d="M30.1575 170.532C32.7375 171.612 34.7675 173.592 36.8275 175.812C33.9675 175.132 31.8375 173.232 30.1575 170.532Z" fill="#F0E5E3" fill-opacity="0.9"/>
<path d="M133.627 187.832C134.677 185.652 138.117 185.772 139.357 183.392C140.917 181.812 143.567 182.072 145.137 180.242C147.057 178.262 151.027 180.762 152.097 177.342C153.267 174.692 157.537 172.642 160.307 173.432C164.527 173.982 166.407 168.712 171.017 168.652C161.067 179.152 146.747 183.172 133.627 187.832Z" fill="#E7B3A7"/>
<path d="M103.127 84.8617C106.987 82.6217 102.217 78.2017 107.307 78.4017C109.257 78.9717 110.887 78.6517 112.687 77.9617C116.257 78.7517 120.317 80.0317 123.877 79.7217C128.487 77.6517 129.967 82.4317 132.507 85.0517C133.727 85.9617 133.267 87.4617 133.447 88.7117C135.117 93.3917 129.207 97.6817 125.707 99.5517C124.907 99.7117 124.687 100.822 125.317 101.422C128.107 104.262 124.647 106.782 123.267 109.122C121.057 112.672 117.917 111.742 114.817 110.062C110.277 109.242 108.677 105.572 107.007 102.002C108.977 90.3017 103.317 91.5517 103.137 84.8717L103.127 84.8617Z" fill="#E8A696"/>
</g>
<defs>
<filter id="filter0_f_53_237" x="0.327393" y="0.69165" width="205.74" height="206.15" filterUnits="userSpaceOnUse" color-interpolation-filters="sRGB">
<feFlood flood-opacity="0" result="BackgroundImageFix"/>
<feBlend mode="normal" in="SourceGraphic" in2="BackgroundImageFix" result="shape"/>
<feGaussianBlur stdDeviation="0.75" result="effect1_foregroundBlur_53_237"/>
</filter>
<clipPath id="clip0_53_237">
<rect width="202.74" height="203.15" fill="white" transform="translate(1.82739 2.19165)"/>
</clipPath>
</defs>
</svg>
