<svg width="201" height="211" viewBox="0 0 201 211" fill="none" xmlns="http://www.w3.org/2000/svg">
<g opacity="0.7" clip-path="url(#clip0_53_373)" filter="url(#filter0_f_53_373)">
<path d="M22.337 48.2369C26.197 44.1269 28.827 39.2569 33.657 36.0569C37.217 34.8669 38.377 30.9169 42.297 30.8469C44.807 30.6169 46.997 30.0369 46.737 26.7169C46.967 23.5169 51.827 25.9769 53.527 23.3969C56.937 20.8269 62.287 23.3169 59.117 27.6369C55.587 31.5069 51.807 35.0169 48.957 39.4969C46.917 41.9069 46.907 42.6469 49.697 43.8269C51.587 44.6169 51.807 45.9669 51.217 47.5469C49.937 51.6869 50.077 56.5469 51.757 60.3869C58.587 66.3469 48.337 79.0769 52.097 84.7369C54.377 87.3269 54.997 90.5769 55.617 93.7469C56.317 98.6569 67.787 98.8369 61.517 105.327C59.197 107.647 58.7137 110.38 60.067 113.527C56.597 126.447 45.557 125.367 46.877 131.847C48.277 135.807 54.297 134.657 57.517 136.697C58.107 136.867 58.867 137.107 59.057 137.627C60.297 140.917 63.657 141.367 66.107 143.017C72.977 146.557 71.037 139.017 73.267 135.697C76.247 132.317 80.187 135.957 83.627 133.977C88.467 130.907 95.967 137.557 91.117 141.437C83.787 145.287 92.717 153.367 86.257 156.907C85.017 157.787 79.857 162.697 83.197 163.487C88.747 164.357 93.597 167.647 99.347 165.877C102.837 165.377 106.567 170.907 109.027 165.987C111.967 161.177 117.417 169.097 118.897 162.217C121.807 152.417 128.557 157.507 129.037 151.157C129.857 146.787 129.827 146.747 134.307 146.147C135.777 145.947 136.687 145.157 137.497 144.037C141.737 138.287 148.207 134.547 151.337 127.897C153.797 123.157 150.697 116.627 156.307 113.447C159.377 111.457 154.557 108.327 157.277 105.767C158.897 103.347 158.767 100.237 160.607 97.6769C162.007 96.9569 162.267 95.7869 162.667 94.6569C163.317 92.8069 163.697 90.7569 165.877 89.6469C167.977 90.3969 167.237 91.7869 166.667 92.8769C165.557 94.9969 165.867 96.8969 167.547 98.3569C169.497 100.047 169.367 102.807 171.257 104.697C172.917 106.707 172.517 108.237 170.477 109.307C169.357 109.887 169.007 110.597 169.457 111.757C169.917 116.197 164.617 119.797 161.557 122.537C160.697 123.067 160.597 123.767 160.667 124.617C160.987 131.597 155.807 135.607 151.807 140.417C148.597 141.907 146.137 143.777 145.557 147.567C143.627 148.617 143.017 150.997 140.617 151.427C138.307 151.607 137.157 152.927 135.687 154.327C130.117 159.227 126.147 164.997 121.847 171.127C121.527 172.157 120.537 172.697 119.397 172.617C104.967 172.977 90.387 173.637 76.867 167.647C72.007 164.827 63.267 162.257 62.307 156.027C62.137 153.497 60.937 152.147 58.267 152.017C53.677 151.377 47.627 149.107 46.547 144.107C45.937 138.067 39.947 136.137 36.877 131.567C34.817 129.177 38.247 122.797 41.297 125.077C43.877 126.477 48.207 122.267 46.747 119.787C43.787 115.087 45.927 110.367 46.437 105.577C46.857 101.657 48.097 97.6569 44.847 93.8769C41.437 90.3669 45.867 84.4269 43.057 80.7969C41.297 78.1569 42.387 74.3469 38.937 72.6269C37.657 71.8069 37.507 70.1969 36.777 68.9969C35.587 65.2369 30.877 63.3569 30.987 59.3069C31.997 49.1269 16.387 57.0669 22.307 48.2169L22.337 48.2369Z" fill="#FEE67B"/>
<path d="M46.607 122.827C44.187 130.347 39.307 122.827 38.557 126.057C38.227 127.467 36.817 128.347 36.777 129.887C36.727 131.577 38.577 131.657 39.207 132.827C40.097 134.477 41.537 135.607 43.227 136.457C48.147 139.197 45.637 146.577 51.217 148.747C54.557 151.717 63.307 149.877 63.007 154.827C62.647 159.437 65.877 160.777 69.027 162.097C74.117 164.497 74.397 167.417 80.737 167.757C86.487 170.687 93.267 170.477 99.037 172.667C102.107 172.167 105.257 172.537 108.197 171.567C111.537 172.867 114.797 171.077 118.147 171.607C123.267 173.437 120.417 166.617 124.577 166.077C128.477 163.587 127.617 157.307 133.567 155.817C136.607 153.647 134.847 150.857 140.167 150.677C140.617 150.897 140.857 151.307 140.707 151.467C137.747 154.537 139.917 157.367 141.087 160.247C142.087 162.557 139.247 164.567 139.917 167.137C139.057 170.957 136.317 173.047 133.457 174.757C131.717 175.797 130.347 176.837 129.407 178.657C127.647 184.127 121.557 177.597 114.477 179.617C101.527 185.557 89.177 176.207 77.097 173.837C70.987 175.527 72.827 166.507 66.837 166.407C64.557 166.017 62.427 164.417 60.197 163.417C56.337 160.997 57.987 153.547 51.537 155.927C48.987 156.637 46.877 154.307 44.377 155.277C42.297 156.067 40.607 155.377 39.117 153.867C29.257 147.007 33.817 138.367 26.747 139.387C24.977 139.517 21.497 136.967 20.687 134.917C20.217 133.727 19.427 129.707 17.867 132.367C15.927 135.747 15.857 135.767 12.197 134.417C9.51696 133.307 7.99696 135.937 5.31696 135.777C-0.0430446 128.487 4.19696 115.647 2.89696 106.887C3.93696 88.1969 16.067 104.157 9.69696 88.8769C9.07696 87.1869 9.81696 86.1469 11.527 86.3069C15.227 86.6469 18.597 85.4369 21.977 84.3169C27.817 82.4469 27.797 90.9769 32.847 92.3869C35.757 93.8869 35.837 97.5869 37.777 99.9669C38.787 101.937 40.827 103.807 41.547 105.827C41.247 109.567 43.757 112.767 43.437 116.547C43.227 119.077 45.337 120.717 46.607 122.847V122.827Z" fill="#FFE76C"/>
<path d="M38.2269 191.187C35.0769 186.907 28.4869 185.467 27.0869 180.087C38.1269 167.307 28.0769 171.397 46.0069 162.627C49.9369 160.187 49.2269 165.307 51.7869 166.787C57.9669 168.917 54.9669 182.597 62.3969 178.737C65.0569 176.837 67.3469 178.727 69.9569 178.997C75.1469 178.217 81.3469 178.377 85.9369 180.887C89.6769 182.167 93.8369 180.197 97.5469 183.147C101.297 185.897 105.797 185.397 110.017 183.467C125.487 184.677 130.877 187.167 133.257 203.467C122.107 209.757 108.927 207.767 96.5269 207.707C94.6569 206.267 92.1969 207.707 90.1469 206.737C88.9869 205.907 88.0869 206.567 86.7169 206.397C85.0869 205.407 83.3569 206.267 81.7069 205.397C79.5169 204.497 77.2469 202.747 74.8269 203.207C72.9769 203.427 71.8169 201.387 69.9269 201.957C68.4669 201.837 66.7669 201.007 65.6769 200.077C64.9369 198.517 63.5769 198.957 62.2869 198.687C61.1569 198.557 60.2869 197.907 59.2369 197.507C58.1969 197.677 58.1069 196.667 57.3669 196.297C56.3869 196.297 55.6869 195.607 54.8069 195.327C51.6069 195.517 48.4369 195.787 45.3869 194.527C44.6569 193.307 43.4869 193.657 42.4069 193.267C41.0969 192.957 40.6369 191.557 39.1969 191.737C38.7569 191.647 38.5269 191.537 38.2369 191.197L38.2269 191.187Z" fill="#FFE652"/>
<path d="M133.237 203.537C133.037 202.747 133.097 201.977 132.517 201.447C130.457 199.937 131.847 197.437 130.497 195.607C127.907 189.307 125.967 186.947 119.507 185.127C114.887 186.297 110.287 182.667 105.907 185.757C103.757 187.157 101.987 184.787 99.777 185.017C98.587 185.087 97.417 184.717 96.717 183.857C94.497 181.107 91.517 181.747 88.817 182.187C86.967 182.487 85.647 182.537 84.617 180.867C84.097 180.017 83.247 180.147 82.437 180.107C78.427 180.657 74.697 178.007 70.807 179.907C67.907 180.797 65.607 176.617 62.887 179.417C60.057 181.517 56.027 180.727 56.327 176.397C56.407 168.317 48.767 168.877 48.797 162.307C24.487 172.277 39.987 172.347 26.397 180.317C16.887 171.237 4.96703 152.727 8.40703 139.337C8.91703 137.087 2.96703 138.587 4.73703 135.497C6.16703 135.537 6.93703 134.567 7.93703 134.117C12.517 130.577 14.867 138.227 17.057 132.487C16.987 128.897 20.297 129.337 20.777 132.497C21.557 133.867 21.007 136.157 22.937 136.537C24.957 136.917 25.257 140.267 27.627 138.177C28.627 137.387 29.747 137.677 30.517 138.817C35.457 148.097 29.437 143.947 40.307 153.917C42.527 156.757 44.827 152.777 47.257 154.357C48.987 155.197 50.607 155.917 52.647 154.557C54.757 153.297 58.237 156.417 58.267 159.057C58.547 163.227 62.287 162.947 65.037 164.637C66.827 167.077 70.677 164.727 71.677 167.987C72.917 169.737 73.047 174.297 75.947 173.247C82.117 171.837 86.787 177.787 92.957 178.407C96.247 179.257 99.877 178.807 102.867 180.917C107.527 182.397 112.827 177.567 117.567 178.537C118.347 178.877 119.237 179.127 119.957 178.837C123.297 176.587 126.327 183.347 128.317 179.137C130.157 173.447 137.397 173.717 139.177 167.447C142.977 168.047 140.657 173.037 137.837 173.977C132.527 176.757 136.747 181.307 134.797 185.347C133.707 187.157 134.287 188.577 135.997 189.377C139.677 191.107 142.107 194.337 145.337 196.927C145.587 199.587 135.727 203.017 133.267 203.537H133.237Z" fill="#FFE863"/>
<path d="M180.687 47.5169C193.107 68.1269 200.887 92.7069 197.637 116.877C195.037 117.637 193.277 116.077 191.527 114.797C189.057 112.807 193.917 109.897 191.397 107.867C190.157 106.877 188.697 106.617 187.117 107.277C179.567 111.217 178.887 99.5469 172.317 102.327C171.467 100.257 172.817 99.1269 173.937 97.9869C175.867 96.3769 174.437 95.4469 173.737 93.8169C174.937 89.8369 172.057 85.9569 173.487 81.9669C174.487 79.1869 172.447 76.6369 172.777 73.8769C172.847 73.3069 171.957 73.0569 171.377 72.8469C168.137 71.7969 168.427 67.4469 164.727 66.6369C163.607 66.2069 163.497 64.7869 163.567 63.6569C164.847 58.2869 156.737 57.5969 158.537 52.5069C158.247 46.1469 151.477 41.2869 152.617 34.0269C150.477 28.9769 146.667 24.0569 152.107 18.9569C165.007 24.2669 172.937 36.6169 180.687 47.5169Z" fill="#FED66C"/>
<path d="M59.5869 114.037C56.3169 107.867 56.5369 109.087 61.4969 104.257C64.5469 101.307 60.3469 98.417 57.4869 97.717C55.4269 97.377 55.5569 96.487 54.9469 94.117C54.2169 91.237 54.1469 87.937 51.7769 85.717C47.3669 80.957 54.3269 72.017 53.2969 65.377C54.1469 62.107 50.6869 62.017 50.2469 59.597C47.3869 46.827 54.8569 45.877 47.1569 43.907C46.1269 43.427 45.8669 42.687 46.4769 41.677C47.7169 38.707 50.8869 37.577 51.4269 34.237C51.8269 33.007 52.6369 32.107 53.8869 31.687C56.8769 30.737 62.8369 23.127 56.7269 23.067C53.3169 22.937 52.1769 27.507 48.5869 25.617C45.7469 25.197 48.8969 28.887 47.2069 29.927C44.2269 32.837 39.2369 30.417 37.3469 34.957C36.7069 36.107 35.2269 36.037 33.8969 36.537C32.4269 34.107 39.1169 30.107 40.8769 28.597C48.7169 21.747 58.5369 11.107 69.4769 10.337C71.3969 12.107 71.8069 15.137 75.0169 14.737C78.3569 14.137 76.0869 9.61696 82.0269 7.12696C92.2969 4.85696 88.6869 11.457 96.4269 15.657C100.497 18.317 98.0969 22.557 100.497 26.467C99.0169 31.337 94.7869 33.867 91.1269 29.717C84.9969 23.267 77.0569 34.307 72.1669 28.087C70.7069 24.207 80.7469 23.957 67.4769 20.797C63.3869 20.657 65.1469 26.627 62.6669 28.777C60.9969 31.057 64.3469 30.847 65.7869 30.927C75.2569 32.807 64.6269 40.947 69.0369 43.557C73.6769 45.437 69.3069 50.767 66.2469 47.067C64.3469 44.377 58.0269 46.177 59.8569 49.557C62.0769 53.587 62.6469 57.707 60.6569 62.067C59.8969 63.727 59.6569 65.717 59.7869 67.477C61.0869 75.857 51.2269 79.927 56.2369 87.597C55.9569 93.957 62.1269 93.717 64.2269 97.887C66.6569 109.077 80.6769 112.757 61.5769 117.237C59.5869 116.887 60.3669 115.177 59.5869 114.037Z" fill="#FCE688"/>
<path d="M172.047 102.187C174.267 101.977 176.447 98.5669 177.757 101.947C178.937 105.057 183.077 108.757 186.337 106.907C187.837 105.727 190.747 105.917 192.167 107.097C196.087 111.977 185.157 113.977 198.057 116.797C199.727 123.517 195.367 129.497 193.667 135.737C188.207 138.337 188.067 132.827 185.107 131.257C181.217 132.017 179.297 136.267 175.867 138.007C169.477 139.967 167.367 135.517 162.627 144.077C159.837 149.167 152.777 148.157 150.357 153.817C147.497 158.087 146.237 153.897 143.467 162.527C142.637 162.947 142.007 162.947 141.187 162.487C140.357 158.947 136.067 155.247 139.557 152.357C139.897 152.007 140.087 151.517 140.367 150.877C143.037 150.947 142.257 147.357 145.067 147.587C152.157 146.057 151.087 136.737 157.007 133.447C159.477 132.457 158.287 129.937 159.117 128.107C161.527 126.347 157.877 122.197 160.737 121.857C162.047 121.887 162.737 121.207 163.367 120.157C164.767 117.287 170.257 115.197 168.517 111.467C167.537 109.917 167.827 109.547 169.547 108.907C173.907 108.217 168.787 103.907 172.037 102.177L172.047 102.187Z" fill="#FDDC69"/>
<path d="M46.7868 123.037C39.9568 118.767 44.5968 115.477 41.4068 111.287C40.7268 110.307 41.0068 109.097 41.0768 107.997C40.7668 103.387 35.7868 100.607 34.7968 95.9769C34.1868 94.3069 33.2468 92.8669 31.3868 92.3469C29.1968 91.8169 28.0968 90.1269 27.2868 88.1669C25.1668 81.5169 19.4268 86.7169 14.6568 87.2169C13.0968 87.7469 11.6268 86.1769 10.2468 87.1569C9.6568 87.7269 10.1468 88.3569 10.4568 88.7969C11.4268 90.1669 11.2768 91.9669 12.2368 93.2869C13.1868 94.8269 12.3168 98.5369 9.8668 97.4469C7.1268 96.4269 5.8968 98.4569 4.4068 100.327C2.3668 94.3569 5.9868 87.0069 8.4868 81.6269C12.8568 73.8169 14.5368 65.2269 17.1068 56.7869C18.2668 55.2369 18.5968 53.1069 20.5868 51.9469C26.4468 51.9169 33.2068 53.0069 31.8468 60.5169C31.8468 61.2469 31.8868 61.9369 32.6268 62.3669C36.6968 64.4869 36.7968 69.3569 39.6668 72.2169C44.1468 73.5769 41.3568 78.7569 44.4168 80.9969C45.8168 81.8369 45.4168 83.2569 44.9368 84.5669C43.9268 87.3369 45.0568 90.1469 44.8368 92.9369C44.8168 93.2369 45.2068 93.7969 45.5068 93.8769C48.7368 94.7669 47.8268 97.2569 47.5568 99.3569C46.8168 101.547 49.0268 103.357 47.6168 105.437C46.0168 108.657 46.1068 112.777 45.9768 116.397C46.1868 118.767 50.7668 121.457 46.7768 123.027L46.7868 123.037Z" fill="#FDE274"/>
<path d="M143.627 162.497C143.927 159.847 143.577 156.067 146.907 155.617C147.587 155.507 148.597 155.777 148.827 154.997C153.157 145.557 158.647 149.627 161.957 143.687C168.977 130.967 173.087 143.927 180.387 132.827C181.777 131.007 183.837 132.527 184.377 129.247C188.077 131.237 187.857 136.807 193.337 135.957C194.317 138.027 191.417 138.927 191.277 140.727C190.617 144.067 188.827 146.637 187.547 149.767C183.747 157.187 181.757 165.867 176.217 172.117C174.817 173.917 173.527 176.637 171.187 177.427C165.607 173.787 158.527 173.087 153.617 167.987C151.017 165.287 146.867 164.817 143.627 162.497Z" fill="#FEDC57"/>
<path d="M172.317 101.987C171.467 102.887 171.517 103.967 171.087 105.057C168.107 105.157 169.807 100.567 167.297 99.3469C162.347 94.5369 167.297 93.7269 166.317 90.0669C164.717 84.8669 160.337 81.0469 160.087 75.4569C160.017 73.9669 158.967 72.8869 157.687 72.0769C154.327 69.8669 152.867 65.5869 150.037 62.8969C143.657 56.5069 147.257 48.4669 145.027 41.0269C144.247 39.1069 145.597 36.6769 146.057 34.5169C146.477 32.5269 146.297 30.9869 145.197 29.3569C141.897 25.9369 140.827 12.0469 148.207 15.5069C149.677 16.6869 152.607 17.0269 152.757 19.1669C150.497 20.1669 148.537 27.8469 150.727 29.1869C155.297 32.1269 151.697 38.0369 155.077 41.7769C156.157 44.0569 156.577 46.5969 158.557 48.4369C159.727 49.8269 160.407 51.2569 159.177 53.0969C157.317 57.5569 166.147 56.8669 164.317 64.4069C164.317 65.7369 164.857 66.6169 166.277 66.5769C170.357 66.4869 168.047 72.3969 172.287 72.1969C173.927 72.3469 174.437 73.1269 173.937 74.7369C172.837 77.5369 176.207 79.7869 174.127 82.5469C171.727 85.7469 176.687 87.9869 174.677 91.0169C173.637 92.7869 173.907 93.4469 175.477 94.8969C178.557 97.3469 172.207 98.7669 172.307 101.977L172.317 101.987Z" fill="#FCD97A"/>
<path d="M144.747 14.8369C142.147 23.5669 143.677 24.9669 147.627 32.0969C146.147 34.3469 147.187 37.1769 145.827 39.3869C144.797 42.8169 149.737 45.3569 146.557 49.5369C145.317 51.5669 146.297 53.7069 147.457 55.4769C149.747 57.8369 147.947 62.3569 151.727 63.3269C155.187 65.1469 154.537 70.5169 158.897 71.8969C160.717 72.7969 161.157 74.7369 161.127 76.3169C161.037 81.6969 166.397 84.1569 166.157 89.6769C162.937 91.8069 164.597 96.3169 161.477 97.8669C160.477 93.4969 159.027 89.0069 156.117 85.6569C156.477 82.4169 153.247 80.7769 152.777 77.8669C152.427 75.7069 150.627 75.4169 148.507 75.6969C145.607 74.8569 149.697 70.8069 145.087 72.5469C138.257 71.5469 144.827 62.7569 137.897 62.1369C136.297 61.9669 135.837 60.3369 136.947 59.0969C139.487 56.2669 139.237 52.4369 140.747 49.2569C141.507 47.6369 140.507 46.5769 139.167 45.4769C138.407 44.4569 137.797 43.4169 137.997 42.4869C138.737 38.9069 137.087 35.4769 137.507 31.9569C137.247 24.5569 126.247 24.5069 125.017 17.3569C123.717 11.5469 123.907 10.9369 127.917 8.37689C131.167 8.33689 143.377 12.2769 144.767 14.8369H144.747Z" fill="#FCE688"/>
<path d="M143.227 162.327C151.327 163.517 156.687 171.177 164.417 173.857C168.107 172.227 168.677 176.337 171.517 177.027C172.007 180.067 167.897 181.617 166.327 183.767C163.227 187.057 160.007 189.767 155.867 191.747C153.977 193.577 151.287 194.347 149.077 195.767C147.987 196.537 147.097 198.057 145.567 197.477C141.897 196.097 140.567 192.527 137.327 191.057C134.657 189.837 131.417 188.027 134.097 184.977C136.817 180.487 129.257 178.477 138.277 172.707C144.037 171.067 134.117 161.167 143.217 162.327H143.227Z" fill="#FFE652"/>
<path d="M100.127 26.8869C96.0269 21.2969 100.197 20.0069 97.1369 17.3469C94.2569 14.8669 91.2569 13.4769 89.9769 9.4969C88.7769 6.8969 84.9769 7.3269 82.3469 7.7169C83.4469 1.6669 98.6969 4.0969 103.957 2.9469C106.837 3.7869 109.407 4.1769 112.427 4.2869C115.767 8.9369 112.697 15.7769 113.397 21.1469C113.507 25.0169 111.317 27.3169 107.557 26.7369C105.047 26.3469 102.767 27.8869 100.127 26.8769V26.8869Z" fill="#FCD97A"/>
<path d="M99.907 26.9269C104.377 24.6669 113.717 28.7769 112.517 20.7369C112.067 15.5069 113.737 10.2969 112.767 4.97686C117.767 4.87686 123.157 6.57686 127.977 8.18686C126.017 10.8469 123.297 12.6869 125.677 16.6869C123.697 20.5169 119.967 19.1169 117.387 16.4469C116.297 20.8869 116.587 25.4069 113.737 29.1869C109.307 30.2669 109.997 36.8969 105.747 36.9769C101.517 35.0469 99.107 40.7069 94.507 38.5869C92.127 38.0369 89.187 37.5769 87.887 35.1869C88.347 32.5069 91.257 33.4269 93.127 33.2269C98.307 33.8069 98.197 31.1769 99.917 26.9269H99.907Z" fill="#F7E097"/>
<path d="M104.047 2.74691C102.187 5.11691 97.2669 3.81691 94.3369 4.24691C89.7669 3.59691 85.4769 5.26691 81.6669 7.72691C76.9269 12.2369 70.9069 10.1369 65.1469 11.3569C64.6369 11.5369 64.4169 11.4869 64.3069 11.0269C66.8969 8.53691 70.4769 9.19691 73.6369 8.55691C78.5669 8.12691 82.1869 4.56692 86.7469 3.15691C88.6069 2.45691 90.5469 2.24691 92.6969 2.62691C96.4169 3.10691 100.277 1.30691 104.047 2.72691V2.74691Z" fill="#F8E5B1"/>
<path d="M132.817 203.497C134.607 202.987 135.787 201.487 137.767 201.927C131.767 207.517 122.067 208.477 114.167 209.017C111.127 208.017 107.727 210.087 104.827 209.187C103.387 208.197 101.717 208.357 100.037 207.717C100.157 206.497 100.877 206.527 101.757 206.877C112.107 209.377 122.607 206.567 132.807 203.497H132.817Z" fill="#FCEA9C"/>
<path d="M16.8569 56.8269C16.2869 68.1969 11.2269 79.0469 5.38688 88.7669C4.58688 84.2669 9.77688 80.2069 10.2169 75.5169C12.6369 70.7969 12.9169 65.4369 15.2069 60.7469C16.1869 59.6769 15.4669 57.9169 16.8669 56.8269H16.8569Z" fill="#F7EAAE"/>
<path d="M7.98696 145.547C9.36696 152.777 13.477 158.817 14.657 165.797C12.867 165.447 13.297 163.507 12.427 162.297C11.307 160.747 10.257 158.917 10.097 156.817C6.67696 148.977 4.15696 141.007 3.13696 132.427C4.82696 132.817 4.81696 135.417 4.91696 136.937C7.41696 139.337 7.49696 142.437 7.98696 145.547Z" fill="#FBEEAC"/>
<path d="M36.6369 31.8169C36.4369 33.7369 34.2569 34.3369 33.7069 36.3469C29.1069 39.3969 27.6669 45.2769 22.8069 47.5369C23.0769 43.9169 27.4369 42.9769 28.3169 39.6369C30.9369 37.0769 33.2669 33.8569 36.6469 31.8169H36.6369Z" fill="#F8E5B1"/>
<path d="M193.887 77.177C190.797 69.987 187.607 63.377 185.227 55.757C188.957 61.577 193.557 70.337 193.887 77.177Z" fill="#FAE0A6"/>
<path d="M3.45692 103.307C3.59692 103.697 3.59692 103.977 3.58692 104.457C3.49692 111.017 3.60692 117.387 3.05692 124.137C0.856919 117.687 2.44692 110.367 2.85692 103.597C3.10692 103.347 3.20692 103.267 3.45692 103.307Z" fill="#F7EAAE"/>
<path d="M14.7668 166.777C19.5068 169.907 22.5368 175.127 25.7468 179.757C22.4468 178.987 16.1868 170.277 14.7668 166.777Z" fill="#FCEDA2"/>
<path d="M64.1269 10.8369C64.4169 11.0169 64.5169 11.1569 64.7869 11.3269C60.9569 13.8269 57.0169 16.2669 52.8469 18.6969C53.1469 16.0869 61.5169 11.0669 64.1269 10.8269V10.8369Z" fill="#F3EBB8" fill-opacity="0.9"/>
<path d="M152.877 19.4569C152.477 18.9269 152.257 18.4869 152.017 17.8669C152.517 17.6469 152.957 17.8469 153.387 18.1469C156.347 20.6769 160.297 21.9669 162.557 25.2069C158.767 24.3669 156.267 21.3369 152.877 19.4569Z" fill="#FADB9F"/>
<path d="M3.76699 103.267C3.59699 103.427 3.30699 103.427 3.15699 103.427C3.35699 99.7069 2.00699 95.5769 4.45699 92.3469C4.84699 95.6369 4.26699 99.8269 3.76699 103.277V103.267Z" fill="#F8E5B1"/>
<path d="M144.927 15.0669C142.497 12.2669 138.647 13.5469 136.087 10.6769C139.577 11.2169 144.067 12.0869 146.697 14.9569C146.077 15.0869 145.617 15.0769 144.937 15.0569L144.927 15.0669Z" fill="#F8E5B1"/>
<path d="M175.267 39.4669C172.307 38.1769 170.527 35.6469 169.227 32.4769C172.077 33.5869 173.277 37.0369 175.267 39.4669Z" fill="#FAE0A6"/>
<path d="M145.237 197.497C145.827 197.317 146.287 197.307 146.967 197.327C144.947 199.277 142.497 200.837 139.347 201.517C139.697 198.867 143.567 199.597 145.237 197.507V197.497Z" fill="#FCEDA2"/>
<path d="M170.817 179.557C170.667 177.407 174.027 174.147 175.747 172.757C174.827 175.367 173.147 177.587 170.817 179.557Z" fill="#F7EAAE"/>
<path d="M120.627 5.70692C117.947 7.45692 115.387 5.24692 112.777 4.69692C112.707 4.57692 112.637 4.47692 112.677 4.21692C115.377 4.44692 118.007 4.58692 120.627 5.69692V5.70692Z" fill="#F9E0BA"/>
<path d="M20.8469 51.727C19.6969 53.497 18.5969 55.107 17.2869 56.737C17.2869 54.387 18.7369 51.227 21.1969 50.517C21.2069 50.957 21.0569 51.257 20.8369 51.727H20.8469Z" fill="#F7EAAE"/>
<path d="M196.057 129.877C195.947 127.117 197.377 124.617 198.217 121.797C198.527 124.607 197.787 127.307 196.057 129.877Z" fill="#F8E5B1"/>
<path d="M185.087 54.8069C182.487 54.3669 182.367 50.4669 180.997 48.3369C183.237 49.7169 184.057 52.2169 185.087 54.8069Z" fill="#F8E5B1"/>
<path d="M196.647 86.1069C195.167 84.6369 194.217 82.7569 194.537 80.1769C196.747 81.0669 196.117 83.9969 196.647 86.1069Z" fill="#F9E5A3"/>
<path d="M190.327 144.507C189.937 142.687 190.427 138.637 192.837 138.317C192.567 140.497 191.157 142.317 190.327 144.507Z" fill="#F9E5A3"/>
<path d="M29.957 184.677C32.377 184.277 33.297 186.467 34.887 187.877C32.647 187.977 31.617 185.987 29.957 184.677Z" fill="#FCE88E"/>
<path d="M184.277 157.437C184.117 155.377 185.377 152.627 186.877 151.177C186.727 153.547 185.477 155.407 184.277 157.437Z" fill="#F7EAAE"/>
<path d="M198.157 95.9069C197.377 94.3869 196.927 92.6769 197.047 90.6169C198.367 91.9769 198.627 93.7969 198.157 95.9069Z" fill="#F8E5B1"/>
<path d="M51.9368 18.887C51.1768 20.467 49.7768 21.547 47.9768 22.417C48.3768 20.447 49.8468 19.427 51.9368 18.887Z" fill="#F3EBB8" fill-opacity="0.9"/>
<path d="M26.2368 180.437C26.4768 180.217 26.7568 180.207 27.2468 180.217C27.5468 181.627 29.1068 182.127 29.3468 183.617C27.7268 183.337 26.7768 182.207 26.2368 180.427V180.437Z" fill="#FCEDA2"/>
<path d="M81.6169 205.487C83.1169 205.507 84.8669 204.647 86.4269 206.137C84.8769 206.427 83.2069 206.707 81.6169 205.487Z" fill="#FCEA9C"/>
<path d="M74.6469 202.947C75.8169 201.997 76.8269 201.827 77.8269 203.157C77.8269 204.257 74.2769 204.187 74.6469 202.947Z" fill="#FEE67B"/>
<path d="M62.3569 198.307C63.7569 198.337 65.1169 198.227 66.1569 199.527C65.9469 199.967 65.6269 200.067 65.0469 199.927C64.0669 199.187 61.6869 200.177 62.3669 198.307H62.3569Z" fill="#FCEDA2"/>
<path d="M69.7668 201.817C70.7868 200.407 72.2868 201.057 72.4368 202.637C71.7068 202.597 69.9368 202.867 69.7668 201.817Z" fill="#FEE67B"/>
<path d="M53.447 195.517C53.767 193.917 56.517 195.277 57.147 196.067C55.877 196.967 54.787 195.967 53.447 195.517Z" fill="#FBEEAC"/>
<path d="M43.2869 26.1669C42.8869 27.0269 42.4569 28.0569 41.2069 28.5469C41.0569 27.2169 41.5169 26.2269 43.2869 26.1669Z" fill="#F8E5B1"/>
<path d="M93.937 207.297C94.537 205.797 94.627 205.797 96.227 207.477C95.507 207.907 94.787 207.777 93.937 207.297Z" fill="#FCEA9C"/>
<path d="M163.947 186.257C163.847 184.987 164.667 184.297 165.997 183.867C165.977 185.047 165.157 185.717 163.947 186.257Z" fill="#FBEEAC"/>
<path d="M21.5669 50.557C21.2569 50.657 21.1369 50.647 20.8469 50.627C20.8869 49.667 21.0269 48.687 22.2369 48.127C22.7369 48.987 22.6369 49.827 21.5769 50.567L21.5669 50.557Z" fill="#F8E5B1"/>
<path d="M188.497 147.597C188.317 146.627 188.797 145.847 189.677 145.087C190.177 146.177 189.877 147.057 188.497 147.597Z" fill="#F9E5A3"/>
<path d="M42.187 193.337C43.397 192.427 43.997 192.557 45.247 194.137C44.437 194.477 42.617 194.227 42.187 193.337Z" fill="#FCE88E"/>
<path d="M182.337 161.877C182.377 160.607 182.577 159.507 183.647 158.627C183.837 159.477 183.307 161.467 182.337 161.877Z" fill="#FBEEAC"/>
<path d="M62.2469 198.087C62.4969 198.497 62.5069 198.827 62.5269 199.327C61.5869 199.747 60.8369 199.597 60.5669 198.277C61.0269 198.047 61.5169 198.037 62.2469 198.087Z" fill="#FBEEAC"/>
<path d="M160.157 189.207C160.297 187.837 161.737 188.137 162.767 187.437C162.917 189.137 161.277 188.647 160.157 189.207Z" fill="#FBEEAC"/>
<path d="M198.367 105.717C197.277 105.337 197.447 104.537 197.907 103.567C198.797 104.017 198.667 104.787 198.367 105.717Z" fill="#F8E5B1"/>
<path d="M156.417 191.607C156.637 190.577 157.507 190.227 158.697 190.067C158.537 191.167 157.577 191.397 156.417 191.607Z" fill="#FBEEAC"/>
<path d="M72.4568 202.947C72.3268 202.687 72.3169 202.587 72.3269 202.327C73.0069 202.357 73.6868 202.547 74.5668 202.767C74.7768 202.997 74.7969 203.197 74.8569 203.547C73.9669 204.057 73.3168 203.417 72.4568 202.937V202.947Z" fill="#FCEDA2"/>
<path d="M149.117 195.847C149.237 194.727 150.197 194.497 151.377 194.287C151.157 195.297 150.217 195.537 149.117 195.847Z" fill="#FEE67B"/>
<path d="M179.277 167.837C179.117 166.847 179.527 166.007 180.597 165.377C180.717 166.347 180.367 167.207 179.277 167.837Z" fill="#FBEEAC"/>
<path d="M198.347 116.757C198.117 116.897 198.007 116.897 197.737 116.877C197.547 116.137 197.387 115.407 197.997 114.607C198.767 115.117 198.667 115.867 198.347 116.757Z" fill="#F8E5B1"/>
<path d="M153.927 193.377C154.107 192.627 154.567 192.027 155.567 191.807C155.607 192.737 155.157 193.387 153.927 193.377Z" fill="#FBEEAC"/>
<path d="M40.2969 28.7169C40.3369 29.1869 39.8869 29.5069 38.7769 29.6169C38.6769 29.1269 39.1069 28.7869 40.2969 28.7169Z" fill="#F8E5B1"/>
<path d="M180.807 47.4669C179.887 47.4669 179.257 47.0169 179.247 45.7969C180.087 45.8969 180.657 46.3969 180.807 47.4669Z" fill="#F8E5B1"/>
<path d="M77.3669 204.047C77.3269 203.687 77.4569 203.567 77.7469 203.427C78.3269 203.627 79.8169 203.597 79.8069 204.477C78.9369 204.587 78.1469 204.737 77.3669 204.047Z" fill="#FBEEAC"/>
<path d="M47.667 195.237C48.067 194.887 48.467 194.937 48.927 195.437C48.347 197.027 48.027 196.237 47.667 195.237Z" fill="#FBEEAC"/>
<path d="M167.137 29.7469C166.537 29.7769 165.657 29.9769 165.827 28.7669C166.497 28.7169 166.877 29.0569 167.137 29.7469Z" fill="#FADB9F"/>
<path d="M146.717 15.1769C146.537 15.1069 146.527 14.8269 146.527 14.6869C147.227 14.5069 147.947 14.4369 148.367 15.4569C147.907 15.5269 147.407 15.3869 146.717 15.1869V15.1769Z" fill="#F9E0BA"/>
<path d="M42.3569 193.767C42.8269 193.597 43.3869 193.527 43.9869 194.067C43.3769 195.107 42.9269 194.387 42.3569 193.767Z" fill="#FBEEAC"/>
<path d="M39.1169 191.357C39.8969 191.217 40.6869 191.077 40.9869 192.227C40.4069 192.687 39.1269 192.177 39.1169 191.357Z" fill="#FCE88E"/>
<path d="M182.107 161.887C182.207 161.707 182.457 161.707 182.587 161.707C182.687 162.407 182.717 163.127 181.707 163.517C181.447 162.987 181.777 162.537 182.107 161.887Z" fill="#F7EAAE"/>
<path d="M39.017 191.147C39.357 191.457 39.527 191.737 39.757 192.167C39.097 192.337 38.337 192.407 38.127 191.227C38.377 191.047 38.607 191.077 39.017 191.147Z" fill="#F7EAAE"/>
<path d="M176.337 172.217C175.957 171.397 176.437 170.997 177.427 170.807C177.637 171.547 177.027 171.807 176.337 172.217Z" fill="#F9E5A3"/>
<path d="M57.7769 196.747C58.2469 196.587 58.6169 196.767 58.9769 197.267C58.4369 197.787 57.9769 197.737 57.7769 196.747Z" fill="#FBEEAC"/>
<path d="M64.897 200.017C65.127 199.797 65.437 199.777 65.977 199.747C66.257 199.937 66.307 200.147 66.377 200.497C65.807 200.887 65.307 200.837 64.887 200.017H64.897Z" fill="#FBEEAC"/>
<path d="M69.657 201.607C69.877 201.787 69.897 201.957 69.957 202.227C69.437 202.727 69.017 202.567 68.647 201.827C68.877 201.617 69.157 201.607 69.657 201.607Z" fill="#FCEDA2"/>
<path d="M79.817 204.777C79.687 204.537 79.687 204.427 79.687 204.157C80.197 204.027 80.677 204.127 80.987 204.817C80.667 205.157 80.297 205.137 79.817 204.777Z" fill="#FCEA9C"/>
<path d="M88.457 206.537C88.037 205.567 89.367 205.177 89.457 206.347C89.197 206.547 88.927 206.567 88.457 206.537Z" fill="#FCEA9C"/>
<path d="M187.157 151.157C187.017 151.287 186.747 151.287 186.607 151.287C186.457 150.767 186.637 150.337 187.287 150.007C187.567 150.327 187.527 150.687 187.157 151.147V151.157Z" fill="#F9E5A3"/>
<path d="M194.777 132.327C194.387 131.837 194.557 131.387 195.247 130.987C195.547 131.457 195.407 131.917 194.777 132.327Z" fill="#F8E5B1"/>
<path d="M178.097 169.707C177.787 169.197 178.007 168.777 178.687 168.407C178.997 168.917 178.777 169.337 178.097 169.707Z" fill="#F9E5A3"/>
<path d="M168.657 181.757C168.607 181.207 168.947 180.887 169.667 180.757C169.807 181.357 169.527 181.757 168.657 181.757Z" fill="#FBEEAC"/>
<path d="M167.007 183.187C166.817 182.607 167.057 182.187 167.887 182.057C168.007 182.597 167.697 182.967 167.007 183.187Z" fill="#FBEEAC"/>
<path d="M198.447 110.767C197.887 110.677 197.407 110.407 197.997 109.647C198.457 109.837 198.567 110.177 198.447 110.767Z" fill="#F8E5B1"/>
<path d="M177.677 42.587C177.117 42.667 176.717 42.407 176.637 41.607C177.197 41.507 177.597 41.787 177.677 42.587Z" fill="#FAE0A6"/>
<path d="M178.917 44.417C178.357 44.497 177.937 44.237 177.887 43.417C178.437 43.347 178.827 43.637 178.917 44.417Z" fill="#FAE0A6"/>
<path d="M193.767 77.227C194.177 76.667 195.107 77.617 194.477 78.177C194.007 78.077 193.827 77.787 193.767 77.227Z" fill="#F9E5A3"/>
<path d="M90.0469 206.837C90.3669 206.527 90.7369 206.507 91.2169 206.837C90.9269 207.737 90.5169 207.517 90.0469 206.837Z" fill="#FBEEAC"/>
<path d="M147.647 75.4169C151.147 74.3569 153.507 74.6569 153.867 78.8469C153.497 81.4369 157.677 80.1369 156.537 82.9169C155.257 85.6069 158.287 86.3269 159.257 88.0469C159.557 92.5769 162.717 92.5469 161.247 97.6569C159.307 100.527 159.787 103.907 157.707 106.567C156.787 107.847 156.817 108.857 157.787 110.137C159.377 112.237 159.177 112.597 156.877 113.967C151.777 116.667 154.157 122.517 152.707 126.987C150.287 132.797 145.617 136.737 141.117 140.907C139.007 142.717 137.887 146.897 134.827 146.997C132.677 146.947 129.887 146.597 130.027 149.547C129.207 159.127 127.327 153.437 123.157 156.987C119.477 159.277 119.967 168.727 114.587 165.987C108.247 161.597 110.677 171.817 104.037 168.487C99.2468 164.087 95.8468 168.997 92.0468 167.237C89.9668 165.217 87.2368 165.367 84.7268 164.777C77.2068 163.377 81.7068 161.447 84.3368 157.837C84.5568 154.547 88.1868 156.687 88.2568 154.107C88.2568 153.697 88.3968 153.187 88.2068 152.897C86.7568 150.977 86.6768 141.547 89.5968 141.407C96.1768 139.187 87.7468 130.947 83.6968 134.847C80.9968 137.327 78.6168 133.887 75.6768 135.127C72.4868 135.937 72.9368 138.307 72.9468 141.037C72.8468 144.127 67.8868 146.507 65.9068 143.957C64.4068 141.387 60.1368 143.097 59.6568 139.887C59.3068 138.357 58.3468 137.547 56.9768 137.297C53.9968 135.597 46.1368 136.157 46.0068 132.257C43.7768 124.977 55.5868 125.267 56.3268 119.337C55.7168 116.227 59.2968 116.637 59.4468 114.097C61.3368 114.037 60.2768 115.817 61.1268 116.787C64.9268 120.337 60.1968 124.497 57.8168 127.187C55.3268 129.647 56.8568 130.757 59.3668 132.007C61.9368 134.397 64.4668 134.957 67.3368 132.317C70.3768 129.717 78.8168 133.117 78.5368 126.857C78.2768 123.577 79.5968 122.637 82.8068 123.387C86.0068 125.047 92.5868 123.307 93.2868 127.697C94.2868 132.867 98.1868 137.087 95.7768 142.587C92.2368 148.807 97.4368 159.187 105.007 155.787C108.817 152.347 111.637 160.587 114.707 155.807C119.907 145.357 123.427 152.567 127.367 143.057C131.687 142.837 134.717 139.707 138.617 138.917C139.677 138.707 140.867 137.817 141.207 136.897C144.347 130.297 152.847 126.927 149.457 118.297C151.807 109.487 155.217 101.227 155.287 92.1069C152.227 88.2669 152.817 83.0569 150.367 78.9569C149.577 77.6369 147.547 77.4769 147.637 75.3969L147.647 75.4169Z" fill="#FEEB85"/>
<path d="M151.207 140.237C151.917 144.177 150.367 148.047 145.557 147.597C145.447 146.247 144.697 144.477 146.027 143.667C147.757 142.617 148.497 140.157 151.197 140.237H151.207Z" fill="#FFE76C"/>
<path d="M3.78691 105.857C3.59691 105.607 3.58691 105.337 3.58691 104.867C4.60691 104.367 5.08691 105.747 3.78691 105.857Z" fill="#FDE274"/>
<path d="M55.887 195.187C55.527 195.407 55.117 195.407 54.627 194.937C55.067 194.237 55.487 194.427 55.887 195.187Z" fill="#FCEDA2"/>
<path d="M8.09701 145.727C6.91701 143.037 6.39701 140.147 4.93701 137.377C6.60701 136.827 10.567 137.087 9.37701 139.577C7.13701 141.727 9.90701 144.867 8.09701 145.717V145.727Z" fill="#FFE76C"/>
<path d="M127.707 143.167C126.307 146.107 126.727 149.337 122.237 149.407C121.127 149.347 119.777 149.637 119.057 150.367C110.607 166.997 111.407 152.927 105.867 156.117C102.427 158.547 100.577 157.227 97.5568 155.097C95.1168 155.147 94.9568 153.247 94.4468 151.607C91.8868 144.987 98.9868 138.407 93.8168 132.207C91.6368 130.617 93.8668 126.127 91.0968 125.617C87.4568 126.817 78.1968 120.027 79.2468 126.997C80.9968 134.347 68.8568 129.687 65.8668 134.147C62.7168 137.747 60.0068 132.237 56.7468 131.637C50.8868 128.687 65.0868 122.727 61.3068 117.157C63.6368 114.887 66.7768 115.017 69.4568 113.727C70.2568 113.257 71.0268 112.657 71.3768 111.797C71.8868 110.567 70.5868 110.327 69.9968 109.727C67.5868 107.277 66.1668 104.137 64.0868 101.457C64.1168 93.8369 59.0868 97.1269 56.3968 91.7869C55.2668 89.3569 55.9468 86.5369 53.7968 84.4569C52.1268 82.4269 54.6568 80.0069 55.6968 78.2269C59.1668 73.9669 58.7868 68.7269 59.3968 63.7569C59.2268 61.1369 62.1768 59.4569 60.9968 56.8869C60.1968 54.5169 61.3968 51.9569 59.2068 50.0369C57.4668 48.2369 57.8468 47.0769 60.1668 45.9869C65.7868 42.4369 64.5068 46.3269 68.7868 47.5969C72.7968 46.8769 68.8968 43.2469 66.4068 43.7069C67.0168 38.9669 73.1168 31.4069 64.3668 31.6469C63.1968 31.5169 61.6368 32.1669 61.0368 30.7969C60.4868 29.5269 61.6968 28.5869 62.4768 27.6669C64.4868 25.6969 62.9768 22.6769 65.0268 20.7169C65.9368 19.4269 66.7268 19.3369 68.0868 19.9669C70.1968 20.8869 78.8568 22.2269 74.5168 25.5869C70.6268 26.2969 73.2868 29.9969 76.0768 29.4369C79.2768 28.8269 86.5568 24.7969 88.9768 27.1569C90.4268 28.6369 97.0068 33.7669 97.4268 29.8469C97.6968 29.0469 97.9768 28.5769 99.0768 28.5769C99.5368 33.6469 98.9968 34.2169 93.8968 34.1469C88.4668 32.6469 88.4868 37.0769 84.4568 37.6069C80.1768 37.6469 79.1168 40.6469 78.8068 43.8569C78.4968 47.0169 77.6268 49.8369 76.0168 52.4969C74.3668 58.0669 81.8668 65.2869 69.0168 67.6869C67.3368 67.8369 66.5568 68.6169 66.4668 70.1269C66.5268 76.0269 60.6468 79.0069 59.5468 84.5069C57.1968 92.6669 68.2468 87.9269 69.5068 94.1969C73.9668 105.247 80.0468 100.477 81.9768 107.317C84.6568 117.367 83.3868 112.907 91.0768 115.557C100.087 117.567 102.957 122.387 101.537 131.377C101.407 132.087 101.447 132.907 101.897 133.447C104.427 136.487 103.497 139.757 102.717 143.057C101.237 147.937 106.127 144.127 108.317 145.667C111.937 149.357 117.647 146.707 120.887 143.747C129.567 135.487 132.737 125.407 145.537 121.907C146.207 121.677 147.177 121.397 147.077 120.627C146.677 117.337 149.237 114.667 148.837 111.397C148.647 109.827 149.037 108.357 150.347 107.257C153.827 104.517 148.657 101.357 150.957 98.0169C154.327 93.2669 150.787 91.1169 149.117 86.0669C150.887 82.2969 146.067 79.8169 144.137 76.8869C143.137 75.3069 142.347 73.8969 140.737 72.8569C138.757 69.5169 139.787 64.7669 135.077 63.3969C132.947 62.4369 133.597 59.7569 134.947 58.3969C136.667 54.6369 137.087 50.6569 138.787 46.9169C138.727 46.4269 138.727 46.1369 138.977 45.4969C142.387 46.5869 142.677 47.2169 141.297 50.0869C139.817 53.1169 140.487 56.7869 137.707 59.2769C136.367 60.4869 136.757 61.3869 138.487 61.6769C145.767 60.8769 139.077 70.6669 145.087 72.1069C146.937 72.4169 146.877 74.0769 147.757 75.1969C148.877 78.2469 150.997 75.4269 151.887 80.9369C155.287 84.0069 151.807 86.8169 154.537 89.0369C159.477 93.5369 151.477 111.917 150.207 117.907C149.537 118.737 149.887 119.417 149.987 120.117C151.287 125.057 147.307 125.197 144.537 127.837C143.187 130.337 140.877 131.867 138.927 133.757C136.887 138.817 131.937 140.387 127.697 143.157L127.707 143.167Z" fill="#FCE88E"/>
<path d="M69.8569 10.9969C70.6569 9.91694 71.7169 10.1469 72.6769 10.1969C76.1869 10.9869 78.0569 8.15694 81.2869 7.73694C79.6269 9.68694 77.6069 11.4669 77.2869 14.5169C75.5169 17.4969 69.6769 14.7169 69.8569 11.0069V10.9969Z" fill="#FCD97A"/>
<path d="M191.767 138.457C191.917 139.127 191.627 139.687 190.907 140.217C190.727 139.587 190.517 138.767 191.767 138.457Z" fill="#FDDC69"/>
<path d="M122.457 18.9569C123.647 18.3869 124.097 17.1469 125.467 16.9469C126.627 24.3469 139.977 24.5669 138.087 32.8069C137.057 34.9169 139.967 36.8669 139.037 38.9669C138.117 40.9769 138.857 42.9769 139.167 45.1469C131.697 44.1669 137.247 31.8669 131.177 29.1269C126.887 27.2669 120.097 24.7969 122.457 18.9569Z" fill="#FCE88E"/>
<path d="M147.767 74.977C146.077 75.097 146.617 73.107 145.407 72.327C146.297 71.457 147.537 70.507 148.527 71.277C149.827 72.527 147.337 73.407 147.767 74.967V74.977Z" fill="#FEEB85"/>
<path d="M105.247 36.6969C106.627 36.7469 107.577 35.9269 108.817 35.5369C110.667 35.8469 111.137 34.9269 111.147 33.2969C113.077 27.9069 120.487 26.2169 124.307 31.1569C137.347 40.8669 129.327 40.7369 133.457 49.7169C137.137 54.3869 130.687 60.3369 134.907 64.9369C140.037 71.1569 142.277 79.2369 147.927 85.0269C150.327 87.3469 147.677 90.1069 148.657 92.6469C149.717 95.4069 148.847 97.6469 145.847 98.7669C142.347 103.187 150.107 118.047 136.087 113.967C128.957 110.797 124.657 115.607 124.597 122.577C122.477 127.367 120.757 132.597 118.427 137.417C115.767 141.647 112.857 141.837 110.317 137.667C107.467 134.587 104.427 131.447 105.147 126.807C106.087 119.337 102.597 113.607 97.8768 108.357C93.8068 106.337 89.0368 105.837 88.1668 100.267C87.6068 93.5669 80.5768 99.3669 75.7668 95.0669C72.4768 93.2269 73.8868 89.1469 72.7568 86.1469C71.8968 84.1269 74.3168 82.4869 76.0068 83.7569C79.2468 87.1469 83.4868 87.5469 87.6668 88.5569C89.9868 89.5269 91.2969 84.9869 89.3869 83.8769C86.8969 82.2569 85.7868 80.3969 87.0568 77.4769C87.4368 75.6169 85.0268 73.9569 85.6868 71.9569C87.2668 64.3469 81.7368 56.1269 87.1668 49.4469C89.4868 47.5469 85.7768 44.9869 88.5668 43.2069C94.8869 37.3569 99.9368 46.4769 105.267 36.6669L105.247 36.6969Z" fill="#FBEEAC"/>
<path d="M105.257 37.027C103.417 41.657 100.827 43.927 95.9769 42.067C93.6169 40.577 86.4069 43.767 88.3369 46.157C89.5869 47.997 89.2069 47.797 87.9569 49.737C84.3569 53.627 85.5669 57.257 85.857 62.087C88.557 66.437 84.507 71.677 87.607 75.547C88.457 76.327 88.3369 77.307 87.8369 78.347C85.1369 82.617 90.507 81.8069 91.217 84.707C90.847 86.427 91.1969 90.447 88.4869 89.847C82.6169 86.247 82.0469 90.877 80.2069 88.217C79.2069 86.057 76.737 85.787 75.327 84.187C74.457 83.157 72.3969 84.577 73.3169 85.757C75.2569 88.787 72.5569 93.767 77.0469 95.007C82.3069 98.567 87.2969 92.537 88.3169 97.767C89.107 102.257 90.8469 106.177 95.9769 106.487C103.177 110.207 106.917 119.817 105.837 127.967C104.967 132.267 109.107 134.517 111.197 137.567C111.547 138.647 111.557 140.217 113.267 140.187C117.637 140.007 119.277 134.587 120.227 130.937C119.877 127.837 123.397 126.087 123.737 123.307C124.217 119.087 124.587 113.357 129.627 112.527C132.107 111.837 134.187 112.147 136.347 113.357C145.507 117.277 144.917 106.057 143.847 100.177C143.017 96.447 150.437 98.737 147.947 93.007C146.027 90.367 149.807 87.957 147.447 85.657C143.477 82.507 142.337 77.687 139.227 73.927C139.497 71.897 138.017 70.837 136.887 69.537C135.157 67.557 134.237 65.017 132.547 62.977C131.567 61.797 131.897 60.157 132.647 58.927C133.557 57.397 134.577 49.477 132.177 49.537C128.687 49.377 133.727 42.037 130.597 38.457C128.707 33.477 123.317 33.107 120.657 29.077C120.067 28.007 119.037 27.497 118.207 28.567C117.047 30.067 115.367 29.927 113.637 30.427C112.817 30.117 113.407 29.317 113.397 28.747C115.807 26.877 118.887 22.287 121.607 25.957C124.157 30.887 132.077 28.907 133.217 34.137C133.497 36.727 135.237 38.957 134.757 41.827C134.517 43.567 137.647 44.157 138.997 45.097C139.197 45.387 139.157 46.377 139.217 46.677C134.187 50.307 137.617 56.257 134.327 60.327C132.207 61.787 139.477 66.607 140.237 69.547C140.277 72.167 142.087 73.987 143.927 75.697C144.947 79.397 148.257 81.757 149.587 85.437C149.457 89.997 153.637 93.527 151.427 98.387C150.927 99.057 150.277 99.647 150.337 100.337C150.967 106.687 146.617 111.977 146.647 118.217C146.647 120.357 145.047 121.087 143.217 120.517C139.877 120.527 129.807 115.747 131.697 122.357C133.207 127.167 126.717 126.787 126.247 131.127C124.107 136.457 118.697 150.247 111.467 143.777C110.197 142.367 108.917 141.287 106.987 140.837C101.587 138.397 103.567 129.297 102.927 124.287C103.297 120.837 100.587 119.277 98.7669 116.847C96.8069 112.507 94.3869 110.997 89.8169 111.197C82.837 112.487 87.9769 102.797 79.0569 101.307C68.4869 99.137 72.757 88.217 66.897 87.697C65.407 87.647 63.4569 87.917 62.9869 86.077C62.0669 81.187 68.0069 79.417 70.0169 75.657C71.1869 73.897 74.5469 74.137 76.6769 75.687C77.2269 76.087 77.637 76.917 78.467 76.277C79.117 75.777 79.1469 75.027 78.927 74.317C76.167 69.057 83.467 65.197 80.577 60.547C78.057 57.237 80.3869 53.647 79.4069 50.237C77.0669 46.107 79.9569 43.287 81.8869 40.257C82.3969 39.467 83.3569 39.037 84.2969 39.127C87.6069 39.607 90.7569 37.637 94.1669 37.807C98.9269 41.697 100.947 35.327 105.257 37.047V37.027Z" fill="#FCEDA2"/>
<path d="M92.4569 37.597C88.5069 42.097 82.5769 37.007 80.6169 43.737C78.9469 45.707 78.6369 47.657 80.1669 49.847C82.2869 52.797 77.8669 56.077 80.9069 59.027C81.6469 60.927 83.7869 64.047 81.5869 65.627C76.1369 69.927 82.7169 74.807 78.2669 77.977C77.5369 78.277 76.9769 77.897 76.7869 77.307C75.9169 74.247 70.3969 74.307 69.7869 77.377C69.5569 78.787 68.4569 79.787 67.1869 80.157C65.0969 80.387 61.7569 86.637 64.5269 86.777C76.4469 85.957 66.0269 94.857 78.0169 100.347C89.7969 101.447 83.6969 112.327 89.0869 110.427C92.5969 109.927 95.6769 111.057 98.3769 113.287C98.8569 113.677 99.3169 114.197 99.2369 114.837C98.6069 118.367 103.917 118.327 103.457 121.937C104.737 126.277 103.277 130.847 104.077 135.057C105.627 137.257 104.977 140.847 108.717 140.317C109.937 140.227 110.627 141.387 111.307 142.267C117.497 151.047 124.727 134.047 125.837 128.767C126.297 125.957 132.677 126.527 131.117 122.627C131.037 121.337 128.967 120.967 129.847 119.547C130.607 118.507 133.497 117.487 134.417 117.977C137.157 119.357 140.257 118.327 143.007 119.737C148.507 121.477 145.427 107.997 148.997 105.567C151.797 103.607 147.707 100.237 151.197 98.567C149.967 101.997 155.277 105.107 150.937 107.777C148.157 110.207 150.747 114.267 148.297 117.087C146.707 118.787 149.907 122.037 146.667 122.427C144.437 122.747 142.697 124.427 140.317 124.507C139.367 124.537 138.057 125.437 137.587 126.297C135.787 130.007 130.207 130.337 129.517 134.537C128.467 138.987 123.627 140.727 121.407 144.547C119.737 146.757 116.247 146.967 113.937 148.397C110.057 150.457 108.067 143.587 104.427 146.747C103.667 147.347 102.677 146.947 101.937 146.237C101.177 145.497 100.957 144.677 101.537 143.767C102.687 141.957 102.237 139.787 102.907 137.867C103.067 135.187 99.8469 133.537 100.707 130.347C101.497 122.597 101.397 122.087 95.5569 117.347C95.3969 117.007 94.7969 116.847 94.4469 117.057C91.3969 118.677 90.0169 114.187 86.9369 115.387C82.2569 117.347 82.2569 109.867 81.0369 106.937C79.1069 100.737 74.7469 107.267 68.7169 94.517C67.8969 91.267 65.8369 91.067 63.0769 91.107C54.6269 90.497 59.3369 80.007 63.3369 76.447C65.9069 74.467 65.1069 70.957 65.9969 68.217C67.4969 64.777 70.9469 68.897 73.2369 65.397C74.0669 64.247 75.9669 64.117 75.9669 62.337C75.8969 60.427 76.5469 58.317 75.2369 56.687C72.5469 52.257 79.2169 48.497 77.9169 43.387C79.2469 34.907 82.1969 38.737 88.0369 35.377C89.1869 36.917 91.3269 36.057 92.4569 37.617V37.597Z" fill="#FCEA9C"/>
<path d="M137.857 44.337C136.407 44.957 133.397 43.657 133.837 41.977C134.737 39.637 132.987 37.917 132.847 35.947C132.537 29.187 123.757 32.147 121.167 26.477C118.517 22.377 116.897 28.637 113.637 28.557C113.837 25.827 116.317 23.617 115.867 20.607C115.897 19.497 115.727 18.367 116.267 17.317C116.617 16.637 116.167 15.517 117.207 15.267C118.297 15.007 118.387 16.147 118.867 16.717C119.737 17.767 121.067 18.037 122.387 18.737C122.927 23.717 121.777 23.077 126.377 25.457C127.597 28.537 130.907 27.137 132.747 28.777C133.587 30.567 135.247 32.017 134.907 34.317C134.257 36.007 135.847 37.377 135.967 38.897C134.707 41.307 136.347 42.677 137.857 44.327V44.337Z" fill="#FCEA9C"/>
<path d="M105.447 37.0269C101.097 37.0269 98.867 42.1869 94.447 38.0169C98.407 40.3569 104.447 32.2969 105.447 37.0269Z" fill="#FCEA9C"/>
<path d="M113.187 29.1969C114.087 30.7269 112.117 31.9769 111.607 33.2869C111.277 35.0469 109.967 36.2169 108.097 35.9369C108.447 33.1469 109.877 29.4769 113.187 29.1869V29.1969Z" fill="#FCEA9C"/>
<path d="M127.787 143.307C130.387 141.307 132.377 138.147 135.967 137.097C137.457 136.657 137.777 135.287 137.927 133.937C138.007 133.207 138.037 132.527 138.927 132.267C141.627 131.477 142.777 129.117 144.057 126.967C144.767 124.597 147.597 126.417 148.587 124.727C149.197 123.257 149.827 121.697 149.517 120.007C149.397 119.377 148.717 118.667 149.997 118.177C151.917 123.047 150.387 127.947 146.797 131.427C144.267 132.027 143.767 133.967 142.867 136.087C141.977 138.187 139.997 140.067 137.307 140.177C133.757 140.837 131.907 144.187 127.777 143.287L127.787 143.307Z" fill="#FCE688"/>
<path d="M119.777 150.057C120.037 149.157 120.647 148.517 121.887 149.287C121.507 150.197 120.727 150.027 119.777 150.057Z" fill="#FCE688"/>
<path d="M135.697 58.5369C135.147 55.3169 134.587 52.1269 135.977 49.1069C136.367 47.4969 138.237 47.8669 139.077 46.5669C139.927 46.9069 139.837 47.5969 139.437 48.2569C136.997 51.3469 137.797 55.5769 135.687 58.5369H135.697Z" fill="#FCEA9C"/>
<path d="M149.787 85.5469C147.637 82.7569 144.097 80.4369 144.077 76.6769C146.757 77.0669 147.827 81.0069 149.977 82.6369C150.857 83.6269 151.157 84.5169 149.787 85.5469Z" fill="#FCEA9C"/>
<path d="M151.667 97.8669C152.187 93.9869 149.227 91.5769 149.607 87.7269C153.317 89.9369 154.187 93.8969 151.667 97.8669Z" fill="#FCEA9C"/>
<path d="M140.397 69.4469C137.867 68.9469 136.817 65.1169 134.907 63.1469C136.847 62.7569 138.117 63.4369 138.727 65.4869C139.107 66.7669 140.747 67.5469 140.397 69.4469Z" fill="#FCEA9C"/>
<path d="M144.057 75.6069C142.507 75.5769 141.627 74.5569 141.037 72.9569C142.577 72.9969 143.467 74.0169 144.057 75.6069Z" fill="#FCEA9C"/>
<path d="M134.267 62.097C132.827 61.747 132.787 61.587 134.057 60.517C134.267 60.947 134.267 61.407 134.267 62.097Z" fill="#FCEA9C"/>
<path d="M109.247 36.1069C109.817 35.1869 110.517 34.4269 111.397 33.5769C112.007 35.6269 111.547 36.2069 109.247 36.1069Z" fill="#FCEDA2"/>
</g>
<defs>
<filter id="filter0_f_53_373" x="0.416992" y="0.68689" width="199.68" height="210.23" filterUnits="userSpaceOnUse" color-interpolation-filters="sRGB">
<feFlood flood-opacity="0" result="BackgroundImageFix"/>
<feBlend mode="normal" in="SourceGraphic" in2="BackgroundImageFix" result="shape"/>
<feGaussianBlur stdDeviation="0.75" result="effect1_foregroundBlur_53_373"/>
</filter>
<clipPath id="clip0_53_373">
<rect width="196.68" height="207.23" fill="white" transform="translate(1.91699 2.18689)"/>
</clipPath>
</defs>
</svg>
